Athinkra-Mwangwego-Book.ufo
<glyph name="exclam" format="2">
  <advance width="316"/>
  <unicode hex="0021"/>
  <outline>
    <contour>
      <point x="221.837" y="634.374" type="line"/>
      <point x="192.369" y="202.933" type="line"/>
      <point x="128.432" y="202.933" type="line"/>
      <point x="97.8529" y="634.374" type="line"/>
      <point x="97.8529" y="815.068" type="line"/>
      <point x="221.837" y="815.068" type="line"/>
    </contour>
    <contour>
      <point x="217.389" y="0" type="line"/>
      <point x="102.301" y="0" type="line"/>
      <point x="102.301" y="113.976" type="line"/>
      <point x="217.389" y="113.976" type="line"/>
    </contour>
  </outline>
</glyph>
<glyph name="quotedbl" format="2">
  <advance width="404"/>
  <unicode hex="0022"/>
  <outline>
    <contour>
      <point x="350.824" y="682.188" type="line"/>
      <point x="324.693" y="525.958" type="line"/>
      <point x="264.091" y="525.958" type="line"/>
      <point x="236.848" y="682.188" type="line"/>
      <point x="236.848" y="815.068" type="line"/>
      <point x="350.824" y="815.068" type="line"/>
    </contour>
    <contour>
      <point x="166.239" y="682.188" type="line"/>
      <point x="141.219" y="525.958" type="line"/>
      <point x="79.5051" y="525.958" type="line"/>
      <point x="52.2623" y="682.188" type="line"/>
      <point x="52.2623" y="815.068" type="line"/>
      <point x="166.239" y="815.068" type="line"/>
    </contour>
  </outline>
</glyph>
<glyph name="numbersign" format="2">
  <advance width="633"/>
  <unicode hex="0023"/>
  <outline>
    <contour>
      <point x="618.251" y="222.948" type="line"/>
      <point x="447.565" y="222.948" type="line"/>
      <point x="399.751" y="-13.8995" type="line"/>
      <point x="315.241" y="-13.8995" type="line"/>
      <point x="363.056" y="222.948" type="line"/>
      <point x="189.034" y="222.948" type="line"/>
      <point x="141.219" y="-13.8995" type="line"/>
      <point x="56.71" y="-13.8995" type="line"/>
      <point x="105.636" y="222.948" type="line"/>
      <point x="11.1196" y="222.948" type="line"/>
      <point x="11.1196" y="306.345" type="line"/>
      <point x="121.76" y="306.345" type="line"/>
      <point x="164.015" y="507.611" type="line"/>
      <point x="11.1196" y="507.611" type="line"/>
      <point x="11.1196" y="591.008" type="line"/>
      <point x="180.138" y="591.008" type="line"/>
      <point x="229.064" y="828.97" type="line"/>
      <point x="311.905" y="828.97" type="line"/>
      <point x="262.979" y="591.008" type="line"/>
      <point x="438.113" y="591.008" type="line"/>
      <point x="487.595" y="828.97" type="line"/>
      <point x="570.437" y="828.97" type="line"/>
      <point x="522.623" y="591.008" type="line"/>
      <point x="618.251" y="591.008" type="line"/>
      <point x="618.251" y="507.611" type="line"/>
      <point x="505.387" y="507.611" type="line"/>
      <point x="464.8" y="306.345" type="line"/>
      <point x="618.251" y="306.345" type="line"/>
    </contour>
    <contour>
      <point x="422.546" y="507.611" type="line"/>
      <point x="246.855" y="507.611" type="line"/>
      <point x="206.269" y="306.345" type="line"/>
      <point x="380.291" y="306.345" type="line"/>
    </contour>
  </outline>
</glyph>
<glyph name="dollar" format="2">
  <advance width="633"/>
  <unicode hex="0024"/>
  <outline>
    <contour>
      <point x="579.332" y="232.4" type="qcurve" smooth="yes"/>
      <point x="579.332" y="126.208"/>
      <point x="447.565" y="-11.1196"/>
      <point x="342.484" y="-16.1234" type="qcurve"/>
      <point x="342.484" y="-117.312" type="line"/>
      <point x="283.551" y="-117.312" type="line"/>
      <point x="283.551" y="-17.2354" type="line"/>
      <point x="210.717" y="-7.78372"/>
      <point x="167.35" y="13.8996" type="qcurve" smooth="yes"/>
      <point x="115.088" y="40.0306"/>
      <point x="46.7024" y="147.891"/>
      <point x="41.1426" y="226.84" type="qcurve"/>
      <point x="141.219" y="244.632" type="line"/>
      <point x="165.126" y="79.5051"/>
      <point x="283.551" y="67.274" type="qcurve"/>
      <point x="283.551" y="385.851" type="line"/>
      <point x="221.837" y="397.527"/>
      <point x="157.343" y="433.666" type="qcurve" smooth="yes"/>
      <point x="57.822" y="489.82"/>
      <point x="57.822" y="614.915" type="qcurve" smooth="yes"/>
      <point x="57.822" y="721.663"/>
      <point x="133.436" y="787.826" type="qcurve" smooth="yes"/>
      <point x="184.586" y="832.302"/>
      <point x="283.551" y="842.865" type="qcurve"/>
      <point x="283.551" y="890.679" type="line"/>
      <point x="342.484" y="890.679" type="line"/>
      <point x="342.484" y="842.865" type="line"/>
      <point x="534.298" y="824.523"/>
      <point x="560.429" y="641.044" type="qcurve"/>
      <point x="456.46" y="626.035" type="line"/>
      <point x="439.781" y="737.788"/>
      <point x="342.484" y="758.36" type="qcurve"/>
      <point x="342.484" y="469.248" type="line"/>
      <point x="419.21" y="449.789"/>
      <point x="443.117" y="439.781" type="qcurve" smooth="yes"/>
      <point x="532.63" y="400.862"/>
      <point x="563.765" y="319.689" type="qcurve" smooth="yes"/>
      <point x="579.332" y="279.102"/>
    </contour>
    <contour>
      <point x="283.551" y="759.469" type="line"/>
      <point x="227.952" y="750.575"/>
      <point x="158.455" y="677.741"/>
      <point x="158.455" y="622.699" type="qcurve" smooth="yes"/>
      <point x="158.455" y="520.398"/>
      <point x="283.551" y="481.48" type="qcurve"/>
    </contour>
    <contour>
      <point x="477.032" y="225.729" type="qcurve" smooth="yes"/>
      <point x="477.032" y="287.998"/>
      <point x="439.781" y="323.581" type="qcurve"/>
      <point x="410.87" y="349.712"/>
      <point x="342.484" y="372.508" type="qcurve"/>
      <point x="342.484" y="67.274" type="line"/>
      <point x="403.087" y="75.0575"/>
      <point x="477.032" y="162.902"/>
    </contour>
  </outline>
</glyph>
<glyph name="percent" format="2">
  <advance width="1013"/>
  <unicode hex="0025"/>
  <outline>
    <contour>
      <point x="942.947" y="185.698" type="qcurve" smooth="yes"/>
      <point x="942.947" y="95.6288"/>
      <point x="899.58" y="36.6948" type="qcurve" smooth="yes"/>
      <point x="851.765" y="-29.467"/>
      <point x="765.03" y="-29.467" type="qcurve" smooth="yes"/>
      <point x="677.741" y="-29.467"/>
      <point x="632.15" y="40.0306" type="qcurve" smooth="yes"/>
      <point x="593.232" y="97.8529"/>
      <point x="593.232" y="191.258" type="qcurve" smooth="yes"/>
      <point x="593.232" y="279.102"/>
      <point x="634.374" y="335.813" type="qcurve" smooth="yes"/>
      <point x="681.08" y="400.862"/>
      <point x="765.03" y="400.862" type="qcurve" smooth="yes"/>
      <point x="853.989" y="400.862"/>
      <point x="900.688" y="334.701" type="qcurve"/>
      <point x="942.947" y="277.991"/>
    </contour>
    <contour>
      <point x="767.254" y="828.97" type="line"/>
      <point x="323.581" y="-29.4669" type="line"/>
      <point x="240.184" y="-29.4669" type="line"/>
      <point x="686.635" y="828.97" type="line"/>
    </contour>
    <contour>
      <point x="414.206" y="613.803" type="qcurve" smooth="yes"/>
      <point x="414.206" y="523.734"/>
      <point x="372.508" y="464.8" type="qcurve" smooth="yes"/>
      <point x="324.693" y="398.638"/>
      <point x="237.96" y="398.638" type="qcurve" smooth="yes"/>
      <point x="150.115" y="398.638"/>
      <point x="104.525" y="467.024" type="qcurve" smooth="yes"/>
      <point x="66.1616" y="525.958"/>
      <point x="66.1616" y="619.363" type="qcurve" smooth="yes"/>
      <point x="66.1616" y="707.207"/>
      <point x="107.304" y="763.916" type="qcurve" smooth="yes"/>
      <point x="153.451" y="828.97"/>
      <point x="236.848" y="828.97" type="qcurve" smooth="yes"/>
      <point x="325.805" y="828.97"/>
      <point x="373.619" y="762.807" type="qcurve" smooth="yes"/>
      <point x="414.206" y="706.099"/>
    </contour>
    <contour>
      <point x="855.097" y="189.034" type="qcurve" smooth="yes"/>
      <point x="855.097" y="332.477"/>
      <point x="767.254" y="332.477" type="qcurve" smooth="yes"/>
      <point x="681.08" y="332.477"/>
      <point x="681.08" y="181.25" type="qcurve" smooth="yes"/>
      <point x="681.08" y="38.9187"/>
      <point x="767.254" y="38.9187" type="qcurve" smooth="yes"/>
      <point x="855.097" y="38.9187"/>
    </contour>
    <contour>
      <point x="328.029" y="617.139" type="qcurve" smooth="yes"/>
      <point x="328.029" y="759.469"/>
      <point x="240.184" y="759.469" type="qcurve" smooth="yes"/>
      <point x="153.451" y="759.469"/>
      <point x="153.451" y="609.356" type="qcurve" smooth="yes"/>
      <point x="153.451" y="467.024"/>
      <point x="240.184" y="467.024" type="qcurve" smooth="yes"/>
      <point x="328.029" y="467.024"/>
    </contour>
  </outline>
</glyph>
<glyph name="ampersand" format="2">
  <advance width="760"/>
  <unicode hex="0026"/>
  <outline>
    <contour>
      <point x="666.063" y="-19.4593" type="line"/>
      <point x="606.02" y="20.5713"/>
      <point x="540.97" y="95.6288" type="qcurve"/>
      <point x="442.005" y="-13.8996"/>
      <point x="307.458" y="-13.8996" type="qcurve" smooth="yes"/>
      <point x="181.25" y="-13.8996"/>
      <point x="108.416" y="70.6099" type="qcurve" smooth="yes"/>
      <point x="48.9263" y="138.995"/>
      <point x="48.9263" y="224.061" type="qcurve" smooth="yes"/>
      <point x="48.9263" y="375.844"/>
      <point x="242.408" y="468.136" type="qcurve"/>
      <point x="151.227" y="573.773"/>
      <point x="151.227" y="646.606" type="qcurve" smooth="yes"/>
      <point x="151.227" y="726.664"/>
      <point x="214.052" y="778.932" type="qcurve" smooth="yes"/>
      <point x="271.875" y="828.97"/>
      <point x="354.16" y="828.97" type="qcurve" smooth="yes"/>
      <point x="431.441" y="828.97"/>
      <point x="543.193" y="732.226"/>
      <point x="543.193" y="654.946" type="qcurve" smooth="yes"/>
      <point x="543.193" y="538.746"/>
      <point x="389.187" y="456.46" type="qcurve"/>
      <point x="535.41" y="269.651" type="line"/>
      <point x="560.429" y="318.577"/>
      <point x="573.773" y="383.627" type="qcurve"/>
      <point x="678.85" y="360.832" type="line"/>
      <point x="651.053" y="255.195"/>
      <point x="606.02" y="185.698" type="qcurve"/>
      <point x="662.731" y="111.752"/>
      <point x="733.341" y="60.602" type="qcurve"/>
    </contour>
    <contour>
      <point x="440.893" y="652.722" type="qcurve" smooth="yes"/>
      <point x="440.893" y="693.306"/>
      <point x="389.187" y="746.682"/>
      <point x="348.6" y="746.682" type="qcurve" smooth="yes"/>
      <point x="308.57" y="746.682"/>
      <point x="254.083" y="695.535"/>
      <point x="254.083" y="657.169" type="qcurve" smooth="yes"/>
      <point x="254.083" y="618.251"/>
      <point x="292.446" y="572.66" type="qcurve" smooth="yes"/>
      <point x="336.924" y="521.51" type="line"/>
      <point x="388.075" y="550.977"/>
      <point x="408.646" y="572.66" type="qcurve" smooth="yes"/>
      <point x="440.893" y="607.131"/>
    </contour>
    <contour>
      <point x="478.144" y="175.134" type="qcurve"/>
      <point x="294.67" y="403.087" type="line"/>
      <point x="157.343" y="319.689"/>
      <point x="157.343" y="231.288" type="qcurve" smooth="yes"/>
      <point x="157.343" y="168.462"/>
      <point x="245.744" y="73.9457"/>
      <point x="308.57" y="73.9457" type="qcurve" smooth="yes"/>
      <point x="356.384" y="73.9457"/>
      <point x="450.901" y="133.436"/>
    </contour>
  </outline>
</glyph>
<glyph name="quotesingle" format="2">
  <advance width="217"/>
  <unicode hex="0027"/>
  <outline>
    <contour>
      <point x="164.015" y="678.85" type="line"/>
      <point x="137.883" y="525.958" type="line"/>
      <point x="75.0575" y="525.958" type="line"/>
      <point x="50.0383" y="678.85" type="line"/>
      <point x="50.0383" y="815.068" type="line"/>
      <point x="164.015" y="815.068" type="line"/>
    </contour>
  </outline>
</glyph>
<glyph name="parenleft" format="2">
  <advance width="379"/>
  <unicode hex="0028"/>
  <outline>
    <contour>
      <point x="338.037" y="-239.072" type="qcurve"/>
      <point x="266.315" y="-239.072" type="line"/>
      <point x="69.4975" y="8.89569"/>
      <point x="69.4975" y="294.67" type="qcurve" smooth="yes"/>
      <point x="69.4975" y="565.989"/>
      <point x="266.315" y="828.97" type="qcurve"/>
      <point x="338.037" y="828.97" type="line"/>
      <point x="270.763" y="713.878"/>
      <point x="249.636" y="663.84" type="qcurve" smooth="yes"/>
      <point x="171.798" y="488.707"/>
      <point x="171.798" y="294.67" type="qcurve" smooth="yes"/>
      <point x="171.798" y="27.2431"/>
    </contour>
  </outline>
</glyph>
<glyph name="parenright" format="2">
  <advance width="379"/>
  <unicode hex="0029"/>
  <outline>
    <contour>
      <point x="338.037" y="294.67" type="qcurve"/>
      <point x="338.037" y="11.1196"/>
      <point x="141.219" y="-239.072" type="qcurve"/>
      <point x="69.4975" y="-239.072" type="line"/>
      <point x="235.736" y="27.2431"/>
      <point x="235.736" y="294.67" type="qcurve" smooth="yes"/>
      <point x="235.736" y="487.595"/>
      <point x="158.455" y="662.731" type="qcurve" smooth="yes"/>
      <point x="135.659" y="713.878"/>
      <point x="69.4975" y="828.97" type="qcurve"/>
      <point x="141.219" y="828.97" type="line"/>
      <point x="338.037" y="565.989"/>
    </contour>
  </outline>
</glyph>
<glyph name="asterisk" format="2">
  <advance width="442"/>
  <unicode hex="002A"/>
  <outline>
    <contour>
      <point x="403.087" y="664.955" type="line"/>
      <point x="332.477" y="642.159"/>
      <point x="264.091" y="634.374" type="qcurve"/>
      <point x="298.562" y="604.352"/>
      <point x="359.72" y="529.294" type="qcurve"/>
      <point x="293.558" y="481.48" type="line"/>
      <point x="260.755" y="525.958"/>
      <point x="217.389" y="601.016" type="qcurve"/>
      <point x="176.246" y="522.623"/>
      <point x="144.555" y="481.48" type="qcurve"/>
      <point x="79.5051" y="529.294" type="line"/>
      <point x="143.443" y="609.356"/>
      <point x="171.798" y="634.374" type="qcurve"/>
      <point x="100.076" y="647.721"/>
      <point x="35.0268" y="664.955" type="qcurve"/>
      <point x="61.7139" y="744.458" type="line"/>
      <point x="149.003" y="712.769"/>
      <point x="190.146" y="689.974" type="qcurve"/>
      <point x="179.026" y="791.164"/>
      <point x="179.026" y="828.97" type="qcurve"/>
      <point x="259.643" y="828.97" type="line"/>
      <point x="257.419" y="774.479"/>
      <point x="245.744" y="691.082" type="qcurve"/>
      <point x="304.122" y="719.44"/>
      <point x="378.067" y="744.458" type="qcurve"/>
    </contour>
  </outline>
</glyph>
<glyph name="plus" format="2">
  <advance width="666"/>
  <unicode hex="002B"/>
  <outline>
    <contour>
      <point x="601.016" y="355.272" type="line"/>
      <point x="379.179" y="355.272" type="line"/>
      <point x="379.179" y="132.323" type="line"/>
      <point x="284.662" y="132.323" type="line"/>
      <point x="284.662" y="355.272" type="line"/>
      <point x="63.9381" y="355.272" type="line"/>
      <point x="63.9381" y="448.677" type="line"/>
      <point x="284.662" y="448.677" type="line"/>
      <point x="284.662" y="670.51" type="line"/>
      <point x="379.179" y="670.51" type="line"/>
      <point x="379.179" y="448.677" type="line"/>
      <point x="601.016" y="448.677" type="line"/>
    </contour>
  </outline>
</glyph>
<glyph name="hyphen" format="2">
  <advance width="379"/>
  <unicode hex="002D"/>
  <outline>
    <contour>
      <point x="343.597" y="244.632" type="line"/>
      <point x="36.6948" y="244.632" type="line"/>
      <point x="36.6948" y="345.265" type="line"/>
      <point x="343.597" y="345.265" type="line"/>
    </contour>
  </outline>
</glyph>
<glyph name="period" format="2">
  <advance width="316"/>
  <unicode hex="002E"/>
  <outline>
    <contour>
      <point x="217.389" y="0" type="line"/>
      <point x="103.412" y="0" type="line"/>
      <point x="103.412" y="113.976" type="line"/>
      <point x="217.389" y="113.976" type="line"/>
    </contour>
  </outline>
</glyph>
<glyph name="slash" format="2">
  <advance width="316"/>
  <unicode hex="002F"/>
  <outline>
    <contour>
      <point x="316.354" y="828.97" type="line"/>
      <point x="80.6174" y="-13.8995" type="line"/>
      <point x="0" y="-13.8995" type="line"/>
      <point x="236.848" y="828.97" type="line"/>
    </contour>
  </outline>
</glyph>
<glyph name="zero" format="2">
  <advance width="633"/>
  <unicode hex="0030"/>
  <outline>
    <contour>
      <point x="578.22" y="401.974" type="qcurve" smooth="yes"/>
      <point x="578.22" y="131.212"/>
      <point x="460.909" y="33.9148" type="qcurve" smooth="yes"/>
      <point x="403.087" y="-13.8996"/>
      <point x="313.017" y="-13.8996" type="qcurve" smooth="yes"/>
      <point x="47.8144" y="-13.8996"/>
      <point x="47.8144" y="401.974" type="qcurve" smooth="yes"/>
      <point x="47.8144" y="673.849"/>
      <point x="165.126" y="771.147" type="qcurve" smooth="yes"/>
      <point x="224.061" y="818.961"/>
      <point x="313.017" y="818.961" type="qcurve" smooth="yes"/>
      <point x="443.117" y="818.961"/>
      <point x="510.391" y="716.101" type="qcurve" smooth="yes"/>
      <point x="578.22" y="609.356"/>
    </contour>
    <contour>
      <point x="475.92" y="401.974" type="qcurve" smooth="yes"/>
      <point x="475.92" y="537.634"/>
      <point x="454.237" y="610.467" type="qcurve" smooth="yes"/>
      <point x="416.986" y="735.565"/>
      <point x="311.905" y="735.565" type="qcurve" smooth="yes"/>
      <point x="209.605" y="735.565"/>
      <point x="171.798" y="610.467" type="qcurve" smooth="yes"/>
      <point x="150.115" y="536.522"/>
      <point x="150.115" y="401.974" type="qcurve" smooth="yes"/>
      <point x="150.115" y="267.427"/>
      <point x="171.798" y="194.593" type="qcurve" smooth="yes"/>
      <point x="209.605" y="68.3857"/>
      <point x="313.017" y="68.3857" type="qcurve" smooth="yes"/>
      <point x="475.92" y="68.3857"/>
    </contour>
  </outline>
</glyph>
<glyph name="one" format="2">
  <advance width="633"/>
  <unicode hex="0031"/>
  <outline>
    <contour>
      <point x="424.77" y="0" type="line"/>
      <point x="324.693" y="0" type="line"/>
      <point x="324.693" y="637.712" type="line"/>
      <point x="243.52" y="561.541"/>
      <point x="123.984" y="517.063" type="qcurve"/>
      <point x="123.984" y="613.803" type="line"/>
      <point x="299.674" y="695.535"/>
      <point x="359.72" y="818.961" type="qcurve"/>
      <point x="424.77" y="818.961" type="line"/>
    </contour>
  </outline>
</glyph>
<glyph name="two" format="2">
  <advance width="633"/>
  <unicode hex="0032"/>
  <outline>
    <contour>
      <point x="572.66" y="0" type="line"/>
      <point x="33.9148" y="0" type="line"/>
      <point x="31.6909" y="83.3971"/>
      <point x="111.752" y="177.358" type="qcurve" smooth="yes"/>
      <point x="157.343" y="231.288"/>
      <point x="242.408" y="301.898" type="qcurve" smooth="yes"/>
      <point x="343.597" y="383.627"/>
      <point x="384.739" y="429.217" type="qcurve" smooth="yes"/>
      <point x="469.248" y="520.398"/>
      <point x="469.248" y="594.344" type="qcurve" smooth="yes"/>
      <point x="469.248" y="658.284"/>
      <point x="380.291" y="735.565"/>
      <point x="315.241" y="735.565" type="qcurve" smooth="yes"/>
      <point x="241.296" y="735.565"/>
      <point x="157.343" y="646.606"/>
      <point x="156.23" y="571.549" type="qcurve"/>
      <point x="53.3742" y="583.224" type="line"/>
      <point x="63.9381" y="697.759"/>
      <point x="201.265" y="818.961"/>
      <point x="317.465" y="818.961" type="qcurve" smooth="yes"/>
      <point x="425.881" y="818.961"/>
      <point x="496.491" y="760.584" type="qcurve" smooth="yes"/>
      <point x="571.549" y="697.759"/>
      <point x="571.549" y="592.12" type="qcurve" smooth="yes"/>
      <point x="571.549" y="494.267"/>
      <point x="485.927" y="396.415" type="qcurve" smooth="yes"/>
      <point x="438.113" y="342.484"/>
      <point x="331.365" y="252.972" type="qcurve" smooth="yes"/>
      <point x="255.928" y="190.578"/>
      <point x="245.744" y="181.25" type="qcurve" smooth="yes"/>
      <point x="196.428" y="136.081"/>
      <point x="172.91" y="95.6288" type="qcurve"/>
      <point x="572.66" y="95.6288" type="line"/>
    </contour>
  </outline>
</glyph>
<glyph name="three" format="2">
  <advance width="633"/>
  <unicode hex="0033"/>
  <outline>
    <contour>
      <point x="582.113" y="240.184" type="qcurve" smooth="yes"/>
      <point x="582.114" y="128.432"/>
      <point x="421.434" y="-15.0115"/>
      <point x="307.458" y="-15.0115" type="qcurve" smooth="yes"/>
      <point x="201.265" y="-15.0115"/>
      <point x="57.822" y="110.64"/>
      <point x="47.8144" y="215.165" type="qcurve"/>
      <point x="147.891" y="229.064" type="line"/>
      <point x="180.138" y="68.3858"/>
      <point x="307.458" y="68.3858" type="qcurve" smooth="yes"/>
      <point x="379.179" y="68.3858"/>
      <point x="474.808" y="166.239"/>
      <point x="474.808" y="237.96" type="qcurve" smooth="yes"/>
      <point x="474.808" y="308.57"/>
      <point x="384.739" y="397.527"/>
      <point x="315.241" y="397.527" type="qcurve" smooth="yes"/>
      <point x="286.886" y="397.527"/>
      <point x="244.632" y="385.851" type="qcurve"/>
      <point x="256.308" y="473.696" type="line"/>
      <point x="266.315" y="472.584"/>
      <point x="271.875" y="472.584" type="qcurve" smooth="yes"/>
      <point x="341.373" y="472.584"/>
      <point x="386.963" y="505.387" type="qcurve" smooth="yes"/>
      <point x="438.113" y="542.082"/>
      <point x="438.113" y="609.356" type="qcurve" smooth="yes"/>
      <point x="438.113" y="666.063"/>
      <point x="363.056" y="735.565"/>
      <point x="305.234" y="735.565" type="qcurve" smooth="yes"/>
      <point x="180.138" y="735.565"/>
      <point x="158.455" y="589.896" type="qcurve"/>
      <point x="57.822" y="607.131" type="line"/>
      <point x="76.1692" y="706.099"/>
      <point x="204.045" y="818.961"/>
      <point x="303.01" y="818.961" type="qcurve" smooth="yes"/>
      <point x="366.391" y="818.961"/>
      <point x="421.434" y="792.273" type="qcurve" smooth="yes"/>
      <point x="480.368" y="762.807"/>
      <point x="542.082" y="662.731"/>
      <point x="542.082" y="607.131" type="qcurve" smooth="yes"/>
      <point x="542.082" y="493.155"/>
      <point x="429.217" y="442.005" type="qcurve"/>
      <point x="503.163" y="424.77"/>
      <point x="582.113" y="317.465"/>
    </contour>
  </outline>
</glyph>
<glyph name="four" format="2">
  <advance width="633"/>
  <unicode hex="0034"/>
  <outline>
    <contour>
      <point x="578.22" y="194.593" type="line"/>
      <point x="468.136" y="194.593" type="line"/>
      <point x="468.136" y="0" type="line"/>
      <point x="368.059" y="0" type="line"/>
      <point x="368.059" y="194.593" type="line"/>
      <point x="15.0115" y="194.593" type="line"/>
      <point x="15.0115" y="286.886" type="line"/>
      <point x="385.851" y="815.068" type="line"/>
      <point x="468.136" y="815.068" type="line"/>
      <point x="468.136" y="286.886" type="line"/>
      <point x="578.22" y="286.886" type="line"/>
    </contour>
    <contour>
      <point x="368.059" y="286.886" type="line"/>
      <point x="368.059" y="654.946" type="line"/>
      <point x="112.864" y="286.886" type="line"/>
    </contour>
  </outline>
</glyph>
<glyph name="five" format="2">
  <advance width="633"/>
  <unicode hex="0035"/>
  <outline>
    <contour>
      <point x="587.672" y="276.879" type="qcurve" smooth="yes"/>
      <point x="587.672" y="166.239"/>
      <point x="522.623" y="85.6212" type="qcurve" smooth="yes"/>
      <point x="444.229" y="-13.8995"/>
      <point x="308.57" y="-13.8995" type="qcurve" smooth="yes"/>
      <point x="201.265" y="-13.8995"/>
      <point x="57.822" y="107.304"/>
      <point x="47.8143" y="214.052" type="qcurve"/>
      <point x="152.339" y="221.837" type="line"/>
      <point x="162.902" y="153.451"/>
      <point x="200.153" y="112.864" type="qcurve" smooth="yes"/>
      <point x="242.408" y="68.3858"/>
      <point x="308.57" y="68.3858" type="qcurve" smooth="yes"/>
      <point x="389.187" y="68.3858"/>
      <point x="437" y="129.544" type="qcurve" smooth="yes"/>
      <point x="481.479" y="185.698"/>
      <point x="481.479" y="267.427" type="qcurve" smooth="yes"/>
      <point x="481.479" y="349.712"/>
      <point x="389.186" y="452.013"/>
      <point x="307.457" y="452.013" type="qcurve" smooth="yes"/>
      <point x="209.604" y="452.013"/>
      <point x="159.565" y="373.619" type="qcurve"/>
      <point x="65.0489" y="384.739" type="line"/>
      <point x="143.442" y="803.951" type="line"/>
      <point x="548.752" y="803.951" type="line"/>
      <point x="548.752" y="708.322" type="line"/>
      <point x="224.06" y="708.322" type="line"/>
      <point x="180.137" y="489.82" type="line"/>
      <point x="254.082" y="540.97"/>
      <point x="333.587" y="540.97" type="qcurve" smooth="yes"/>
      <point x="445.34" y="540.97"/>
      <point x="587.671" y="388.075"/>
    </contour>
  </outline>
</glyph>
<glyph name="six" format="2">
  <advance width="633"/>
  <unicode hex="0036"/>
  <outline>
    <contour>
      <point x="580.445" y="264.091" type="qcurve" smooth="yes"/>
      <point x="580.445" y="190.145"/>
      <point x="549.866" y="126.208" type="qcurve" smooth="yes"/>
      <point x="517.063" y="56.7101"/>
      <point x="399.751" y="-13.8996"/>
      <point x="325.805" y="-13.8996" type="qcurve" smooth="yes"/>
      <point x="169.575" y="-13.8996"/>
      <point x="98.9647" y="112.864" type="qcurve" smooth="yes"/>
      <point x="43.3665" y="211.829"/>
      <point x="43.3665" y="381.403" type="qcurve" smooth="yes"/>
      <point x="43.3665" y="818.961"/>
      <point x="334.701" y="818.961" type="qcurve" smooth="yes"/>
      <point x="431.441" y="818.961"/>
      <point x="554.313" y="710.546"/>
      <point x="567.101" y="616.027" type="qcurve"/>
      <point x="467.024" y="608.243" type="line"/>
      <point x="453.124" y="667.178"/>
      <point x="429.217" y="693.306" type="qcurve" smooth="yes"/>
      <point x="389.187" y="735.565"/>
      <point x="329.141" y="735.565" type="qcurve" smooth="yes"/>
      <point x="222.948" y="735.565"/>
      <point x="170.686" y="609.356" type="qcurve" smooth="yes"/>
      <point x="143.443" y="543.193"/>
      <point x="142.331" y="420.322" type="qcurve"/>
      <point x="214.053" y="528.182"/>
      <point x="340.261" y="528.182" type="qcurve" smooth="yes"/>
      <point x="447.565" y="528.182"/>
      <point x="515.951" y="449.789" type="qcurve" smooth="yes"/>
      <point x="580.445" y="374.731"/>
    </contour>
    <contour>
      <point x="478.144" y="258.531" type="qcurve" smooth="yes"/>
      <point x="478.144" y="335.813"/>
      <point x="438.113" y="385.851" type="qcurve" smooth="yes"/>
      <point x="395.302" y="440.893"/>
      <point x="319.689" y="440.893" type="qcurve" smooth="yes"/>
      <point x="246.855" y="440.893"/>
      <point x="158.455" y="338.037"/>
      <point x="158.455" y="264.091" type="qcurve" smooth="yes"/>
      <point x="158.455" y="145.667"/>
      <point x="241.296" y="93.4047" type="qcurve" smooth="yes"/>
      <point x="281.326" y="68.3857"/>
      <point x="324.693" y="68.3857" type="qcurve" smooth="yes"/>
      <point x="397.527" y="68.3857"/>
      <point x="440.893" y="128.432" type="qcurve" smooth="yes"/>
      <point x="478.144" y="182.362"/>
    </contour>
  </outline>
</glyph>
<glyph name="seven" format="2">
  <advance width="633"/>
  <unicode hex="0037"/>
  <outline>
    <contour>
      <point x="582.113" y="726.664" type="line"/>
      <point x="494.267" y="633.265"/>
      <point x="418.098" y="490.931" type="qcurve" smooth="yes"/>
      <point x="347.488" y="357.496"/>
      <point x="308.57" y="224.061" type="qcurve" smooth="yes"/>
      <point x="279.102" y="119.536"/>
      <point x="270.763" y="0" type="qcurve"/>
      <point x="167.35" y="0" type="line"/>
      <point x="169.575" y="115.088"/>
      <point x="211.829" y="255.195" type="qcurve" smooth="yes"/>
      <point x="250.748" y="383.627"/>
      <point x="309.681" y="495.38" type="qcurve" smooth="yes"/>
      <point x="376.955" y="621.587"/>
      <point x="453.124" y="708.322" type="qcurve"/>
      <point x="53.3742" y="708.322" type="line"/>
      <point x="53.3742" y="805.06" type="line"/>
      <point x="582.112" y="805.06" type="line"/>
    </contour>
  </outline>
</glyph>
<glyph name="eight" format="2">
  <advance width="633"/>
  <unicode hex="0038"/>
  <outline>
    <contour>
      <point x="583.224" y="233.512" type="qcurve" smooth="yes"/>
      <point x="583.224" y="120.648"/>
      <point x="428.106" y="-13.8995"/>
      <point x="314.129" y="-13.8995" type="qcurve" smooth="yes"/>
      <point x="200.153" y="-13.8995"/>
      <point x="46.7024" y="122.872"/>
      <point x="46.7024" y="235.736" type="qcurve" smooth="yes"/>
      <point x="46.7024" y="401.974"/>
      <point x="201.265" y="442.005" type="qcurve"/>
      <point x="78.3933" y="487.595"/>
      <point x="78.3933" y="608.243" type="qcurve" smooth="yes"/>
      <point x="79.127" y="704.099"/>
      <point x="149.003" y="762.807" type="qcurve" smooth="yes"/>
      <point x="214.798" y="818.086"/>
      <point x="313.017" y="818.961" type="qcurve" smooth="yes"/>
      <point x="411.231" y="818.082"/>
      <point x="478.144" y="761.692" type="qcurve" smooth="yes"/>
      <point x="549.127" y="701.872"/>
      <point x="549.866" y="606.02" type="qcurve" smooth="yes"/>
      <point x="549.866" y="487.595"/>
      <point x="429.217" y="442.005" type="qcurve"/>
      <point x="583.224" y="391.967"/>
    </contour>
    <contour>
      <point x="447.565" y="606.02" type="qcurve" smooth="yes"/>
      <point x="447.565" y="661.616"/>
      <point x="370.284" y="735.565"/>
      <point x="314.129" y="735.565" type="qcurve" smooth="yes"/>
      <point x="259.643" y="735.565"/>
      <point x="181.25" y="666.063"/>
      <point x="181.25" y="611.579" type="qcurve" smooth="yes"/>
      <point x="181.25" y="552.089"/>
      <point x="256.308" y="480.368"/>
      <point x="315.241" y="480.368" type="qcurve" smooth="yes"/>
      <point x="371.395" y="480.368"/>
      <point x="447.565" y="550.977"/>
    </contour>
    <contour>
      <point x="480.368" y="232.4" type="qcurve" smooth="yes"/>
      <point x="480.368" y="304.122"/>
      <point x="384.739" y="398.638"/>
      <point x="311.905" y="398.638" type="qcurve" smooth="yes"/>
      <point x="241.296" y="398.638"/>
      <point x="149.003" y="306.345"/>
      <point x="149.003" y="235.736" type="qcurve" smooth="yes"/>
      <point x="149.003" y="134.547"/>
      <point x="230.176" y="90.0688" type="qcurve" smooth="yes"/>
      <point x="269.651" y="68.3857"/>
      <point x="315.241" y="68.3857" type="qcurve" smooth="yes"/>
      <point x="386.963" y="68.3857"/>
      <point x="480.368" y="160.679"/>
    </contour>
  </outline>
</glyph>
<glyph name="nine" format="2">
  <advance width="633"/>
  <unicode hex="0039"/>
  <outline>
    <contour>
      <point x="583.224" y="424.77" type="qcurve" smooth="yes"/>
      <point x="583.224" y="132.323"/>
      <point x="448.677" y="33.9148" type="qcurve" smooth="yes"/>
      <point x="381.403" y="-13.8996"/>
      <point x="291.334" y="-13.8996" type="qcurve" smooth="yes"/>
      <point x="194.593" y="-13.8996"/>
      <point x="73.9457" y="92.2929"/>
      <point x="62.8259" y="189.034" type="qcurve"/>
      <point x="158.455" y="196.818" type="line"/>
      <point x="182.362" y="68.3857"/>
      <point x="293.558" y="68.3857" type="qcurve" smooth="yes"/>
      <point x="382.515" y="68.3857"/>
      <point x="431.441" y="145.667" type="qcurve" smooth="yes"/>
      <point x="483.703" y="229.064"/>
      <point x="483.703" y="363.056" type="qcurve" smooth="yes"/>
      <point x="483.703" y="370.284"/>
      <point x="482.592" y="383.627" type="qcurve"/>
      <point x="452.013" y="333.588"/>
      <point x="347.488" y="276.879"/>
      <point x="287.998" y="276.879" type="qcurve" smooth="yes"/>
      <point x="179.026" y="276.879"/>
      <point x="111.753" y="356.384" type="qcurve" smooth="yes"/>
      <point x="47.8144" y="431.441"/>
      <point x="47.8144" y="543.193" type="qcurve" smooth="yes"/>
      <point x="47.8144" y="661.616"/>
      <point x="116.2" y="737.788" type="qcurve" smooth="yes"/>
      <point x="186.81" y="818.961"/>
      <point x="304.122" y="818.961" type="qcurve" smooth="yes"/>
      <point x="385.851" y="818.961"/>
      <point x="515.951" y="730.003"/>
      <point x="548.753" y="653.831" type="qcurve" smooth="yes"/>
      <point x="583.224" y="573.773"/>
    </contour>
    <contour>
      <point x="472.584" y="547.642" type="qcurve" smooth="yes"/>
      <point x="472.584" y="623.811"/>
      <point x="432.553" y="677.741" type="qcurve" smooth="yes"/>
      <point x="389.187" y="735.565"/>
      <point x="315.241" y="735.565" type="qcurve" smooth="yes"/>
      <point x="240.184" y="735.565"/>
      <point x="193.482" y="673.849" type="qcurve" smooth="yes"/>
      <point x="150.115" y="617.139"/>
      <point x="150.115" y="539.857" type="qcurve" smooth="yes"/>
      <point x="150.115" y="465.912"/>
      <point x="193.482" y="416.986" type="qcurve" smooth="yes"/>
      <point x="240.184" y="364.167"/>
      <point x="313.017" y="364.167" type="qcurve" smooth="yes"/>
      <point x="389.187" y="364.167"/>
      <point x="432.553" y="419.21" type="qcurve" smooth="yes"/>
      <point x="472.584" y="469.248"/>
    </contour>
  </outline>
</glyph>
<glyph name="colon" format="2">
  <advance width="316"/>
  <unicode hex="003A"/>
  <outline>
    <contour>
      <point x="216.277" y="475.92" type="line"/>
      <point x="102.301" y="475.92" type="line"/>
      <point x="102.301" y="591.008" type="line"/>
      <point x="216.277" y="591.008" type="line"/>
    </contour>
    <contour>
      <point x="216.277" y="0" type="line"/>
      <point x="102.301" y="0" type="line"/>
      <point x="102.301" y="113.976" type="line"/>
      <point x="216.277" y="113.976" type="line"/>
    </contour>
  </outline>
</glyph>
<glyph name="semicolon" format="2">
  <advance width="316"/>
  <unicode hex="003B"/>
  <outline>
    <contour>
      <point x="215.165" y="475.92" type="line"/>
      <point x="101.189" y="475.92" type="line"/>
      <point x="101.189" y="591.008" type="line"/>
      <point x="215.165" y="591.008" type="line"/>
    </contour>
    <contour>
      <point x="215.165" y="0" type="line" smooth="yes"/>
      <point x="215.165" y="-120.648"/>
      <point x="121.76" y="-161.79" type="qcurve"/>
      <point x="94.5171" y="-118.424" type="line"/>
      <point x="155.119" y="-92.2929"/>
      <point x="158.455" y="0" type="qcurve"/>
      <point x="101.189" y="0" type="line"/>
      <point x="101.189" y="113.976" type="line"/>
      <point x="215.165" y="113.976" type="line"/>
    </contour>
  </outline>
</glyph>
<glyph name="less" format="2">
  <advance width="666"/>
  <unicode hex="003C"/>
  <outline>
    <contour>
      <point x="602.128" y="125.096" type="line"/>
      <point x="62.8258" y="356.384" type="line"/>
      <point x="62.8258" y="449.789" type="line"/>
      <point x="602.128" y="677.741" type="line"/>
      <point x="602.128" y="578.22" type="line"/>
      <point x="174.022" y="403.087" type="line"/>
      <point x="602.128" y="225.729" type="line"/>
    </contour>
  </outline>
</glyph>
<glyph name="equal" format="2">
  <advance width="666"/>
  <unicode hex="003D"/>
  <outline>
    <contour>
      <point x="601.016" y="479.256" type="line"/>
      <point x="63.9381" y="479.256" type="line"/>
      <point x="63.9381" y="572.66" type="line"/>
      <point x="601.016" y="572.66" type="line"/>
    </contour>
    <contour>
      <point x="601.016" y="232.4" type="line"/>
      <point x="63.9381" y="232.4" type="line"/>
      <point x="63.9381" y="325.805" type="line"/>
      <point x="601.016" y="325.805" type="line"/>
    </contour>
  </outline>
</glyph>
<glyph name="greater" format="2">
  <advance width="666"/>
  <unicode hex="003E"/>
  <outline>
    <contour>
      <point x="602.128" y="356.384" type="line"/>
      <point x="62.8258" y="125.096" type="line"/>
      <point x="62.8258" y="225.729" type="line"/>
      <point x="489.82" y="403.087" type="line"/>
      <point x="62.8258" y="578.22" type="line"/>
      <point x="62.8258" y="677.741" type="line"/>
      <point x="602.128" y="449.789" type="line"/>
    </contour>
  </outline>
</glyph>
<glyph name="question" format="2">
  <advance width="633"/>
  <unicode hex="003F"/>
  <outline>
    <contour>
      <point x="575.996" y="607.131" type="qcurve" smooth="yes"/>
      <point x="575.996" y="544.306"/>
      <point x="538.746" y="489.82" type="qcurve" smooth="yes"/>
      <point x="513.727" y="452.013"/>
      <point x="453.124" y="398.638" type="qcurve" smooth="yes"/>
      <point x="413.755" y="364.57"/>
      <point x="400.862" y="349.712" type="qcurve" smooth="yes"/>
      <point x="375.169" y="320.136"/>
      <point x="366.391" y="286.886" type="qcurve" smooth="yes"/>
      <point x="359.507" y="260.81"/>
      <point x="358.608" y="200.153" type="qcurve"/>
      <point x="261.868" y="200.153" type="line"/>
      <point x="261.868" y="220.725"/>
      <point x="261.868" y="231.288" type="qcurve" smooth="yes"/>
      <point x="261.29" y="330.735"/>
      <point x="317.465" y="397.527" type="qcurve" smooth="yes"/>
      <point x="331.909" y="414.7"/>
      <point x="391.967" y="468.136" type="qcurve" smooth="yes"/>
      <point x="442.005" y="512.614"/>
      <point x="473.696" y="568.213"/>
      <point x="473.696" y="599.904" type="qcurve" smooth="yes"/>
      <point x="473.696" y="662.731"/>
      <point x="379.179" y="746.682"/>
      <point x="315.241" y="746.682" type="qcurve" smooth="yes"/>
      <point x="179.026" y="746.682"/>
      <point x="152.339" y="582.113" type="qcurve"/>
      <point x="50.0384" y="593.232" type="line"/>
      <point x="63.9382" y="707.207"/>
      <point x="200.153" y="828.97"/>
      <point x="314.13" y="828.97" type="qcurve" smooth="yes"/>
      <point x="421.434" y="828.97"/>
      <point x="495.38" y="772.255" type="qcurve" smooth="yes"/>
      <point x="575.996" y="710.546"/>
    </contour>
    <contour>
      <point x="370.284" y="0" type="line"/>
      <point x="256.308" y="0" type="line"/>
      <point x="256.308" y="113.976" type="line"/>
      <point x="370.284" y="113.976" type="line"/>
    </contour>
  </outline>
</glyph>
<glyph name="at" format="2">
  <advance width="1156"/>
  <unicode hex="0040"/>
  <outline>
    <contour>
      <point x="1114.74" y="10.0076" type="line"/>
      <point x="1080.83" y="-58.934"/>
      <point x="1002.99" y="-119.536" type="qcurve" smooth="yes"/>
      <point x="934.601" y="-174.022"/>
      <point x="853.989" y="-204.045" type="qcurve" smooth="yes"/>
      <point x="758.36" y="-239.072"/>
      <point x="623.811" y="-239.072" type="qcurve" smooth="yes"/>
      <point x="365.28" y="-239.072"/>
      <point x="218.501" y="-112.864" type="qcurve" smooth="yes"/>
      <point x="61.7139" y="23.9072"/>
      <point x="61.7139" y="260.755" type="qcurve" smooth="yes"/>
      <point x="61.7139" y="396.415"/>
      <point x="117.312" y="519.287" type="qcurve" smooth="yes"/>
      <point x="257.419" y="830.078"/>
      <point x="612.691" y="830.078" type="qcurve" smooth="yes"/>
      <point x="749.46" y="830.078"/>
      <point x="855.097" y="776.708" type="qcurve" smooth="yes"/>
      <point x="970.19" y="718.325"/>
      <point x="1034.12" y="606.02" type="qcurve" smooth="yes"/>
      <point x="1087.5" y="510.391"/>
      <point x="1087.5" y="396.415" type="qcurve" smooth="yes"/>
      <point x="1087.5" y="235.736"/>
      <point x="973.522" y="110.64" type="qcurve" smooth="yes"/>
      <point x="872.337" y="-2.22392"/>
      <point x="752.798" y="-2.22392" type="qcurve" smooth="yes"/>
      <point x="679.965" y="-2.22392"/>
      <point x="656.061" y="43.3666" type="qcurve" smooth="yes"/>
      <point x="648.83" y="56.7101"/>
      <point x="645.491" y="91.1812" type="qcurve"/>
      <point x="565.989" y="-1.11195"/>
      <point x="474.808" y="-1.11195" type="qcurve" smooth="yes"/>
      <point x="359.72" y="-1.11195"/>
      <point x="303.01" y="116.2" type="qcurve" smooth="yes"/>
      <point x="273.543" y="176.246"/>
      <point x="273.543" y="247.968" type="qcurve" smooth="yes"/>
      <point x="273.543" y="334.701"/>
      <point x="316.353" y="421.434" type="qcurve" smooth="yes"/>
      <point x="361.944" y="512.614"/>
      <point x="498.715" y="602.128"/>
      <point x="562.653" y="602.128" type="qcurve" smooth="yes"/>
      <point x="667.178" y="602.128"/>
      <point x="730.003" y="499.827" type="qcurve"/>
      <point x="749.46" y="586.56" type="line"/>
      <point x="848.427" y="586.56" type="line"/>
      <point x="768.369" y="214.052" type="line" smooth="yes"/>
      <point x="751.69" y="135.659"/>
      <point x="751.69" y="127.319" type="qcurve" smooth="yes"/>
      <point x="751.69" y="111.752"/>
      <point x="775.594" y="91.1812"/>
      <point x="790.049" y="91.1812" type="qcurve" smooth="yes"/>
      <point x="820.07" y="91.1812"/>
      <point x="867.884" y="123.984" type="qcurve" smooth="yes"/>
      <point x="931.269" y="169.575"/>
      <point x="1005.21" y="318.577"/>
      <point x="1005.21" y="398.638" type="qcurve" smooth="yes"/>
      <point x="1005.21" y="496.491"/>
      <point x="905.135" y="654.946"/>
      <point x="816.183" y="700.537" type="qcurve" smooth="yes"/>
      <point x="721.663" y="749.46"/>
      <point x="608.243" y="749.46" type="qcurve" smooth="yes"/>
      <point x="477.032" y="749.46"/>
      <point x="371.395" y="688.86" type="qcurve" smooth="yes"/>
      <point x="261.867" y="627.148"/>
      <point x="143.443" y="399.752"/>
      <point x="143.443" y="269.652" type="qcurve" smooth="yes"/>
      <point x="143.443" y="137.884"/>
      <point x="199.041" y="42.2558" type="qcurve" smooth="yes"/>
      <point x="258.531" y="-61.7127"/>
      <point x="374.731" y="-110.639" type="qcurve" smooth="yes"/>
      <point x="485.927" y="-157.342"/>
      <point x="622.699" y="-157.342" type="qcurve" smooth="yes"/>
      <point x="742.235" y="-157.342"/>
      <point x="840.087" y="-119.535" type="qcurve" smooth="yes"/>
      <point x="952.95" y="-76.168"/>
      <point x="1014.67" y="10.0089" type="qcurve"/>
    </contour>
    <contour>
      <point x="697.758" y="425.881"/>
      <point x="667.178" y="470.36" type="qcurve" smooth="yes"/>
      <point x="632.15" y="520.398"/>
      <point x="569.325" y="520.398" type="qcurve" smooth="yes"/>
      <point x="497.603" y="520.398"/>
      <point x="442.005" y="444.229" type="qcurve" smooth="yes"/>
      <point x="376.955" y="355.272"/>
      <point x="376.955" y="241.296" type="qcurve" smooth="yes"/>
      <point x="376.955" y="180.138"/>
      <point x="404.198" y="134.547" type="qcurve" smooth="yes"/>
      <point x="437" y="80.6174"/>
      <point x="495.379" y="80.6174" type="qcurve" smooth="yes"/>
      <point x="563.764" y="80.6174"/>
      <point x="627.146" y="155.119" type="qcurve" smooth="yes"/>
      <point x="697.757" y="237.96"/>
      <point x="697.758" y="360.832" type="qcurve" smooth="yes"/>
    </contour>
  </outline>
</glyph>
<glyph name="A" format="2">
  <advance width="760"/>
  <unicode hex="0041"/>
  <outline>
    <contour>
      <point x="761" y="0" type="line"/>
      <point x="639" y="0" type="line"/>
      <point x="543" y="247" type="line"/>
      <point x="203" y="247" type="line"/>
      <point x="113" y="0" type="line"/>
      <point x="-1" y="0" type="line"/>
      <point x="311" y="815" type="line"/>
      <point x="427" y="815" type="line"/>
    </contour>
    <contour>
      <point x="510" y="334" type="line"/>
      <point x="367" y="730" type="line"/>
      <point x="234" y="334" type="line"/>
    </contour>
  </outline>
</glyph>
<glyph name="B" format="2">
  <advance width="760"/>
  <unicode hex="0042"/>
  <outline>
    <contour>
      <point x="699" y="237" type="qcurve" smooth="yes"/>
      <point x="699" y="117"/>
      <point x="615" y="54" type="qcurve" smooth="yes"/>
      <point x="543" y="0"/>
      <point x="394" y="0" type="qcurve" smooth="yes"/>
      <point x="83" y="0" type="line"/>
      <point x="83" y="815" type="line"/>
      <point x="389" y="815" type="line" smooth="yes"/>
      <point x="565" y="815"/>
      <point x="627" y="714" type="qcurve" smooth="yes"/>
      <point x="659" y="663"/>
      <point x="659" y="607" type="qcurve" smooth="yes"/>
      <point x="659" y="490"/>
      <point x="545" y="433" type="qcurve"/>
      <point x="617" y="412"/>
      <point x="699" y="310"/>
    </contour>
    <contour>
      <point x="553" y="593" type="qcurve" smooth="yes"/>
      <point x="553" y="685"/>
      <point x="478" y="707" type="qcurve" smooth="yes"/>
      <point x="442" y="718"/>
      <point x="354" y="718" type="qcurve" smooth="yes"/>
      <point x="191" y="718" type="line"/>
      <point x="191" y="472" type="line"/>
      <point x="368" y="472" type="line" smooth="yes"/>
      <point x="438.198" y="471.302"/>
      <point x="471" y="481" type="qcurve" smooth="yes"/>
      <point x="553.209" y="505.305"/>
    </contour>
    <contour>
      <point x="588" y="237" type="qcurve" smooth="yes"/>
      <point x="588" y="334"/>
      <point x="499" y="363" type="qcurve" smooth="yes"/>
      <point x="457" y="377"/>
      <point x="379" y="377" type="qcurve" smooth="yes"/>
      <point x="191" y="377" type="line"/>
      <point x="191" y="96" type="line"/>
      <point x="394" y="96" type="line" smooth="yes"/>
      <point x="447" y="96"/>
      <point x="468" y="100" type="qcurve" smooth="yes"/>
      <point x="542" y="114"/>
      <point x="588" y="197"/>
    </contour>
  </outline>
</glyph>
<glyph name="C" format="2">
  <advance width="822"/>
  <unicode hex="0043"/>
  <outline>
    <contour>
      <point x="778" y="258" type="line"/>
      <point x="745" y="130"/>
      <point x="571" y="-14"/>
      <point x="440" y="-14" type="qcurve" smooth="yes"/>
      <point x="188" y="-14"/>
      <point x="100" y="195" type="qcurve" smooth="yes"/>
      <point x="57" y="297"/>
      <point x="57" y="413" type="qcurve" smooth="yes"/>
      <point x="57" y="678"/>
      <point x="244" y="780" type="qcurve" smooth="yes"/>
      <point x="334" y="829"/>
      <point x="442" y="829" type="qcurve" smooth="yes"/>
      <point x="562" y="829"/>
      <point x="730" y="706"/>
      <point x="763" y="592" type="qcurve"/>
      <point x="657" y="567" type="line"/>
      <point x="603" y="737"/>
      <point x="440" y="737" type="qcurve" smooth="yes"/>
      <point x="351.739" y="735.87"/>
      <point x="288" y="695" type="qcurve" smooth="yes"/>
      <point x="220.719" y="651.858"/>
      <point x="193" y="571" type="qcurve" smooth="yes"/>
      <point x="168" y="495"/>
      <point x="168" y="414" type="qcurve" smooth="yes"/>
      <point x="168" y="191"/>
      <point x="292" y="117" type="qcurve" smooth="yes"/>
      <point x="357" y="78"/>
      <point x="430" y="78" type="qcurve" smooth="yes"/>
      <point x="625" y="78"/>
      <point x="670" y="286" type="qcurve"/>
    </contour>
  </outline>
</glyph>
<glyph name="D" format="2">
  <advance width="822"/>
  <unicode hex="0044"/>
  <outline>
    <contour>
      <point x="762" y="412" type="qcurve" smooth="yes"/>
      <point x="762" y="236"/>
      <point x="685" y="128" type="qcurve" smooth="yes"/>
      <point x="620" y="40"/>
      <point x="513" y="14" type="qcurve" smooth="yes"/>
      <point x="455" y="0"/>
      <point x="382" y="0" type="qcurve" smooth="yes"/>
      <point x="88" y="0" type="line"/>
      <point x="88" y="815" type="line"/>
      <point x="369" y="815" type="line" smooth="yes"/>
      <point x="464" y="815"/>
      <point x="514" y="804" type="qcurve" smooth="yes"/>
      <point x="668" y="767"/>
      <point x="730" y="606" type="qcurve" smooth="yes"/>
      <point x="762" y="522"/>
    </contour>
    <contour>
      <point x="650" y="413" type="qcurve"/>
      <point x="650.347" y="647.9"/>
      <point x="506" y="703" type="qcurve" smooth="yes"/>
      <point x="464.338" y="718"/>
      <point x="367" y="718" type="qcurve" smooth="yes"/>
      <point x="196" y="718" type="line"/>
      <point x="196" y="96" type="line"/>
      <point x="370" y="96" type="line" smooth="yes"/>
      <point x="511.645" y="96"/>
      <point x="569" y="154" type="qcurve" smooth="yes"/>
      <point x="650" y="234"/>
    </contour>
  </outline>
</glyph>
<glyph name="E" format="2">
  <advance width="760"/>
  <unicode hex="0045"/>
  <outline>
    <contour>
      <point x="697.759" y="0" type="line"/>
      <point x="90.0688" y="0" type="line"/>
      <point x="90.0688" y="815.068" type="line"/>
      <point x="679.965" y="815.068" type="line"/>
      <point x="679.965" y="718.325" type="line"/>
      <point x="197.929" y="718.325" type="line"/>
      <point x="197.929" y="469.248" type="line"/>
      <point x="648.83" y="469.248" type="line"/>
      <point x="648.83" y="373.619" type="line"/>
      <point x="197.929" y="373.619" type="line"/>
      <point x="197.929" y="95.6288" type="line"/>
      <point x="697.759" y="95.6288" type="line"/>
    </contour>
  </outline>
</glyph>
<glyph name="F" format="2">
  <advance width="695"/>
  <unicode hex="0046"/>
  <outline>
    <contour>
      <point x="643.268" y="718.325" type="line"/>
      <point x="201.265" y="718.325" type="line"/>
      <point x="201.265" y="467.024" type="line"/>
      <point x="584.336" y="467.024" type="line"/>
      <point x="584.336" y="370.284" type="line"/>
      <point x="201.265" y="370.284" type="line"/>
      <point x="201.265" y="0" type="line"/>
      <point x="93.4047" y="0" type="line"/>
      <point x="93.4047" y="815.068" type="line"/>
      <point x="643.268" y="815.068" type="line"/>
    </contour>
  </outline>
</glyph>
<glyph name="G" format="2">
  <advance width="886"/>
  <unicode hex="0047"/>
  <outline>
    <contour>
      <point x="813.953" y="113.976" type="line"/>
      <point x="654.946" y="-13.8995"/>
      <point x="477.032" y="-13.8995" type="qcurve" smooth="yes"/>
      <point x="358.608" y="-13.8995"/>
      <point x="264.091" y="33.9148" type="qcurve" smooth="yes"/>
      <point x="161.79" y="86.733"/>
      <point x="110.64" y="186.809" type="qcurve" smooth="yes"/>
      <point x="60.602" y="283.551"/>
      <point x="60.602" y="403.087" type="qcurve" smooth="yes"/>
      <point x="60.602" y="521.51"/>
      <point x="107.304" y="618.251" type="qcurve" smooth="yes"/>
      <point x="158.455" y="727.779"/>
      <point x="347.488" y="828.97"/>
      <point x="469.248" y="828.97" type="qcurve" smooth="yes"/>
      <point x="654.946" y="828.97"/>
      <point x="740.012" y="720.554" type="qcurve" smooth="yes"/>
      <point x="781.155" y="669.402"/>
      <point x="802.836" y="587.672" type="qcurve"/>
      <point x="704.984" y="560.429" type="line"/>
      <point x="670.51" y="677.741"/>
      <point x="582.113" y="714.993" type="qcurve" smooth="yes"/>
      <point x="530.406" y="736.673"/>
      <point x="469.248" y="736.673" type="qcurve" smooth="yes"/>
      <point x="328.029" y="736.673"/>
      <point x="254.083" y="654.946" type="qcurve" smooth="yes"/>
      <point x="171.798" y="563.765"/>
      <point x="171.798" y="409.758" type="qcurve" smooth="yes"/>
      <point x="171.798" y="191.258"/>
      <point x="318.577" y="118.424" type="qcurve" smooth="yes"/>
      <point x="390.299" y="83.3971"/>
      <point x="471.472" y="83.3971" type="qcurve" smooth="yes"/>
      <point x="530.406" y="83.3971"/>
      <point x="666.063" y="129.544"/>
      <point x="709.431" y="167.35" type="qcurve"/>
      <point x="709.431" y="319.689" type="line"/>
      <point x="469.248" y="319.689" type="line"/>
      <point x="469.248" y="415.874" type="line"/>
      <point x="813.953" y="415.874" type="line"/>
    </contour>
  </outline>
</glyph>
<glyph name="H" format="2">
  <advance width="822"/>
  <unicode hex="0048"/>
  <outline>
    <contour>
      <point x="731" y="0" type="line"/>
      <point x="623" y="0" type="line"/>
      <point x="623" y="384" type="line"/>
      <point x="199" y="384" type="line"/>
      <point x="199" y="0" type="line"/>
      <point x="91" y="0" type="line"/>
      <point x="91" y="815" type="line"/>
      <point x="199" y="815" type="line"/>
      <point x="199" y="481" type="line"/>
      <point x="623" y="481" type="line"/>
      <point x="623" y="815" type="line"/>
      <point x="731" y="815" type="line"/>
    </contour>
  </outline>
</glyph>
<glyph name="I" format="2">
  <advance width="290"/>
  <unicode hex="0049"/>
  <outline>
    <contour>
      <point x="199" y="0" type="line"/>
      <point x="90" y="0" type="line"/>
      <point x="90" y="815" type="line"/>
      <point x="199" y="815" type="line"/>
    </contour>
  </outline>
</glyph>
<glyph name="J" format="2">
  <advance width="630"/>
  <unicode hex="004A"/>
  <outline>
    <contour>
      <point x="538.418" y="259.643" type="line" smooth="yes"/>
      <point x="538.418" y="71.7216"/>
      <point x="436.117" y="16.1235" type="qcurve" smooth="yes"/>
      <point x="382.743" y="-13.8995"/>
      <point x="309.909" y="-13.8995" type="qcurve" smooth="yes"/>
      <point x="86.405" y="-13.8995"/>
      <point x="90.8529" y="231.288" type="qcurve"/>
      <point x="187.594" y="244.632" type="line"/>
      <point x="192.108" y="168.828"/>
      <point x="213.169" y="132.323" type="qcurve" smooth="yes"/>
      <point x="242.152" y="82.0862"/>
      <point x="309.909" y="81.7293" type="qcurve" smooth="yes"/>
      <point x="396.087" y="81.7293"/>
      <point x="419.994" y="151.227" type="qcurve" smooth="yes"/>
      <point x="431.669" y="183.474"/>
      <point x="431.669" y="254.083" type="qcurve" smooth="yes"/>
      <point x="431.669" y="815.068" type="line"/>
      <point x="538.418" y="815.068" type="line"/>
    </contour>
  </outline>
</glyph>
<glyph name="K" format="2">
  <advance width="857"/>
  <unicode hex="004B"/>
  <outline>
    <contour>
      <point x="764.985" y="0" type="line"/>
      <point x="622.655" y="0" type="line"/>
      <point x="332.433" y="411.982" type="line"/>
      <point x="198.998" y="282.438" type="line"/>
      <point x="198.998" y="0" type="line"/>
      <point x="91.1371" y="0" type="line"/>
      <point x="91.1371" y="815.068" type="line"/>
      <point x="198.998" y="815.068" type="line"/>
      <point x="198.998" y="410.87" type="line"/>
      <point x="603.196" y="815.068" type="line"/>
      <point x="749.975" y="815.068" type="line"/>
      <point x="408.602" y="484.816" type="line"/>
    </contour>
  </outline>
</glyph>
<glyph name="L" format="2">
  <advance width="691"/>
  <unicode hex="004C"/>
  <outline>
    <contour>
      <point x="601" y="0" type="line"/>
      <point x="91" y="0" type="line"/>
      <point x="91" y="815" type="line"/>
      <point x="199" y="815" type="line"/>
      <point x="199" y="96" type="line"/>
      <point x="601" y="96" type="line"/>
    </contour>
  </outline>
</glyph>
<glyph name="M" format="2">
  <advance width="960"/>
  <unicode hex="004D"/>
  <outline>
    <contour>
      <point x="868.218" y="0" type="line"/>
      <point x="764.81" y="0" type="line"/>
      <point x="764.81" y="682.188" type="line"/>
      <point x="527.96" y="0" type="line"/>
      <point x="431.22" y="0" type="line"/>
      <point x="195.484" y="693.306" type="line"/>
      <point x="195.484" y="0" type="line"/>
      <point x="90.9589" y="0" type="line"/>
      <point x="90.9589" y="815.068" type="line"/>
      <point x="253.305" y="815.068" type="line"/>
      <point x="484.594" y="117.312" type="line"/>
      <point x="723.666" y="815.068" type="line"/>
      <point x="868.218" y="815.068" type="line"/>
    </contour>
  </outline>
</glyph>
<glyph name="N" format="2">
  <advance width="824"/>
  <unicode hex="004E"/>
  <outline>
    <contour>
      <point x="732.764" y="0" type="line"/>
      <point x="622.121" y="0" type="line"/>
      <point x="194.016" y="641.044" type="line"/>
      <point x="194.016" y="0" type="line"/>
      <point x="90.603" y="0" type="line"/>
      <point x="90.603" y="815.068" type="line"/>
      <point x="200.688" y="815.068" type="line"/>
      <point x="628.793" y="175.134" type="line"/>
      <point x="628.793" y="815.068" type="line"/>
      <point x="732.764" y="815.068" type="line"/>
    </contour>
  </outline>
</glyph>
<glyph name="O" format="2">
  <advance width="961"/>
  <unicode hex="004F"/>
  <outline>
    <contour>
      <point x="871" y="406" type="qcurve" smooth="yes"/>
      <point x="871" y="288"/>
      <point x="825" y="193" type="qcurve" smooth="yes"/>
      <point x="775" y="89"/>
      <point x="678" y="37" type="qcurve" smooth="yes"/>
      <point x="587" y="-14"/>
      <point x="481" y="-14" type="qcurve" smooth="yes"/>
      <point x="369" y="-14"/>
      <point x="186" y="94"/>
      <point x="138" y="193" type="qcurve" smooth="yes"/>
      <point x="91" y="289"/>
      <point x="91" y="397" type="qcurve" smooth="yes"/>
      <point x="91" y="586"/>
      <point x="190" y="704" type="qcurve" smooth="yes"/>
      <point x="296" y="830"/>
      <point x="481" y="830" type="qcurve" smooth="yes"/>
      <point x="593" y="830"/>
      <point x="775" y="722"/>
      <point x="871" y="528"/>
    </contour>
    <contour>
      <point x="759" y="406" type="qcurve" smooth="yes"/>
      <point x="759" y="613"/>
      <point x="627" y="695" type="qcurve" smooth="yes"/>
      <point x="562" y="737"/>
      <point x="483" y="737" type="qcurve" smooth="yes"/>
      <point x="338" y="737"/>
      <point x="266" y="634" type="qcurve" smooth="yes"/>
      <point x="202" y="545"/>
      <point x="202" y="396" type="qcurve" smooth="yes"/>
      <point x="202" y="261"/>
      <point x="273" y="173" type="qcurve" smooth="yes"/>
      <point x="349" y="78"/>
      <point x="480" y="78" type="qcurve" smooth="yes"/>
      <point x="617" y="78"/>
      <point x="692" y="176" type="qcurve" smooth="yes"/>
      <point x="759" y="266"/>
    </contour>
  </outline>
</glyph>
<glyph name="P" format="2">
  <advance width="804"/>
  <unicode hex="0050"/>
  <outline>
    <contour>
      <point x="713.126" y="579.332" type="qcurve" smooth="yes"/>
      <point x="713.126" y="331.365"/>
      <point x="406.778" y="331.365" type="qcurve" smooth="yes"/>
      <point x="198.285" y="331.365" type="line"/>
      <point x="198.285" y="0" type="line"/>
      <point x="90.4253" y="0" type="line"/>
      <point x="90.4253" y="815.068" type="line"/>
      <point x="397.882" y="815.068" type="line" smooth="yes"/>
      <point x="477.388" y="815.068"/>
      <point x="521.867" y="807.283" type="qcurve" smooth="yes"/>
      <point x="640.292" y="786.711"/>
      <point x="688.107" y="689.974" type="qcurve" smooth="yes"/>
      <point x="713.126" y="639.936"/>
    </contour>
    <contour>
      <point x="601.372" y="575.996" type="qcurve" smooth="yes"/>
      <point x="601.372" y="623.811"/>
      <point x="552.446" y="698.868"/>
      <point x="506.855" y="711.654" type="qcurve" smooth="yes"/>
      <point x="480.724" y="718.325"/>
      <point x="406.778" y="718.325" type="qcurve" smooth="yes"/>
      <point x="198.285" y="718.325" type="line"/>
      <point x="198.285" y="426.994" type="line"/>
      <point x="409.002" y="426.994" type="line" smooth="yes"/>
      <point x="601.372" y="426.994"/>
    </contour>
  </outline>
</glyph>
<glyph name="Q" format="2">
  <advance width="978"/>
  <unicode hex="0051"/>
  <outline>
    <contour>
      <point x="871.54" y="407.534" type="qcurve" smooth="yes"/>
      <point x="871.54" y="206.269"/>
      <point x="748.669" y="87.8447" type="qcurve"/>
      <point x="823.725" y="35.0268"/>
      <point x="886.55" y="11.1196" type="qcurve"/>
      <point x="854.3" y="-63.9381" type="line"/>
      <point x="767.011" y="-31.6909"/>
      <point x="680.282" y="36.6948" type="qcurve"/>
      <point x="589.1" y="-13.8995"/>
      <point x="479.571" y="-13.8995" type="qcurve" smooth="yes"/>
      <point x="369.487" y="-13.8995"/>
      <point x="189.349" y="92.293"/>
      <point x="91.4963" y="285.774"/>
      <point x="91.4963" y="407.534" type="qcurve" smooth="yes"/>
      <point x="91.4963" y="523.734"/>
      <point x="135.975" y="619.363" type="qcurve" smooth="yes"/>
      <point x="186.013" y="724.441"/>
      <point x="370.599" y="830.078"/>
      <point x="482.351" y="830.078" type="qcurve" smooth="yes"/>
      <point x="593.547" y="830.078"/>
      <point x="774.796" y="724.441"/>
      <point x="871.54" y="529.294"/>
    </contour>
    <contour>
      <point x="759.786" y="407.534" type="qcurve" smooth="yes"/>
      <point x="759.786" y="612.691"/>
      <point x="628.018" y="695.535" type="qcurve" smooth="yes"/>
      <point x="562.968" y="736.673"/>
      <point x="482.351" y="736.673" type="qcurve" smooth="yes"/>
      <point x="343.356" y="736.673"/>
      <point x="269.41" y="638.821" type="qcurve" smooth="yes"/>
      <point x="203.249" y="550.977"/>
      <point x="203.249" y="407.534" type="qcurve" smooth="yes"/>
      <point x="203.249" y="265.203"/>
      <point x="270.522" y="176.246" type="qcurve" smooth="yes"/>
      <point x="344.468" y="78.3933"/>
      <point x="482.351" y="78.3933" type="qcurve" smooth="yes"/>
      <point x="540.173" y="78.3933"/>
      <point x="591.323" y="100.076" type="qcurve"/>
      <point x="540.173" y="133.436"/>
      <point x="484.575" y="146.779" type="qcurve"/>
      <point x="510.706" y="225.729" type="line"/>
      <point x="604.111" y="199.041"/>
      <point x="664.157" y="146.779" type="qcurve"/>
      <point x="759.786" y="234.624"/>
    </contour>
  </outline>
</glyph>
<glyph name="R" format="2">
  <advance width="899"/>
  <unicode hex="0052"/>
  <outline>
    <contour>
      <point x="808.573" y="0" type="line"/>
      <point x="672.915" y="0" type="line"/>
      <point x="566.167" y="169.575" type="line" smooth="yes"/>
      <point x="529.472" y="226.84"/>
      <point x="505.565" y="258.531" type="qcurve" smooth="yes"/>
      <point x="461.907" y="317.004"/>
      <point x="432.731" y="335.813" type="qcurve" smooth="yes"/>
      <point x="407.296" y="352.119"/>
      <point x="383.805" y="357.496" type="qcurve" smooth="yes"/>
      <point x="366.454" y="361.468"/>
      <point x="323.759" y="361.944" type="qcurve" smooth="yes"/>
      <point x="198.108" y="361.944" type="line"/>
      <point x="198.108" y="0" type="line"/>
      <point x="91.3588" y="0" type="line"/>
      <point x="91.3588" y="815.068" type="line"/>
      <point x="452.191" y="815.068" type="line" smooth="yes"/>
      <point x="546.707" y="815.068"/>
      <point x="596.746" y="800.613" type="qcurve" smooth="yes"/>
      <point x="669.577" y="778.932"/>
      <point x="708.497" y="714.993" type="qcurve" smooth="yes"/>
      <point x="742.41" y="660.508"/>
      <point x="742.41" y="593.232" type="qcurve" smooth="yes"/>
      <point x="742.41" y="401.974"/>
      <point x="512.793" y="371.395" type="qcurve"/>
      <point x="555.603" y="349.712"/>
      <point x="577.286" y="330.253" type="qcurve" smooth="yes"/>
      <point x="626.213" y="285.774"/>
      <point x="667.353" y="221.837" type="qcurve" smooth="yes"/>
    </contour>
    <contour>
      <point x="631.217" y="593.232" type="qcurve" smooth="yes"/>
      <point x="631.217" y="725.556"/>
      <point x="456.639" y="725.556" type="qcurve" smooth="yes"/>
      <point x="198.108" y="725.556" type="line"/>
      <point x="198.108" y="455.349" type="line"/>
      <point x="430.507" y="455.349" type="line" smooth="yes"/>
      <point x="568.391" y="455.349"/>
      <point x="609.533" y="519.287" type="qcurve" smooth="yes"/>
      <point x="631.217" y="553.202"/>
    </contour>
  </outline>
</glyph>
<glyph name="S" format="2">
  <advance width="832"/>
  <unicode hex="0053"/>
  <outline>
    <contour>
      <point x="740.527" y="230.176" type="qcurve" smooth="yes"/>
      <point x="740.527" y="160.679"/>
      <point x="660.465" y="47.8144"/>
      <point x="595.415" y="18.3474" type="qcurve" smooth="yes"/>
      <point x="525.918" y="-13.8995"/>
      <point x="438.628" y="-13.8995" type="qcurve" smooth="yes"/>
      <point x="221.24" y="-13.8995"/>
      <point x="135.619" y="115.088" type="qcurve" smooth="yes"/>
      <point x="93.3642" y="180.138"/>
      <point x="91.1402" y="261.867" type="qcurve"/>
      <point x="192.329" y="270.763" type="line"/>
      <point x="207.34" y="151.227"/>
      <point x="308.529" y="107.304" type="qcurve" smooth="yes"/>
      <point x="364.683" y="83.3971"/>
      <point x="434.181" y="83.3971" type="qcurve" smooth="yes"/>
      <point x="563.724" y="83.3971"/>
      <point x="612.65" y="151.227" type="qcurve" smooth="yes"/>
      <point x="635.446" y="183.474"/>
      <point x="635.446" y="220.725" type="qcurve" smooth="yes"/>
      <point x="635.446" y="299.674"/>
      <point x="539.817" y="335.813" type="qcurve" smooth="yes"/>
      <point x="502.01" y="350.824"/>
      <point x="387.478" y="378.067" type="qcurve" smooth="yes"/>
      <point x="287.958" y="400.862"/>
      <point x="237.919" y="426.994" type="qcurve" smooth="yes"/>
      <point x="121.719" y="488.707"/>
      <point x="121.719" y="604.352" type="qcurve" smooth="yes"/>
      <point x="121.719" y="670.51"/>
      <point x="197.333" y="775.594"/>
      <point x="259.602" y="801.727" type="qcurve" smooth="yes"/>
      <point x="326.876" y="828.97"/>
      <point x="409.161" y="828.97" type="qcurve" smooth="yes"/>
      <point x="600.419" y="828.97"/>
      <point x="675.479" y="713.878" type="qcurve" smooth="yes"/>
      <point x="712.73" y="657.169"/>
      <point x="714.953" y="585.448" type="qcurve"/>
      <point x="611.539" y="577.109" type="line"/>
      <point x="595.415" y="734.45"/>
      <point x="413.609" y="734.45" type="qcurve" smooth="yes"/>
      <point x="339.664" y="734.45"/>
      <point x="290.737" y="709.431" type="qcurve"/>
      <point x="226.799" y="678.85"/>
      <point x="226.799" y="611.579" type="qcurve" smooth="yes"/>
      <point x="226.799" y="548.753"/>
      <point x="296.297" y="515.95" type="qcurve" smooth="yes"/>
      <point x="325.92" y="502.757"/>
      <point x="420.281" y="481.48" type="qcurve" smooth="yes"/>
      <point x="552.765" y="451.606"/>
      <point x="601.531" y="429.217" type="qcurve" smooth="yes"/>
      <point x="740.527" y="365.28"/>
    </contour>
  </outline>
</glyph>
<glyph name="T" format="2">
  <advance width="828"/>
  <unicode hex="0054"/>
  <outline>
    <contour>
      <point x="737.24" y="718.325" type="line"/>
      <point x="467.587" y="718.325" type="line"/>
      <point x="467.587" y="0" type="line"/>
      <point x="359.17" y="0" type="line"/>
      <point x="359.17" y="718.325" type="line"/>
      <point x="90.6311" y="718.325" type="line"/>
      <point x="90.6311" y="815.068" type="line"/>
      <point x="737.24" y="815.068" type="line"/>
    </contour>
  </outline>
</glyph>
<glyph name="U" format="2">
  <advance width="823"/>
  <unicode hex="0055"/>
  <outline>
    <contour>
      <point x="732" y="344" type="line" smooth="yes"/>
      <point x="732" y="232"/>
      <point x="711" y="167" type="qcurve" smooth="yes"/>
      <point x="682" y="80"/>
      <point x="603" y="32" type="qcurve" smooth="yes"/>
      <point x="531" y="-14"/>
      <point x="413" y="-14" type="qcurve" smooth="yes"/>
      <point x="186" y="-14"/>
      <point x="122" y="140" type="qcurve" smooth="yes"/>
      <point x="91" y="214"/>
      <point x="91" y="344" type="qcurve" smooth="yes"/>
      <point x="91" y="815" type="line"/>
      <point x="198" y="815" type="line"/>
      <point x="198" y="345" type="line" smooth="yes"/>
      <point x="198.917" y="257.261"/>
      <point x="211" y="213" type="qcurve" smooth="yes"/>
      <point x="230.213" y="142.753"/>
      <point x="286" y="111" type="qcurve" smooth="yes"/>
      <point x="334.295" y="83.5114"/>
      <point x="404" y="83" type="qcurve" smooth="yes"/>
      <point x="534" y="83"/>
      <point x="583" y="150" type="qcurve" smooth="yes"/>
      <point x="624" y="206"/>
      <point x="624" y="345" type="qcurve" smooth="yes"/>
      <point x="624" y="815" type="line"/>
      <point x="732" y="815" type="line"/>
    </contour>
  </outline>
</glyph>
<glyph name="V" format="2">
  <advance width="928"/>
  <unicode hex="0056"/>
  <outline>
    <contour>
      <point x="837.005" y="815.068" type="line"/>
      <point x="517.871" y="0" type="line"/>
      <point x="407.787" y="0" type="line"/>
      <point x="90.8778" y="815.068" type="line"/>
      <point x="208.19" y="815.068" type="line"/>
      <point x="463.385" y="90.0688" type="line"/>
      <point x="727.474" y="815.068" type="line"/>
    </contour>
  </outline>
</glyph>
<glyph name="W" format="2">
  <advance width="1231"/>
  <unicode hex="0057"/>
  <outline>
    <contour>
      <point x="1139.88" y="815.068" type="line"/>
      <point x="915.264" y="0" type="line"/>
      <point x="811.85" y="0" type="line"/>
      <point x="615.034" y="716.101" type="line"/>
      <point x="417.661" y="0" type="line"/>
      <point x="307.576" y="0" type="line"/>
      <point x="91.2996" y="815.068" type="line"/>
      <point x="201.384" y="815.068" type="line"/>
      <point x="360.951" y="113.976" type="line"/>
      <point x="552.208" y="815.068" type="line"/>
      <point x="681.752" y="815.068" type="line"/>
      <point x="861.888" y="113.976" type="line"/>
      <point x="1030.35" y="815.068" type="line"/>
    </contour>
  </outline>
</glyph>
<glyph name="X" format="2">
  <advance width="930"/>
  <unicode hex="0058"/>
  <outline>
    <contour>
      <point x="839.228" y="0" type="line"/>
      <point x="704.681" y="0" type="line"/>
      <point x="464.497" y="345.265" type="line"/>
      <point x="220.977" y="0" type="line"/>
      <point x="90.8779" y="0" type="line"/>
      <point x="406.119" y="424.77" type="line"/>
      <point x="128.685" y="815.068" type="line"/>
      <point x="257.116" y="815.068" type="line"/>
      <point x="470.057" y="505.387" type="line"/>
      <point x="699.121" y="815.068" type="line"/>
      <point x="816.433" y="815.068" type="line"/>
      <point x="530.659" y="430.33" type="line"/>
    </contour>
  </outline>
</glyph>
<glyph name="Y" format="2">
  <advance width="929"/>
  <unicode hex="0059"/>
  <outline>
    <contour>
      <point x="838.295" y="815.068" type="line"/>
      <point x="513.601" y="345.264" type="line"/>
      <point x="513.601" y="0" type="line"/>
      <point x="405.185" y="0" type="line"/>
      <point x="405.185" y="345.265" type="line"/>
      <point x="91.0559" y="815.068" type="line"/>
      <point x="222.267" y="815.068" type="line"/>
      <point x="465.787" y="431.441" type="line"/>
      <point x="712.643" y="815.068" type="line"/>
    </contour>
  </outline>
</glyph>
<glyph name="Z" format="2">
  <advance width="827"/>
  <unicode hex="005A"/>
  <outline>
    <contour>
      <point x="735.548" y="0" type="line"/>
      <point x="91.1652" y="0" type="line"/>
      <point x="91.1652" y="100.076" type="line"/>
      <point x="593.216" y="718.325" type="line"/>
      <point x="138.98" y="718.325" type="line"/>
      <point x="138.98" y="815.068" type="line"/>
      <point x="722.201" y="815.068" type="line"/>
      <point x="722.201" y="718.325" type="line"/>
      <point x="215.149" y="95.6287" type="line"/>
      <point x="735.548" y="95.6287" type="line"/>
    </contour>
  </outline>
</glyph>
<glyph name="bracketleft" format="2">
  <advance width="404"/>
  <unicode hex="005B"/>
  <outline>
    <contour>
      <point x="312.752" y="-226.84" type="line"/>
      <point x="91.4716" y="-226.84" type="line"/>
      <point x="91.4716" y="815.068" type="line"/>
      <point x="312.752" y="815.068" type="line"/>
      <point x="312.752" y="732.226" type="line"/>
      <point x="191.548" y="732.226" type="line"/>
      <point x="191.548" y="-143.443" type="line"/>
      <point x="312.752" y="-143.443" type="line"/>
    </contour>
  </outline>
</glyph>
<glyph name="backslash" format="2">
  <advance width="498"/>
  <unicode hex="005C"/>
  <outline>
    <contour>
      <point x="406.654" y="-13.8996" type="line"/>
      <point x="327.148" y="-13.8996" type="line"/>
      <point x="90.3" y="828.97" type="line"/>
      <point x="170.917" y="828.97" type="line"/>
    </contour>
  </outline>
</glyph>
<glyph name="bracketright" format="2">
  <advance width="402"/>
  <unicode hex="005D"/>
  <outline>
    <contour>
      <point x="312.068" y="-226.84" type="line"/>
      <point x="91.3433" y="-226.84" type="line"/>
      <point x="91.3433" y="-143.443" type="line"/>
      <point x="211.991" y="-143.443" type="line"/>
      <point x="211.991" y="732.226" type="line"/>
      <point x="91.3433" y="732.226" type="line"/>
      <point x="91.3433" y="815.068" type="line"/>
      <point x="312.068" y="815.068" type="line"/>
    </contour>
  </outline>
</glyph>
<glyph name="asciicircum" format="2">
  <advance width="657"/>
  <unicode hex="005E"/>
  <outline>
    <contour>
      <point x="566.195" y="383.627" type="line"/>
      <point x="465.007" y="383.627" type="line"/>
      <point x="328.235" y="714.993" type="line"/>
      <point x="195.356" y="383.627" type="line"/>
      <point x="91.387" y="383.627" type="line"/>
      <point x="288.76" y="828.97" type="line"/>
      <point x="369.378" y="828.97" type="line"/>
    </contour>
  </outline>
</glyph>
<glyph name="underscore" format="2">
  <advance width="845"/>
  <unicode hex="005F"/>
  <outline>
    <contour>
      <point x="753.851" y="-226.84" type="line"/>
      <point x="91.1245" y="-226.84" type="line"/>
      <point x="91.1245" y="-153.451" type="line"/>
      <point x="753.851" y="-153.451" type="line"/>
    </contour>
  </outline>
</glyph>
<glyph name="grave" format="2">
  <advance width="392"/>
  <unicode hex="0060"/>
  <outline>
    <contour>
      <point x="301.101" y="663.84" type="line"/>
      <point x="219.928" y="663.84" type="line"/>
      <point x="91.4963" y="820.07" type="line"/>
      <point x="226.044" y="820.07" type="line"/>
    </contour>
  </outline>
</glyph>
<glyph name="a" format="2">
  <advance width="726"/>
  <unicode hex="0061"/>
  <outline>
    <contour>
      <point x="636" y="0" type="qcurve"/>
      <point x="531" y="0" type="line"/>
      <point x="515" y="31"/>
      <point x="510" y="73" type="qcurve"/>
      <point x="409" y="-14"/>
      <point x="293" y="-14" type="qcurve" smooth="yes"/>
      <point x="207.465" y="-13.3796"/>
      <point x="153" y="27" type="qcurve" smooth="yes"/>
      <point x="91.4588" y="72.6254"/>
      <point x="91" y="156" type="qcurve" smooth="yes"/>
      <point x="91" y="244"/>
      <point x="163" y="292" type="qcurve" smooth="yes"/>
      <point x="194.629" y="315.314"/>
      <point x="235" y="326" type="qcurve" smooth="yes"/>
      <point x="262.682" y="333.328"/>
      <point x="324" y="340" type="qcurve" smooth="yes"/>
      <point x="446" y="355"/>
      <point x="502" y="375" type="qcurve"/>
      <point x="502" y="395"/>
      <point x="502" y="401" type="qcurve" smooth="yes"/>
      <point x="502" y="522"/>
      <point x="360" y="522" type="qcurve" smooth="yes"/>
      <point x="293" y="522"/>
      <point x="223" y="473"/>
      <point x="207" y="409" type="qcurve"/>
      <point x="108" y="423" type="line"/>
      <point x="135" y="544"/>
      <point x="240" y="583" type="qcurve" smooth="yes"/>
      <point x="298" y="603"/>
      <point x="375" y="603" type="qcurve" smooth="yes"/>
      <point x="516" y="603"/>
      <point x="567" y="541" type="qcurve" smooth="yes"/>
      <point x="589.411" y="513.878"/>
      <point x="598" y="474" type="qcurve" smooth="yes"/>
      <point x="603.413" y="448.866"/>
      <point x="604" y="380" type="qcurve" smooth="yes"/>
      <point x="604" y="247" type="line" smooth="yes"/>
      <point x="603.351" y="129.977"/>
      <point x="604" y="121" type="qcurve" smooth="yes"/>
      <point x="609.353" y="46.9504"/>
    </contour>
    <contour>
      <point x="502" y="260" type="qcurve" smooth="yes"/>
      <point x="502" y="296" type="line"/>
      <point x="448" y="275"/>
      <point x="338" y="259" type="qcurve" smooth="yes"/>
      <point x="289.102" y="251.701"/>
      <point x="269" y="245" type="qcurve" smooth="yes"/>
      <point x="229.099" y="231.7"/>
      <point x="212" y="206" type="qcurve" smooth="yes"/>
      <point x="198" y="185"/>
      <point x="198" y="158" type="qcurve" smooth="yes"/>
      <point x="198" y="112"/>
      <point x="236" y="87" type="qcurve" smooth="yes"/>
      <point x="268" y="65"/>
      <point x="317" y="65" type="qcurve" smooth="yes"/>
      <point x="441" y="65"/>
      <point x="486" y="160" type="qcurve" smooth="yes"/>
      <point x="502" y="193"/>
    </contour>
  </outline>
</glyph>
<glyph name="b" format="2">
  <advance width="694"/>
  <unicode hex="0062"/>
  <outline>
    <contour>
      <point x="603.33" y="304.122" type="qcurve" smooth="yes"/>
      <point x="603.33" y="175.134"/>
      <point x="541.616" y="86.733" type="qcurve" smooth="yes"/>
      <point x="472.119" y="-13.8995"/>
      <point x="348.135" y="-13.8995" type="qcurve" smooth="yes"/>
      <point x="243.61" y="-13.8995"/>
      <point x="184.12" y="73.9457" type="qcurve"/>
      <point x="184.12" y="0" type="line"/>
      <point x="90.7157" y="0" type="line"/>
      <point x="90.7157" y="815.068" type="line"/>
      <point x="190.792" y="815.068" type="line"/>
      <point x="190.792" y="523.734" type="line"/>
      <point x="254.73" y="603.239"/>
      <point x="352.583" y="603.239" type="qcurve" smooth="yes"/>
      <point x="469.894" y="603.239"/>
      <point x="603.33" y="434.777"/>
    </contour>
    <contour>
      <point x="500.473" y="295.782" type="qcurve" smooth="yes"/>
      <point x="500.473" y="385.851"/>
      <point x="468.783" y="446.453" type="qcurve" smooth="yes"/>
      <point x="427.64" y="521.51"/>
      <point x="344.799" y="521.51" type="qcurve" smooth="yes"/>
      <point x="262.514" y="521.51"/>
      <point x="219.703" y="447.565" type="qcurve" smooth="yes"/>
      <point x="183.009" y="385.851"/>
      <point x="183.009" y="299.674" type="qcurve" smooth="yes"/>
      <point x="182.264" y="193.033"/>
      <point x="211.363" y="145.667" type="qcurve" smooth="yes"/>
      <point x="258.439" y="69.0386"/>
      <point x="340.351" y="69.4975" type="qcurve" smooth="yes"/>
      <point x="422.08" y="69.4975"/>
      <point x="465.447" y="144.555" type="qcurve" smooth="yes"/>
      <point x="500.473" y="207.381"/>
    </contour>
  </outline>
</glyph>
<glyph name="c" format="2">
  <advance width="697"/>
  <unicode hex="0063"/>
  <outline>
    <contour>
      <point x="605.757" y="204.045" type="line"/>
      <point x="589.633" y="103.412"/>
      <point x="458.422" y="-13.8996"/>
      <point x="359.457" y="-13.8996" type="qcurve" smooth="yes"/>
      <point x="227.69" y="-13.8996"/>
      <point x="155.968" y="75.0575" type="qcurve" smooth="yes"/>
      <point x="90.9185" y="157.343"/>
      <point x="90.9185" y="292.446" type="qcurve" smooth="yes"/>
      <point x="90.9185" y="496.491"/>
      <point x="219.35" y="568.213" type="qcurve" smooth="yes"/>
      <point x="283.288" y="603.239"/>
      <point x="359.457" y="603.239" type="qcurve" smooth="yes"/>
      <point x="453.974" y="603.239"/>
      <point x="577.958" y="508.723"/>
      <point x="595.193" y="416.986" type="qcurve"/>
      <point x="498.453" y="401.974" type="line"/>
      <point x="470.098" y="521.51"/>
      <point x="363.905" y="521.51" type="qcurve" smooth="yes"/>
      <point x="193.219" y="521.51"/>
      <point x="193.219" y="295.782" type="qcurve" smooth="yes"/>
      <point x="193.219" y="69.4975"/>
      <point x="358.345" y="69.4975" type="qcurve" smooth="yes"/>
      <point x="486.221" y="69.4975"/>
      <point x="506.236" y="216.277" type="qcurve"/>
    </contour>
  </outline>
</glyph>
<glyph name="d" format="2">
  <advance width="694"/>
  <unicode hex="0064"/>
  <outline>
    <contour>
      <point x="602.577" y="0" type="line"/>
      <point x="509.173" y="0" type="line"/>
      <point x="509.173" y="73.9457" type="line"/>
      <point x="453.574" y="-13.8995"/>
      <point x="344.046" y="-13.8995" type="qcurve" smooth="yes"/>
      <point x="271.212" y="-13.8995"/>
      <point x="153.901" y="66.1616"/>
      <point x="90.5187" y="204.045"/>
      <point x="90.5187" y="294.67" type="qcurve" smooth="yes"/>
      <point x="90.5187" y="488.707"/>
      <point x="208.943" y="565.989" type="qcurve" smooth="yes"/>
      <point x="266.765" y="603.239"/>
      <point x="339.598" y="603.239" type="qcurve" smooth="yes"/>
      <point x="444.678" y="603.239"/>
      <point x="502.501" y="522.623" type="qcurve"/>
      <point x="502.501" y="815.068" type="line"/>
      <point x="602.577" y="815.068" type="line"/>
    </contour>
    <contour>
      <point x="511.396" y="285.774" type="qcurve" smooth="yes"/>
      <point x="511.396" y="381.403"/>
      <point x="478.594" y="443.117" type="qcurve" smooth="yes"/>
      <point x="436.339" y="521.51"/>
      <point x="350.162" y="521.51" type="qcurve" smooth="yes"/>
      <point x="265.652" y="521.51"/>
      <point x="224.51" y="445.341" type="qcurve" smooth="yes"/>
      <point x="193.931" y="386.963"/>
      <point x="193.931" y="294.67" type="qcurve" smooth="yes"/>
      <point x="193.931" y="205.157"/>
      <point x="227.846" y="144.555" type="qcurve" smooth="yes"/>
      <point x="271.212" y="69.4975"/>
      <point x="354.61" y="69.4975" type="qcurve" smooth="yes"/>
      <point x="436.339" y="69.4975"/>
      <point x="477.481" y="140.107" type="qcurve" smooth="yes"/>
      <point x="511.396" y="197.929"/>
    </contour>
  </outline>
</glyph>
<glyph name="e" format="2">
  <advance width="726"/>
  <unicode hex="0065"/>
  <outline>
    <contour>
      <point x="632.244" y="177.358" type="line"/>
      <point x="580.538" y="-13.8995"/>
      <point x="372.601" y="-13.8995" type="qcurve" smooth="yes"/>
      <point x="235.829" y="-13.8995"/>
      <point x="161.884" y="71.7216" type="qcurve" smooth="yes"/>
      <point x="91.2746" y="152.339"/>
      <point x="91.2746" y="290.222" type="qcurve" smooth="yes"/>
      <point x="91.2746" y="426.994"/>
      <point x="159.66" y="512.614" type="qcurve" smooth="yes"/>
      <point x="233.606" y="603.239"/>
      <point x="366.485" y="603.239" type="qcurve" smooth="yes"/>
      <point x="496.585" y="603.239"/>
      <point x="568.307" y="513.727" type="qcurve" smooth="yes"/>
      <point x="635.58" y="430.33"/>
      <point x="635.58" y="295.782" type="qcurve" smooth="yes"/>
      <point x="635.58" y="286.886"/>
      <point x="634.468" y="269.651" type="qcurve"/>
      <point x="193.575" y="269.651" type="line"/>
      <point x="199.135" y="183.474"/>
      <point x="241.389" y="129.544" type="qcurve" smooth="yes"/>
      <point x="289.204" y="69.4975"/>
      <point x="372.601" y="69.4975" type="qcurve" smooth="yes"/>
      <point x="484.909" y="69.4975"/>
      <point x="528.276" y="190.146" type="qcurve"/>
    </contour>
    <contour>
      <point x="529.388" y="351.936" type="line"/>
      <point x="522.716" y="425.881"/>
      <point x="492.137" y="463.688" type="qcurve" smooth="yes"/>
      <point x="444.322" y="521.51"/>
      <point x="367.597" y="521.51" type="qcurve" smooth="yes"/>
      <point x="294.764" y="521.51"/>
      <point x="205.25" y="425.881"/>
      <point x="199.135" y="351.936" type="qcurve"/>
    </contour>
  </outline>
</glyph>
<glyph name="f" format="2">
  <advance width="529"/>
  <unicode hex="0066"/>
  <outline>
    <contour>
      <point x="279.199" y="0" type="line"/>
      <point x="180.235" y="0" type="line"/>
      <point x="180.235" y="512.614" type="line"/>
      <point x="91.2776" y="512.614" type="line"/>
      <point x="91.2776" y="591.008" type="line"/>
      <point x="180.235" y="591.008" type="line"/>
      <point x="180.235" y="653.831" type="line" smooth="yes"/>
      <point x="180.235" y="709.431"/>
      <point x="189.686" y="737.788" type="qcurve" smooth="yes"/>
      <point x="203.03" y="778.932"/>
      <point x="278.088" y="828.97"/>
      <point x="343.137" y="828.97" type="qcurve" smooth="yes"/>
      <point x="386.504" y="828.97"/>
      <point x="437.654" y="818.961" type="qcurve"/>
      <point x="421.53" y="732.226" type="line"/>
      <point x="390.951" y="736.673"/>
      <point x="363.708" y="736.673" type="qcurve" smooth="yes"/>
      <point x="314.782" y="736.673"/>
      <point x="279.199" y="694.421"/>
      <point x="279.199" y="644.383" type="qcurve" smooth="yes"/>
      <point x="279.199" y="591.008" type="line"/>
      <point x="394.287" y="591.008" type="line"/>
      <point x="394.287" y="512.614" type="line"/>
      <point x="279.199" y="512.614" type="line"/>
    </contour>
  </outline>
</glyph>
<glyph name="g" format="2">
  <advance width="702"/>
  <unicode hex="0067"/>
  <outline>
    <contour>
      <point x="611" y="79" type="line" smooth="yes"/>
      <point x="611" y="-31"/>
      <point x="595" y="-83" type="qcurve" smooth="yes"/>
      <point x="570" y="-165"/>
      <point x="494" y="-206" type="qcurve" smooth="yes"/>
      <point x="433" y="-239"/>
      <point x="345" y="-239" type="qcurve" smooth="yes"/>
      <point x="241" y="-239"/>
      <point x="180" y="-197" type="qcurve" smooth="yes"/>
      <point x="109" y="-147"/>
      <point x="111" y="-49" type="qcurve"/>
      <point x="208" y="-64" type="line"/>
      <point x="220" y="-157"/>
      <point x="343" y="-157" type="qcurve" smooth="yes"/>
      <point x="474.879" y="-157.236"/>
      <point x="503" y="-51" type="qcurve" smooth="yes"/>
      <point x="510.883" y="-21.2198"/>
      <point x="510" y="77" type="qcurve"/>
      <point x="443" y="0"/>
      <point x="346" y="0" type="qcurve" smooth="yes"/>
      <point x="225" y="0"/>
      <point x="154" y="91" type="qcurve" smooth="yes"/>
      <point x="91" y="173"/>
      <point x="91" y="299" type="qcurve" smooth="yes"/>
      <point x="91" y="485"/>
      <point x="210" y="565" type="qcurve" smooth="yes"/>
      <point x="268" y="603"/>
      <point x="346" y="603" type="qcurve" smooth="yes"/>
      <point x="452" y="603"/>
      <point x="519" y="519" type="qcurve"/>
      <point x="519" y="591" type="line"/>
      <point x="611" y="591" type="line"/>
    </contour>
    <contour>
      <point x="518" y="303" type="qcurve" smooth="yes"/>
      <point x="518" y="391"/>
      <point x="481" y="450" type="qcurve" smooth="yes"/>
      <point x="437" y="522"/>
      <point x="354" y="522" type="qcurve" smooth="yes"/>
      <point x="271" y="522"/>
      <point x="229" y="451" type="qcurve" smooth="yes"/>
      <point x="194" y="393"/>
      <point x="194" y="306" type="qcurve" smooth="yes"/>
      <point x="194" y="213"/>
      <point x="227" y="155" type="qcurve" smooth="yes"/>
      <point x="270" y="83"/>
      <point x="356" y="83" type="qcurve" smooth="yes"/>
      <point x="441" y="83"/>
      <point x="483" y="154" type="qcurve" smooth="yes"/>
      <point x="518" y="211"/>
    </contour>
  </outline>
</glyph>
<glyph name="h" format="2">
  <advance width="662"/>
  <unicode hex="0068"/>
  <outline>
    <contour>
      <point x="570.905" y="0" type="line"/>
      <point x="470.829" y="0" type="line"/>
      <point x="470.829" y="374.731" type="line" smooth="yes"/>
      <point x="470.829" y="518.174"/>
      <point x="346.845" y="518.174" type="qcurve" smooth="yes"/>
      <point x="302.366" y="518.174"/>
      <point x="223.973" y="471.472"/>
      <point x="190.614" y="393.079"/>
      <point x="190.614" y="323.581" type="qcurve" smooth="yes"/>
      <point x="190.614" y="0" type="line"/>
      <point x="90.5375" y="0" type="line"/>
      <point x="90.5375" y="815.068" type="line"/>
      <point x="190.614" y="815.068" type="line"/>
      <point x="190.614" y="522.622" type="line"/>
      <point x="260.112" y="603.239"/>
      <point x="367.416" y="603.239" type="qcurve" smooth="yes"/>
      <point x="506.411" y="603.239"/>
      <point x="550.89" y="506.499" type="qcurve" smooth="yes"/>
      <point x="570.905" y="460.909"/>
      <point x="570.905" y="374.731" type="qcurve" smooth="yes"/>
    </contour>
  </outline>
</glyph>
<glyph name="i" format="2">
  <advance width="281"/>
  <unicode hex="0069"/>
  <outline>
    <contour>
      <point x="191" y="700" type="line"/>
      <point x="90" y="700" type="line"/>
      <point x="90" y="815" type="line"/>
      <point x="191" y="815" type="line"/>
    </contour>
    <contour>
      <point x="191" y="0" type="line"/>
      <point x="90" y="0" type="line"/>
      <point x="90" y="591" type="line"/>
      <point x="191" y="591" type="line"/>
    </contour>
  </outline>
</glyph>
<glyph name="j" format="2">
  <advance width="408"/>
  <unicode hex="006A"/>
  <outline>
    <contour>
      <point x="317.212" y="698.868" type="line"/>
      <point x="217.136" y="698.868" type="line"/>
      <point x="217.136" y="815.068" type="line"/>
      <point x="317.212" y="815.068" type="line"/>
    </contour>
    <contour>
      <point x="317.212" y="-31.6909" type="line" smooth="yes"/>
      <point x="317.212" y="-141.219"/>
      <point x="288.857" y="-184.586" type="qcurve" smooth="yes"/>
      <point x="252.718" y="-239.072"/>
      <point x="169.321" y="-239.072" type="qcurve" smooth="yes"/>
      <point x="128.178" y="-239.072"/>
      <point x="90.9277" y="-229.064" type="qcurve"/>
      <point x="110.387" y="-143.443" type="line"/>
      <point x="139.854" y="-151.227"/>
      <point x="157.089" y="-151.227" type="qcurve" smooth="yes"/>
      <point x="201.052" y="-151.563"/>
      <point x="212.687" y="-109.528" type="qcurve" smooth="yes"/>
      <point x="218.301" y="-89.2442"/>
      <point x="217.136" y="-29.467" type="qcurve" smooth="yes"/>
      <point x="217.136" y="591.008" type="line"/>
      <point x="317.212" y="591.008" type="line"/>
    </contour>
  </outline>
</glyph>
<glyph name="k" format="2">
  <advance width="671"/>
  <unicode hex="006B"/>
  <outline>
    <contour>
      <point x="580.357" y="0" type="line"/>
      <point x="457.485" y="0" type="line"/>
      <point x="261.224" y="301.898" type="line"/>
      <point x="190.614" y="234.624" type="line"/>
      <point x="190.614" y="0" type="line"/>
      <point x="90.5375" y="0" type="line"/>
      <point x="90.5375" y="815.068" type="line"/>
      <point x="190.614" y="815.068" type="line"/>
      <point x="190.614" y="350.824" type="line"/>
      <point x="427.462" y="591.008" type="line"/>
      <point x="557.562" y="591.008" type="line"/>
      <point x="331.834" y="371.395" type="line"/>
    </contour>
  </outline>
</glyph>
<glyph name="l" format="2">
  <advance width="283"/>
  <unicode hex="006C"/>
  <outline>
    <contour>
      <point x="190.97" y="0" type="line"/>
      <point x="90.8933" y="0" type="line"/>
      <point x="90.8933" y="815.068" type="line"/>
      <point x="190.97" y="815.068" type="line"/>
    </contour>
  </outline>
</glyph>
<glyph name="m" format="2">
  <advance width="982"/>
  <unicode hex="006D"/>
  <outline>
    <contour>
      <point x="891.149" y="0" type="line"/>
      <point x="791.074" y="0" type="line"/>
      <point x="791.074" y="372.508" type="line" smooth="yes"/>
      <point x="790.507" y="421.289"/>
      <point x="784.957" y="444.229" type="qcurve" smooth="yes"/>
      <point x="775.882" y="481.93"/>
      <point x="746.598" y="500.939" type="qcurve" smooth="yes"/>
      <point x="720.841" y="517.658"/>
      <point x="685.99" y="517.063" type="qcurve" smooth="yes"/>
      <point x="612.048" y="517.063"/>
      <point x="574.797" y="465.912" type="qcurve" smooth="yes"/>
      <point x="541.438" y="420.322"/>
      <point x="541.438" y="342.484" type="qcurve" smooth="yes"/>
      <point x="541.438" y="0" type="line"/>
      <point x="441.361" y="0" type="line"/>
      <point x="441.361" y="383.627" type="line" smooth="yes"/>
      <point x="441.361" y="517.063"/>
      <point x="336.837" y="517.063" type="qcurve" smooth="yes"/>
      <point x="239.541" y="517.063"/>
      <point x="206.738" y="429.217" type="qcurve" smooth="yes"/>
      <point x="190.614" y="386.963"/>
      <point x="190.614" y="306.345" type="qcurve" smooth="yes"/>
      <point x="190.614" y="0" type="line"/>
      <point x="90.5374" y="0" type="line"/>
      <point x="90.5374" y="591.008" type="line"/>
      <point x="180.606" y="591.008" type="line"/>
      <point x="180.606" y="507.611" type="line"/>
      <point x="242.32" y="603.239"/>
      <point x="359.077" y="603.239" type="qcurve" smooth="yes"/>
      <point x="489.176" y="603.239"/>
      <point x="525.871" y="499.827" type="qcurve"/>
      <point x="595.925" y="603.239"/>
      <point x="707.677" y="603.239" type="qcurve" smooth="yes"/>
      <point x="891.149" y="603.239"/>
      <point x="891.149" y="405.31" type="qcurve" smooth="yes"/>
    </contour>
  </outline>
</glyph>
<glyph name="n" format="2">
  <advance width="660"/>
  <unicode hex="006E"/>
  <outline>
    <contour>
      <point x="570" y="0" type="line"/>
      <point x="470" y="0" type="line"/>
      <point x="470" y="358" type="line" smooth="yes"/>
      <point x="470" y="467"/>
      <point x="417" y="499" type="qcurve" smooth="yes"/>
      <point x="388" y="517"/>
      <point x="348" y="517" type="qcurve" smooth="yes"/>
      <point x="191" y="517"/>
      <point x="191" y="323" type="qcurve" smooth="yes"/>
      <point x="191" y="0" type="line"/>
      <point x="90" y="0" type="line"/>
      <point x="90" y="591" type="line"/>
      <point x="181" y="591" type="line"/>
      <point x="181" y="506" type="line"/>
      <point x="245" y="603"/>
      <point x="368" y="603" type="qcurve" smooth="yes"/>
      <point x="483" y="603"/>
      <point x="534" y="534" type="qcurve" smooth="yes"/>
      <point x="556.045" y="502.834"/>
      <point x="564" y="460" type="qcurve" smooth="yes"/>
      <point x="569.05" y="432.806"/>
      <point x="570" y="363" type="qcurve" smooth="yes"/>
    </contour>
  </outline>
</glyph>
<glyph name="o" format="2">
  <advance width="735"/>
  <unicode hex="006F"/>
  <outline>
    <contour>
      <point x="644" y="304" type="qcurve" smooth="yes"/>
      <point x="644" y="97"/>
      <point x="510" y="23" type="qcurve" smooth="yes"/>
      <point x="445" y="-14"/>
      <point x="367" y="-14" type="qcurve" smooth="yes"/>
      <point x="233" y="-14"/>
      <point x="159" y="75" type="qcurve" smooth="yes"/>
      <point x="91" y="157"/>
      <point x="91" y="295" type="qcurve" smooth="yes"/>
      <point x="91" y="433"/>
      <point x="160" y="516" type="qcurve" smooth="yes"/>
      <point x="233" y="603"/>
      <point x="367" y="603" type="qcurve" smooth="yes"/>
      <point x="498" y="603"/>
      <point x="573" y="518" type="qcurve" smooth="yes"/>
      <point x="644" y="436"/>
    </contour>
    <contour>
      <point x="542" y="299" type="qcurve" smooth="yes"/>
      <point x="542" y="391"/>
      <point x="501" y="451" type="qcurve" smooth="yes"/>
      <point x="455" y="522"/>
      <point x="367" y="522" type="qcurve" smooth="yes"/>
      <point x="278" y="522"/>
      <point x="232" y="450" type="qcurve" smooth="yes"/>
      <point x="194" y="391"/>
      <point x="194" y="295" type="qcurve" smooth="yes"/>
      <point x="193.664" y="199.786"/>
      <point x="232" y="140" type="qcurve" smooth="yes"/>
      <point x="277.665" y="68.7842"/>
      <point x="367" y="69" type="qcurve" smooth="yes"/>
      <point x="458" y="69"/>
      <point x="504" y="142" type="qcurve" smooth="yes"/>
      <point x="542" y="203"/>
    </contour>
  </outline>
</glyph>
<glyph name="p" format="2">
  <advance width="694"/>
  <unicode hex="0070"/>
  <outline>
    <contour>
      <point x="603.152" y="299.674" type="qcurve" smooth="yes"/>
      <point x="603.152" y="104.525"/>
      <point x="476.389" y="25.0191" type="qcurve" smooth="yes"/>
      <point x="414.118" y="-13.8995"/>
      <point x="345.733" y="-13.8995" type="qcurve" smooth="yes"/>
      <point x="250.104" y="-13.8995"/>
      <point x="190.614" y="61.7139" type="qcurve"/>
      <point x="190.614" y="-226.84" type="line"/>
      <point x="90.5375" y="-226.84" type="line"/>
      <point x="90.5375" y="591.008" type="line"/>
      <point x="181.718" y="591.008" type="line"/>
      <point x="181.718" y="513.727" type="line"/>
      <point x="246.768" y="603.239"/>
      <point x="352.404" y="603.239" type="qcurve" smooth="yes"/>
      <point x="511.971" y="603.239"/>
      <point x="573.685" y="455.349" type="qcurve" smooth="yes"/>
      <point x="603.152" y="383.627"/>
    </contour>
    <contour>
      <point x="500.296" y="300.786" type="qcurve" smooth="yes"/>
      <point x="500.296" y="388.075"/>
      <point x="467.493" y="449.789" type="qcurve" smooth="yes"/>
      <point x="425.238" y="524.846"/>
      <point x="343.509" y="524.846" type="qcurve" smooth="yes"/>
      <point x="261.224" y="524.846"/>
      <point x="216.745" y="445.341" type="qcurve" smooth="yes"/>
      <point x="181.718" y="380.291"/>
      <point x="181.718" y="291.334" type="qcurve" smooth="yes"/>
      <point x="181.718" y="201.265"/>
      <point x="214.521" y="142.331" type="qcurve" smooth="yes"/>
      <point x="255.664" y="69.4975"/>
      <point x="339.061" y="69.4975" type="qcurve" smooth="yes"/>
      <point x="424.126" y="69.4975"/>
      <point x="466.381" y="145.667" type="qcurve" smooth="yes"/>
      <point x="500.296" y="207.381"/>
    </contour>
  </outline>
</glyph>
<glyph name="q" format="2">
  <advance width="693"/>
  <unicode hex="0071"/>
  <outline>
    <contour>
      <point x="601.287" y="-226.84" type="line"/>
      <point x="501.211" y="-226.84" type="line"/>
      <point x="501.211" y="62.8259" type="line"/>
      <point x="447.837" y="-13.8995"/>
      <point x="347.76" y="-13.8995" type="qcurve" smooth="yes"/>
      <point x="225.444" y="-13.8995"/>
      <point x="153.722" y="85.6212" type="qcurve" smooth="yes"/>
      <point x="90.3406" y="174.022"/>
      <point x="90.3406" y="300.786" type="qcurve" smooth="yes"/>
      <point x="90.3406" y="493.155"/>
      <point x="210.989" y="567.101" type="qcurve" smooth="yes"/>
      <point x="268.811" y="603.239"/>
      <point x="339.42" y="603.239" type="qcurve" smooth="yes"/>
      <point x="448.948" y="603.239"/>
      <point x="511.219" y="511.503" type="qcurve"/>
      <point x="511.219" y="591.008" type="line"/>
      <point x="601.287" y="591.008" type="line"/>
    </contour>
    <contour>
      <point x="511.219" y="287.998" type="qcurve" smooth="yes"/>
      <point x="510.815" y="379.178"/>
      <point x="477.304" y="444.229" type="qcurve" smooth="yes"/>
      <point x="432.825" y="524.846"/>
      <point x="348.872" y="524.846" type="qcurve" smooth="yes"/>
      <point x="265.475" y="524.846"/>
      <point x="224.332" y="448.677" type="qcurve" smooth="yes"/>
      <point x="192.641" y="388.075"/>
      <point x="192.641" y="297.45" type="qcurve" smooth="yes"/>
      <point x="192.641" y="206.269"/>
      <point x="227.668" y="144.555" type="qcurve" smooth="yes"/>
      <point x="271.035" y="69.4975"/>
      <point x="355.544" y="69.4975" type="qcurve" smooth="yes"/>
      <point x="436.95" y="69.0384"/>
      <point x="478.416" y="141.219" type="qcurve" smooth="yes"/>
      <point x="511.61" y="199.701"/>
    </contour>
  </outline>
</glyph>
<glyph name="r" format="2">
  <advance width="503"/>
  <unicode hex="0072"/>
  <outline>
    <contour>
      <point x="190.792" y="0" type="line"/>
      <point x="90.7157" y="0" type="line"/>
      <point x="90.7157" y="591.008" type="line"/>
      <point x="180.785" y="591.008" type="line"/>
      <point x="180.785" y="500.939" type="line"/>
      <point x="237.495" y="603.239"/>
      <point x="308.104" y="603.239" type="qcurve" smooth="yes"/>
      <point x="359.254" y="603.239"/>
      <point x="412.072" y="571.549" type="qcurve"/>
      <point x="376.49" y="478.144" type="line"/>
      <point x="340.351" y="499.827"/>
      <point x="303.656" y="499.827" type="qcurve" smooth="yes"/>
      <point x="230.226" y="500.018"/>
      <point x="206.916" y="425.881" type="qcurve" smooth="yes"/>
      <point x="190.193" y="372.693"/>
      <point x="190.792" y="308.57" type="qcurve" smooth="yes"/>
    </contour>
  </outline>
</glyph>
<glyph name="s" format="2">
  <advance width="671"/>
  <unicode hex="0073"/>
  <outline>
    <contour>
      <point x="580.316" y="172.91" type="qcurve" smooth="yes"/>
      <point x="580.316" y="60.602"/>
      <point x="467.452" y="11.1196" type="qcurve" smooth="yes"/>
      <point x="411.854" y="-13.8995"/>
      <point x="342.356" y="-13.8995" type="qcurve" smooth="yes"/>
      <point x="123.856" y="-13.8995"/>
      <point x="90.4968" y="176.246" type="qcurve"/>
      <point x="190.017" y="191.258" type="line"/>
      <point x="206.697" y="69.4975"/>
      <point x="342.356" y="69.4975" type="qcurve" smooth="yes"/>
      <point x="395.73" y="69.4975"/>
      <point x="432.425" y="88.9571" type="qcurve" smooth="yes"/>
      <point x="478.016" y="113.976"/>
      <point x="478.016" y="162.903" type="qcurve" smooth="yes"/>
      <point x="477.725" y="196.385"/>
      <point x="448.549" y="216.277" type="qcurve" smooth="yes"/>
      <point x="428.79" y="229.748"/>
      <point x="345.692" y="250.748" type="qcurve" smooth="yes"/>
      <point x="253.399" y="273.543"/>
      <point x="227.268" y="283.551" type="qcurve" smooth="yes"/>
      <point x="155.546" y="310.794"/>
      <point x="129.416" y="354.16" type="qcurve" smooth="yes"/>
      <point x="106.62" y="390.299"/>
      <point x="106.62" y="433.665" type="qcurve" smooth="yes"/>
      <point x="106.62" y="513.727"/>
      <point x="173.894" y="562.653" type="qcurve" smooth="yes"/>
      <point x="230.604" y="603.239"/>
      <point x="324.009" y="603.239" type="qcurve" smooth="yes"/>
      <point x="469.676" y="603.239"/>
      <point x="524.718" y="529.294" type="qcurve" smooth="yes"/>
      <point x="549.737" y="495.38"/>
      <point x="558.633" y="438.113" type="qcurve"/>
      <point x="460.78" y="424.77" type="line"/>
      <point x="447.437" y="521.51"/>
      <point x="332.349" y="521.51" type="qcurve" smooth="yes"/>
      <point x="203.361" y="521.51"/>
      <point x="203.361" y="445.341" type="qcurve" smooth="yes"/>
      <point x="203.432" y="403.273"/>
      <point x="254.511" y="383.627" type="qcurve" smooth="yes"/>
      <point x="268.484" y="378.253"/>
      <point x="342.356" y="357.496" type="qcurve" smooth="yes"/>
      <point x="441.321" y="331.365"/>
      <point x="459.668" y="324.693" type="qcurve" smooth="yes"/>
      <point x="529.166" y="298.562"/>
      <point x="556.409" y="259.643" type="qcurve" smooth="yes"/>
      <point x="580.316" y="224.061"/>
    </contour>
  </outline>
</glyph>
<glyph name="t" format="2">
  <advance width="470"/>
  <unicode hex="0074"/>
  <outline>
    <contour>
      <point x="378" y="1" type="line"/>
      <point x="335" y="-8"/>
      <point x="302" y="-8" type="qcurve" smooth="yes"/>
      <point x="203" y="-8"/>
      <point x="175" y="55" type="qcurve" smooth="yes"/>
      <point x="163" y="83"/>
      <point x="163" y="173" type="qcurve" smooth="yes"/>
      <point x="163" y="513" type="line"/>
      <point x="90" y="513" type="line"/>
      <point x="90" y="591" type="line"/>
      <point x="163" y="591" type="line"/>
      <point x="163" y="737" type="line"/>
      <point x="262" y="797" type="line"/>
      <point x="262" y="591" type="line"/>
      <point x="363" y="591" type="line"/>
      <point x="363" y="513" type="line"/>
      <point x="262" y="513" type="line"/>
      <point x="262" y="168" type="line" smooth="yes"/>
      <point x="262" y="124"/>
      <point x="270" y="108" type="qcurve" smooth="yes"/>
      <point x="281" y="86"/>
      <point x="319" y="86" type="qcurve" smooth="yes"/>
      <point x="336" y="86"/>
      <point x="363" y="90" type="qcurve"/>
    </contour>
  </outline>
</glyph>
<glyph name="u" format="2">
  <advance width="660"/>
  <unicode hex="0075"/>
  <outline>
    <contour>
      <point x="569" y="0" type="line"/>
      <point x="480" y="0" type="line"/>
      <point x="480" y="87" type="line"/>
      <point x="411" y="-14"/>
      <point x="293" y="-14" type="qcurve" smooth="yes"/>
      <point x="246" y="-14"/>
      <point x="203" y="3" type="qcurve" smooth="yes"/>
      <point x="153.12" y="23.0888"/>
      <point x="128" y="57" type="qcurve" smooth="yes"/>
      <point x="104.947" y="87.8474"/>
      <point x="96" y="131" type="qcurve" smooth="yes"/>
      <point x="89.8257" y="160.78"/>
      <point x="91" y="224" type="qcurve" smooth="yes"/>
      <point x="91" y="591" type="line"/>
      <point x="191" y="591" type="line"/>
      <point x="191" y="263" type="line" smooth="yes"/>
      <point x="191" y="183"/>
      <point x="197" y="157" type="qcurve" smooth="yes"/>
      <point x="217" y="73"/>
      <point x="313" y="73" type="qcurve" smooth="yes"/>
      <point x="357" y="73"/>
      <point x="437" y="118"/>
      <point x="469" y="198"/>
      <point x="469" y="275" type="qcurve" smooth="yes"/>
      <point x="469" y="591" type="line"/>
      <point x="569" y="591" type="line"/>
    </contour>
  </outline>
</glyph>
<glyph name="v" format="2">
  <advance width="722"/>
  <unicode hex="0076"/>
  <outline>
    <contour>
      <point x="631.535" y="591.008" type="line"/>
      <point x="408.587" y="0" type="line"/>
      <point x="315.182" y="0" type="line"/>
      <point x="91.1215" y="591.008" type="line"/>
      <point x="195.646" y="591.008" type="line"/>
      <point x="360.772" y="118.424" type="line"/>
      <point x="529.234" y="591.008" type="line"/>
    </contour>
  </outline>
</glyph>
<glyph name="w" format="2">
  <advance width="992"/>
  <unicode hex="0077"/>
  <outline>
    <contour>
      <point x="900.565" y="591.008" type="line"/>
      <point x="716.535" y="0" type="line"/>
      <point x="612.566" y="0" type="line"/>
      <point x="495.254" y="454.237" type="line"/>
      <point x="375.718" y="0" type="line"/>
      <point x="272.306" y="0" type="line"/>
      <point x="91.0559" y="591.008" type="line"/>
      <point x="195.024" y="591.008" type="line"/>
      <point x="323.456" y="122.872" type="line"/>
      <point x="447.44" y="591.008" type="line"/>
      <point x="551.408" y="591.008" type="line"/>
      <point x="668.165" y="135.659" type="line"/>
      <point x="803.821" y="591.008" type="line"/>
    </contour>
  </outline>
</glyph>
<glyph name="x" format="2">
  <advance width="737"/>
  <unicode hex="0078"/>
  <outline>
    <contour>
      <point x="646" y="0" type="line"/>
      <point x="522" y="0" type="line"/>
      <point x="369" y="234" type="line"/>
      <point x="214" y="0" type="line"/>
      <point x="91" y="0" type="line"/>
      <point x="308" y="307" type="line"/>
      <point x="108" y="591" type="line"/>
      <point x="233" y="591" type="line"/>
      <point x="365" y="386" type="line"/>
      <point x="510" y="591" type="line"/>
      <point x="629" y="591" type="line"/>
      <point x="425" y="312" type="line"/>
    </contour>
  </outline>
</glyph>
<glyph name="y" format="2">
  <advance width="722"/>
  <unicode hex="0079"/>
  <outline>
    <contour>
      <point x="631.557" y="591.008" type="line"/>
      <point x="406.941" y="-10.0077" type="line" smooth="yes"/>
      <point x="370.802" y="-108.416"/>
      <point x="351.342" y="-143.443" type="qcurve" smooth="yes"/>
      <point x="299.08" y="-239.072"/>
      <point x="207.899" y="-239.072" type="qcurve" smooth="yes"/>
      <point x="177.876" y="-239.072"/>
      <point x="142.85" y="-227.952" type="qcurve"/>
      <point x="131.174" y="-133.436" type="line"/>
      <point x="164.533" y="-142.331"/>
      <point x="189.552" y="-142.331" type="qcurve" smooth="yes"/>
      <point x="248.486" y="-142.331"/>
      <point x="275.173" y="-100.076" type="qcurve" smooth="yes"/>
      <point x="285.181" y="-84.5089"/>
      <point x="305.752" y="-25.0191" type="qcurve" smooth="yes"/>
      <point x="310.2" y="-12.7876"/>
      <point x="314.648" y="-1.11195" type="qcurve"/>
      <point x="90.5874" y="591.008" type="line"/>
      <point x="198.448" y="591.008" type="line"/>
      <point x="363.574" y="111.752" type="line"/>
      <point x="530.924" y="591.008" type="line"/>
    </contour>
  </outline>
</glyph>
<glyph name="z" format="2">
  <advance width="704"/>
  <unicode hex="007A"/>
  <outline>
    <contour>
      <point x="613.787" y="0" type="line"/>
      <point x="91.1652" y="0" type="line"/>
      <point x="91.1652" y="80.6174" type="line"/>
      <point x="467.008" y="512.614" type="line"/>
      <point x="401.958" y="508.723"/>
      <point x="353.032" y="508.723" type="qcurve" smooth="yes"/>
      <point x="112.848" y="508.723" type="line"/>
      <point x="112.848" y="591.008" type="line"/>
      <point x="595.44" y="591.008" type="line"/>
      <point x="595.44" y="523.734" type="line"/>
      <point x="214.037" y="80.6174" type="line"/>
      <point x="281.311" y="86.733"/>
      <point x="340.245" y="86.733" type="qcurve" smooth="yes"/>
      <point x="613.787" y="86.733" type="line"/>
    </contour>
  </outline>
</glyph>
<glyph name="braceleft" format="2">
  <advance width="504"/>
  <unicode hex="007B"/>
  <outline>
    <contour>
      <point x="413.5" y="-239.072" type="line"/>
      <point x="381.809" y="-239.072" type="line" smooth="yes"/>
      <point x="327.627" y="-239.841"/>
      <point x="302.86" y="-231.288" type="qcurve" smooth="yes"/>
      <point x="226.598" y="-204.958"/>
      <point x="212.791" y="-117.312" type="qcurve" smooth="yes"/>
      <point x="208.52" y="-90.1996"/>
      <point x="209.455" y="87.8447"/>
      <point x="202.783" y="131.212" type="qcurve" smooth="yes"/>
      <point x="193.155" y="200.617"/>
      <point x="160.529" y="226.84" type="qcurve" smooth="yes"/>
      <point x="133.657" y="248.438"/>
      <point x="91.031" y="249.636" type="qcurve"/>
      <point x="91.031" y="340.26" type="line"/>
      <point x="176.979" y="342.676"/>
      <point x="197.223" y="423.658" type="qcurve" smooth="yes"/>
      <point x="206.865" y="462.23"/>
      <point x="206.119" y="554.313" type="qcurve" smooth="yes"/>
      <point x="204.053" y="596.938"/>
      <point x="209.455" y="677.741" type="qcurve" smooth="yes"/>
      <point x="217.548" y="798.794"/>
      <point x="313.423" y="823.408" type="qcurve" smooth="yes"/>
      <point x="332.883" y="828.97"/>
      <point x="381.809" y="828.97" type="qcurve" smooth="yes"/>
      <point x="413.5" y="828.97" type="line"/>
      <point x="413.5" y="741.12" type="line"/>
      <point x="395.153" y="741.12" type="line" smooth="yes"/>
      <point x="334.317" y="740.89"/>
      <point x="315.647" y="714.993" type="qcurve" smooth="yes"/>
      <point x="299.843" y="693.072"/>
      <point x="299.524" y="627.147" type="qcurve" smooth="yes"/>
      <point x="299.524" y="480.368"/>
      <point x="293.964" y="444.229" type="qcurve" smooth="yes"/>
      <point x="285.069" y="385.851"/>
      <point x="235.586" y="319.689"/>
      <point x="183.324" y="294.67" type="qcurve"/>
      <point x="257.269" y="264.091"/>
      <point x="282.288" y="192.369" type="qcurve" smooth="yes"/>
      <point x="299.524" y="142.331"/>
      <point x="299.524" y="44.4785" type="qcurve" smooth="yes"/>
      <point x="299.524" y="-65.0499"/>
      <point x="301.748" y="-84.5088" type="qcurve" smooth="yes"/>
      <point x="306.89" y="-126.863"/>
      <point x="330.103" y="-141.219" type="qcurve" smooth="yes"/>
      <point x="349.165" y="-153.007"/>
      <point x="395.153" y="-152.339" type="qcurve" smooth="yes"/>
      <point x="413.5" y="-152.339" type="line"/>
    </contour>
  </outline>
</glyph>
<glyph name="bar" format="2">
  <advance width="268"/>
  <unicode hex="007C"/>
  <outline>
    <contour>
      <point x="177.068" y="-239.072" type="line"/>
      <point x="90.3346" y="-239.072" type="line"/>
      <point x="90.3346" y="828.97" type="line"/>
      <point x="177.068" y="828.97" type="line"/>
    </contour>
  </outline>
</glyph>
<glyph name="braceright" format="2">
  <advance width="504"/>
  <unicode hex="007D"/>
  <outline>
    <contour>
      <point x="413.1" y="249.636" type="line"/>
      <point x="326.367" y="246.855"/>
      <point x="306.908" y="166.239" type="qcurve" smooth="yes"/>
      <point x="296.9" y="122.872"/>
      <point x="296.9" y="41.1426" type="qcurve" smooth="yes"/>
      <point x="297.561" y="-58.9925"/>
      <point x="294.676" y="-87.8454" type="qcurve" smooth="yes"/>
      <point x="282.674" y="-207.895"/>
      <point x="190.708" y="-233.512" type="qcurve" smooth="yes"/>
      <point x="169.144" y="-239.519"/>
      <point x="121.21" y="-239.072" type="qcurve" smooth="yes"/>
      <point x="90.6312" y="-239.072" type="line"/>
      <point x="90.6312" y="-152.339" type="line"/>
      <point x="107.867" y="-152.339" type="line" smooth="yes"/>
      <point x="169.025" y="-152.339"/>
      <point x="188.484" y="-125.096" type="qcurve" smooth="yes"/>
      <point x="203.495" y="-104.525"/>
      <point x="203.495" y="-37.8067" type="qcurve" smooth="yes"/>
      <point x="202.753" y="102.399"/>
      <point x="207.943" y="138.995" type="qcurve" smooth="yes"/>
      <point x="224.438" y="255.303"/>
      <point x="319.695" y="294.67" type="qcurve"/>
      <point x="245.75" y="330.253"/>
      <point x="220.73" y="397.527" type="qcurve" smooth="yes"/>
      <point x="203.495" y="445.341"/>
      <point x="203.495" y="545.417" type="qcurve" smooth="yes"/>
      <point x="204.073" y="650.003"/>
      <point x="201.272" y="674.964" type="qcurve" smooth="yes"/>
      <point x="196.496" y="717.648"/>
      <point x="172.916" y="731.118" type="qcurve" smooth="yes"/>
      <point x="154.772" y="741.483"/>
      <point x="107.867" y="741.12" type="qcurve" smooth="yes"/>
      <point x="90.6312" y="741.12" type="line"/>
      <point x="90.6312" y="828.97" type="line"/>
      <point x="121.21" y="828.97" type="line" smooth="yes"/>
      <point x="175.14" y="828.97"/>
      <point x="201.272" y="820.07" type="qcurve" smooth="yes"/>
      <point x="276.329" y="793.388"/>
      <point x="290.229" y="706.099" type="qcurve" smooth="yes"/>
      <point x="296.367" y="664.96"/>
      <point x="295.788" y="564.877" type="qcurve" smooth="yes"/>
      <point x="295.255" y="472.586"/>
      <point x="306.908" y="423.658" type="qcurve" smooth="yes"/>
      <point x="326.367" y="342.484"/>
      <point x="413.101" y="340.26" type="qcurve"/>
    </contour>
  </outline>
</glyph>
<glyph name="asciitilde" format="2">
  <advance width="751"/>
  <unicode hex="007E"/>
  <outline>
    <contour>
      <point x="659.709" y="374.731" type="line"/>
      <point x="592.436" y="310.794"/>
      <point x="506.258" y="310.794" type="qcurve" smooth="yes"/>
      <point x="446.768" y="310.794"/>
      <point x="345.58" y="356.384" type="qcurve" smooth="yes"/>
      <point x="279.418" y="384.739"/>
      <point x="236.052" y="384.739" type="qcurve" smooth="yes"/>
      <point x="168.778" y="384.739"/>
      <point x="90.3844" y="309.681" type="qcurve"/>
      <point x="90.3844" y="423.658" type="line"/>
      <point x="149.874" y="490.931"/>
      <point x="245.503" y="490.931" type="qcurve" smooth="yes"/>
      <point x="305.549" y="490.931"/>
      <point x="420.637" y="442.005" type="qcurve" smooth="yes"/>
      <point x="482.351" y="415.874"/>
      <point x="516.266" y="415.874" type="qcurve" smooth="yes"/>
      <point x="590.212" y="415.874"/>
      <point x="659.709" y="492.044" type="qcurve"/>
    </contour>
  </outline>
</glyph>
<glyph name="Adieresis" format="2">
  <advance width="982"/>
  <unicode hex="00C4"/>
  <outline>
    <component base="A" xScale="1.29" yScale="1.29" xOffset="1"/>
    <contour>
      <point x="396" y="1181" type="qcurve" smooth="yes"/>
      <point x="396" y="1120"/>
      <point x="332" y="1120" type="qcurve" smooth="yes"/>
      <point x="271" y="1120"/>
      <point x="271" y="1181" type="qcurve" smooth="yes"/>
      <point x="271" y="1245"/>
      <point x="332" y="1245" type="qcurve" smooth="yes"/>
      <point x="396" y="1245"/>
    </contour>
    <contour>
      <point x="705" y="1181" type="qcurve" smooth="yes"/>
      <point x="705" y="1120"/>
      <point x="641" y="1120" type="qcurve" smooth="yes"/>
      <point x="580" y="1120"/>
      <point x="580" y="1181" type="qcurve" smooth="yes"/>
      <point x="580" y="1245"/>
      <point x="641" y="1245" type="qcurve" smooth="yes"/>
      <point x="705" y="1245"/>
    </contour>
  </outline>
</glyph>
<glyph name="Odieresis" format="2">
  <advance width="1188"/>
  <unicode hex="00D6"/>
  <outline>
    <component base="O" xScale="1.29" yScale="1.29" xOffset="-26"/>
    <contour>
      <point x="472" y="1182" type="qcurve" smooth="yes"/>
      <point x="472" y="1120"/>
      <point x="409" y="1120" type="qcurve" smooth="yes"/>
      <point x="348" y="1120"/>
      <point x="348" y="1182" type="qcurve" smooth="yes"/>
      <point x="348" y="1245"/>
      <point x="409" y="1245" type="qcurve" smooth="yes"/>
      <point x="472" y="1245"/>
    </contour>
    <contour>
      <point x="828" y="1182" type="qcurve" smooth="yes"/>
      <point x="828" y="1120"/>
      <point x="765" y="1120" type="qcurve" smooth="yes"/>
      <point x="704" y="1120"/>
      <point x="704" y="1182" type="qcurve" smooth="yes"/>
      <point x="704" y="1245"/>
      <point x="765" y="1245" type="qcurve" smooth="yes"/>
      <point x="828" y="1245"/>
    </contour>
  </outline>
</glyph>
<glyph name="Udieresis" format="2">
  <advance width="1010"/>
  <unicode hex="00DC"/>
  <outline>
    <component base="U" xScale="1.29" yScale="1.29" xOffset="-26"/>
    <contour>
      <point x="403" y="1182" type="qcurve" smooth="yes"/>
      <point x="403" y="1120"/>
      <point x="340" y="1120" type="qcurve" smooth="yes"/>
      <point x="279" y="1120"/>
      <point x="279" y="1182" type="qcurve" smooth="yes"/>
      <point x="279" y="1245"/>
      <point x="340" y="1245" type="qcurve" smooth="yes"/>
      <point x="403" y="1245"/>
    </contour>
    <contour>
      <point x="759" y="1182" type="qcurve" smooth="yes"/>
      <point x="759" y="1120"/>
      <point x="696" y="1120" type="qcurve" smooth="yes"/>
      <point x="635" y="1120"/>
      <point x="635" y="1182" type="qcurve" smooth="yes"/>
      <point x="635" y="1245"/>
      <point x="696" y="1245" type="qcurve" smooth="yes"/>
      <point x="759" y="1245"/>
    </contour>
  </outline>
</glyph>
<glyph name="adieresis" format="2">
  <advance width="885"/>
  <unicode hex="00E4"/>
  <outline>
    <component base="a" xScale="1.29" yScale="1.29" xOffset="-26"/>
    <contour>
      <point x="414" y="916" type="qcurve" smooth="yes"/>
      <point x="414" y="855"/>
      <point x="350" y="855" type="qcurve" smooth="yes"/>
      <point x="289" y="855"/>
      <point x="289" y="916" type="qcurve" smooth="yes"/>
      <point x="289" y="980"/>
      <point x="350" y="980" type="qcurve" smooth="yes"/>
      <point x="414" y="980"/>
    </contour>
    <contour>
      <point x="605" y="916" type="qcurve" smooth="yes"/>
      <point x="605" y="855"/>
      <point x="542" y="855" type="qcurve" smooth="yes"/>
      <point x="481" y="855"/>
      <point x="481" y="916" type="qcurve" smooth="yes"/>
      <point x="481" y="980"/>
      <point x="542" y="980" type="qcurve" smooth="yes"/>
      <point x="605" y="980"/>
    </contour>
  </outline>
</glyph>
<glyph name="odieresis" format="2">
  <advance width="896"/>
  <unicode hex="00F6"/>
  <outline>
    <component base="o" xScale="1.29" yScale="1.29" xOffset="-26"/>
    <contour>
      <point x="417" y="916" type="qcurve" smooth="yes"/>
      <point x="417" y="855"/>
      <point x="354" y="855" type="qcurve" smooth="yes"/>
      <point x="292" y="855"/>
      <point x="292" y="916" type="qcurve" smooth="yes"/>
      <point x="292" y="979"/>
      <point x="354" y="979" type="qcurve" smooth="yes"/>
      <point x="417" y="979"/>
    </contour>
    <contour>
      <point x="609" y="916" type="qcurve" smooth="yes"/>
      <point x="609" y="855"/>
      <point x="545" y="855" type="qcurve" smooth="yes"/>
      <point x="484" y="855"/>
      <point x="484" y="916" type="qcurve" smooth="yes"/>
      <point x="484" y="979"/>
      <point x="545" y="979" type="qcurve" smooth="yes"/>
      <point x="609" y="979"/>
    </contour>
  </outline>
</glyph>
<glyph name="udieresis" format="2">
  <advance width="799"/>
  <unicode hex="00FC"/>
  <outline>
    <component base="u" xScale="1.29" yScale="1.29" xOffset="-27"/>
    <contour>
      <point x="373" y="916" type="qcurve" smooth="yes"/>
      <point x="373" y="855"/>
      <point x="309" y="855" type="qcurve" smooth="yes"/>
      <point x="248" y="855"/>
      <point x="248" y="916" type="qcurve" smooth="yes"/>
      <point x="248" y="980"/>
      <point x="309" y="980" type="qcurve" smooth="yes"/>
      <point x="373" y="980"/>
    </contour>
    <contour>
      <point x="564" y="916" type="qcurve" smooth="yes"/>
      <point x="564" y="855"/>
      <point x="501" y="855" type="qcurve" smooth="yes"/>
      <point x="440" y="855"/>
      <point x="440" y="916" type="qcurve" smooth="yes"/>
      <point x="440" y="980"/>
      <point x="501" y="980" type="qcurve" smooth="yes"/>
      <point x="564" y="980"/>
    </contour>
  </outline>
</glyph>
<glyph name="uni25CC" format="2">
  <advance width="957"/>
  <unicode hex="25CC"/>
  <outline>
    <contour>
      <point x="778.178" y="659.035" type="qcurve" smooth="yes"/>
      <point x="778.178" y="618.752"/>
      <point x="739.506" y="618.752" type="qcurve" smooth="yes"/>
      <point x="697.611" y="618.752"/>
      <point x="697.611" y="659.035" type="qcurve" smooth="yes"/>
      <point x="697.611" y="699.318"/>
      <point x="739.506" y="699.318" type="qcurve" smooth="yes"/>
      <point x="778.178" y="699.318"/>
    </contour>
    <contour>
      <point x="658.939" y="737.99" type="qcurve" smooth="yes"/>
      <point x="658.939" y="698.513"/>
      <point x="620.268" y="698.513" type="qcurve" smooth="yes"/>
      <point x="578.373" y="698.513"/>
      <point x="578.373" y="737.99" type="qcurve" smooth="yes"/>
      <point x="578.373" y="779.079"/>
      <point x="620.268" y="779.079" type="qcurve" smooth="yes"/>
      <point x="658.939" y="779.079"/>
    </contour>
    <contour>
      <point x="857.938" y="539.797" type="qcurve" smooth="yes"/>
      <point x="857.938" y="498.708"/>
      <point x="816.85" y="498.708" type="qcurve" smooth="yes"/>
      <point x="777.372" y="498.708"/>
      <point x="777.372" y="539.797" type="qcurve" smooth="yes"/>
      <point x="777.372" y="579.274"/>
      <point x="818.461" y="579.274" type="qcurve" smooth="yes"/>
      <point x="857.938" y="579.274"/>
    </contour>
    <contour>
      <point x="886.942" y="399.611" type="qcurve" smooth="yes"/>
      <point x="886.942" y="359.328"/>
      <point x="848.271" y="359.328" type="qcurve" smooth="yes"/>
      <point x="806.376" y="359.328"/>
      <point x="806.376" y="399.611" type="qcurve" smooth="yes"/>
      <point x="806.376" y="439.895"/>
      <point x="848.271" y="439.895" type="qcurve" smooth="yes"/>
      <point x="886.942" y="439.895"/>
    </contour>
    <contour>
      <point x="518.754" y="767.8" type="qcurve" smooth="yes"/>
      <point x="518.754" y="726.711"/>
      <point x="478.471" y="726.711" type="qcurve" smooth="yes"/>
      <point x="438.188" y="726.711"/>
      <point x="438.188" y="767.8" type="qcurve" smooth="yes"/>
      <point x="438.188" y="807.277"/>
      <point x="478.471" y="807.277" type="qcurve" smooth="yes"/>
      <point x="518.754" y="807.277"/>
    </contour>
    <contour>
      <point x="379.374" y="737.99" type="qcurve" smooth="yes"/>
      <point x="379.374" y="698.513"/>
      <point x="338.285" y="698.513" type="qcurve" smooth="yes"/>
      <point x="298.808" y="698.513"/>
      <point x="298.808" y="737.99" type="qcurve" smooth="yes"/>
      <point x="298.808" y="779.079"/>
      <point x="338.285" y="779.079" type="qcurve" smooth="yes"/>
      <point x="379.374" y="779.079"/>
    </contour>
    <contour>
      <point x="857.938" y="259.426" type="qcurve" smooth="yes"/>
      <point x="857.938" y="219.948"/>
      <point x="816.85" y="219.948" type="qcurve" smooth="yes"/>
      <point x="777.372" y="219.948"/>
      <point x="777.372" y="259.426" type="qcurve" smooth="yes"/>
      <point x="777.372" y="300.515"/>
      <point x="816.85" y="300.515" type="qcurve" smooth="yes"/>
      <point x="857.938" y="300.515"/>
    </contour>
    <contour>
      <point x="260.136" y="659.035" type="qcurve" smooth="yes"/>
      <point x="260.136" y="618.752"/>
      <point x="219.853" y="618.752" type="qcurve" smooth="yes"/>
      <point x="179.569" y="618.752"/>
      <point x="179.569" y="656.618" type="qcurve" smooth="yes"/>
      <point x="179.569" y="699.318"/>
      <point x="219.853" y="699.318" type="qcurve" smooth="yes"/>
      <point x="260.136" y="699.318"/>
    </contour>
    <contour>
      <point x="778.178" y="138.576" type="qcurve" smooth="yes"/>
      <point x="778.178" y="99.0986"/>
      <point x="739.506" y="99.0986" type="qcurve" smooth="yes"/>
      <point x="697.611" y="99.0986"/>
      <point x="697.611" y="138.576" type="qcurve" smooth="yes"/>
      <point x="697.611" y="179.665"/>
      <point x="739.506" y="179.665" type="qcurve" smooth="yes"/>
      <point x="778.178" y="179.665"/>
    </contour>
    <contour>
      <point x="658.939" y="59.6211" type="qcurve" smooth="yes"/>
      <point x="658.939" y="20.9492"/>
      <point x="620.268" y="20.9492" type="qcurve" smooth="yes"/>
      <point x="578.373" y="20.9492"/>
      <point x="578.373" y="59.6211" type="qcurve" smooth="yes"/>
      <point x="578.373" y="101.516"/>
      <point x="620.268" y="101.516" type="qcurve" smooth="yes"/>
      <point x="658.939" y="101.516"/>
    </contour>
    <contour>
      <point x="180.375" y="539.797" type="qcurve" smooth="yes"/>
      <point x="180.375" y="498.708"/>
      <point x="141.703" y="498.708" type="qcurve" smooth="yes"/>
      <point x="99.8086" y="498.708"/>
      <point x="99.8086" y="539.797" type="qcurve" smooth="yes"/>
      <point x="99.8086" y="579.274"/>
      <point x="140.092" y="579.274" type="qcurve" smooth="yes"/>
      <point x="180.375" y="579.274"/>
    </contour>
    <contour>
      <point x="151.371" y="399.611" type="qcurve"/>
      <point x="152.177" y="359.328"/>
      <point x="112.699" y="359.328" type="qcurve" smooth="yes"/>
      <point x="70.8047" y="359.328"/>
      <point x="70.8047" y="399.611" type="qcurve" smooth="yes"/>
      <point x="70.8047" y="439.895"/>
      <point x="112.699" y="439.895" type="qcurve" smooth="yes"/>
      <point x="152.177" y="439.895"/>
    </contour>
    <contour>
      <point x="518.754" y="33.0342" type="qcurve" smooth="yes"/>
      <point x="518.754" y="-8.05469"/>
      <point x="478.471" y="-8.05469" type="qcurve" smooth="yes"/>
      <point x="438.188" y="-8.05469"/>
      <point x="438.188" y="33.0342" type="qcurve" smooth="yes"/>
      <point x="438.188" y="72.5117"/>
      <point x="478.471" y="72.5117" type="qcurve" smooth="yes"/>
      <point x="518.754" y="72.5117"/>
    </contour>
    <contour>
      <point x="180.375" y="259.426" type="qcurve" smooth="yes"/>
      <point x="180.375" y="219.948"/>
      <point x="140.092" y="219.948" type="qcurve" smooth="yes"/>
      <point x="99.8086" y="219.948"/>
      <point x="99.8086" y="259.426" type="qcurve" smooth="yes"/>
      <point x="99.8086" y="300.515"/>
      <point x="140.092" y="300.515" type="qcurve" smooth="yes"/>
      <point x="180.375" y="300.515"/>
    </contour>
    <contour>
      <point x="379.374" y="62.8438" type="qcurve" smooth="yes"/>
      <point x="379.374" y="20.9492"/>
      <point x="338.285" y="20.9492" type="qcurve" smooth="yes"/>
      <point x="298.808" y="20.9492"/>
      <point x="298.808" y="59.6211" type="qcurve" smooth="yes"/>
      <point x="298.808" y="101.516"/>
      <point x="338.285" y="101.516" type="qcurve" smooth="yes"/>
      <point x="379.374" y="101.516"/>
    </contour>
    <contour>
      <point x="260.136" y="138.576" type="qcurve" smooth="yes"/>
      <point x="260.136" y="99.0986"/>
      <point x="219.853" y="99.0986" type="qcurve" smooth="yes"/>
      <point x="179.569" y="99.0986"/>
      <point x="179.569" y="138.576" type="qcurve" smooth="yes"/>
      <point x="179.569" y="179.665"/>
      <point x="219.853" y="179.665" type="qcurve" smooth="yes"/>
      <point x="260.136" y="179.665"/>
    </contour>
  </outline>
</glyph>
<glyph name="uniE0D1" format="2">
  <advance width="917"/>
  <unicode hex="E0D1"/>
  <outline>
    <contour>
      <point x="757.178" y="659.035" type="qcurve" smooth="yes"/>
      <point x="757.178" y="618.752"/>
      <point x="718.506" y="618.752" type="qcurve" smooth="yes"/>
      <point x="676.611" y="618.752"/>
      <point x="676.611" y="659.035" type="qcurve" smooth="yes"/>
      <point x="676.611" y="699.318"/>
      <point x="718.506" y="699.318" type="qcurve" smooth="yes"/>
      <point x="757.178" y="699.318"/>
    </contour>
    <contour>
      <point x="637.939" y="737.99" type="qcurve" smooth="yes"/>
      <point x="637.939" y="698.513"/>
      <point x="599.268" y="698.513" type="qcurve" smooth="yes"/>
      <point x="557.373" y="698.513"/>
      <point x="557.373" y="737.99" type="qcurve" smooth="yes"/>
      <point x="557.373" y="779.079"/>
      <point x="599.268" y="779.079" type="qcurve" smooth="yes"/>
      <point x="637.939" y="779.079"/>
    </contour>
    <contour>
      <point x="836.938" y="539.797" type="qcurve" smooth="yes"/>
      <point x="836.938" y="498.708"/>
      <point x="795.85" y="498.708" type="qcurve" smooth="yes"/>
      <point x="756.372" y="498.708"/>
      <point x="756.372" y="539.797" type="qcurve" smooth="yes"/>
      <point x="756.372" y="579.274"/>
      <point x="797.461" y="579.274" type="qcurve" smooth="yes"/>
      <point x="836.938" y="579.274"/>
    </contour>
    <contour>
      <point x="865.942" y="399.611" type="qcurve" smooth="yes"/>
      <point x="865.942" y="359.328"/>
      <point x="827.271" y="359.328" type="qcurve" smooth="yes"/>
      <point x="785.376" y="359.328"/>
      <point x="785.376" y="399.611" type="qcurve" smooth="yes"/>
      <point x="785.376" y="439.895"/>
      <point x="827.271" y="439.895" type="qcurve" smooth="yes"/>
      <point x="865.942" y="439.895"/>
    </contour>
    <contour>
      <point x="497.754" y="767.8" type="qcurve" smooth="yes"/>
      <point x="497.754" y="726.711"/>
      <point x="457.471" y="726.711" type="qcurve" smooth="yes"/>
      <point x="417.188" y="726.711"/>
      <point x="417.188" y="767.8" type="qcurve" smooth="yes"/>
      <point x="417.188" y="807.277"/>
      <point x="457.471" y="807.277" type="qcurve" smooth="yes"/>
      <point x="497.754" y="807.277"/>
    </contour>
    <contour>
      <point x="358.374" y="737.99" type="qcurve" smooth="yes"/>
      <point x="358.374" y="698.513"/>
      <point x="317.285" y="698.513" type="qcurve" smooth="yes"/>
      <point x="277.808" y="698.513"/>
      <point x="277.808" y="737.99" type="qcurve" smooth="yes"/>
      <point x="277.808" y="779.079"/>
      <point x="317.285" y="779.079" type="qcurve" smooth="yes"/>
      <point x="358.374" y="779.079"/>
    </contour>
    <contour>
      <point x="836.938" y="259.426" type="qcurve" smooth="yes"/>
      <point x="836.938" y="219.948"/>
      <point x="795.85" y="219.948" type="qcurve" smooth="yes"/>
      <point x="756.372" y="219.948"/>
      <point x="756.372" y="259.426" type="qcurve" smooth="yes"/>
      <point x="756.372" y="300.515"/>
      <point x="795.85" y="300.515" type="qcurve" smooth="yes"/>
      <point x="836.938" y="300.515"/>
    </contour>
    <contour>
      <point x="239.136" y="659.035" type="qcurve" smooth="yes"/>
      <point x="239.136" y="618.752"/>
      <point x="198.853" y="618.752" type="qcurve" smooth="yes"/>
      <point x="158.569" y="618.752"/>
      <point x="158.569" y="656.618" type="qcurve" smooth="yes"/>
      <point x="158.569" y="699.318"/>
      <point x="198.853" y="699.318" type="qcurve" smooth="yes"/>
      <point x="239.136" y="699.318"/>
    </contour>
    <contour>
      <point x="757.178" y="138.576" type="qcurve" smooth="yes"/>
      <point x="757.178" y="99.0986"/>
      <point x="718.506" y="99.0986" type="qcurve" smooth="yes"/>
      <point x="676.611" y="99.0986"/>
      <point x="676.611" y="138.576" type="qcurve" smooth="yes"/>
      <point x="676.611" y="179.665"/>
      <point x="718.506" y="179.665" type="qcurve" smooth="yes"/>
      <point x="757.178" y="179.665"/>
    </contour>
    <contour>
      <point x="637.939" y="59.6211" type="qcurve" smooth="yes"/>
      <point x="637.939" y="20.9492"/>
      <point x="599.268" y="20.9492" type="qcurve" smooth="yes"/>
      <point x="557.373" y="20.9492"/>
      <point x="557.373" y="59.6211" type="qcurve" smooth="yes"/>
      <point x="557.373" y="101.516"/>
      <point x="599.268" y="101.516" type="qcurve" smooth="yes"/>
      <point x="637.939" y="101.516"/>
    </contour>
    <contour>
      <point x="159.375" y="539.797" type="qcurve" smooth="yes"/>
      <point x="159.375" y="498.708"/>
      <point x="120.703" y="498.708" type="qcurve" smooth="yes"/>
      <point x="78.8086" y="498.708"/>
      <point x="78.8086" y="539.797" type="qcurve" smooth="yes"/>
      <point x="78.8086" y="579.274"/>
      <point x="119.092" y="579.274" type="qcurve" smooth="yes"/>
      <point x="159.375" y="579.274"/>
    </contour>
    <contour>
      <point x="130.371" y="399.611" type="qcurve"/>
      <point x="131.177" y="359.328"/>
      <point x="91.6992" y="359.328" type="qcurve" smooth="yes"/>
      <point x="49.8047" y="359.328"/>
      <point x="49.8047" y="399.611" type="qcurve" smooth="yes"/>
      <point x="49.8047" y="439.895"/>
      <point x="91.6992" y="439.895" type="qcurve" smooth="yes"/>
      <point x="131.177" y="439.895"/>
    </contour>
    <contour>
      <point x="497.754" y="33.0342" type="qcurve" smooth="yes"/>
      <point x="497.754" y="-8.05469"/>
      <point x="457.471" y="-8.05469" type="qcurve" smooth="yes"/>
      <point x="417.188" y="-8.05469"/>
      <point x="417.188" y="33.0342" type="qcurve" smooth="yes"/>
      <point x="417.188" y="72.5117"/>
      <point x="457.471" y="72.5117" type="qcurve" smooth="yes"/>
      <point x="497.754" y="72.5117"/>
    </contour>
    <contour>
      <point x="159.375" y="259.426" type="qcurve" smooth="yes"/>
      <point x="159.375" y="219.948"/>
      <point x="119.092" y="219.948" type="qcurve" smooth="yes"/>
      <point x="78.8086" y="219.948"/>
      <point x="78.8086" y="259.426" type="qcurve" smooth="yes"/>
      <point x="78.8086" y="300.515"/>
      <point x="119.092" y="300.515" type="qcurve" smooth="yes"/>
      <point x="159.375" y="300.515"/>
    </contour>
    <contour>
      <point x="358.374" y="62.8438" type="qcurve" smooth="yes"/>
      <point x="358.374" y="20.9492"/>
      <point x="317.285" y="20.9492" type="qcurve" smooth="yes"/>
      <point x="277.808" y="20.9492"/>
      <point x="277.808" y="59.6211" type="qcurve" smooth="yes"/>
      <point x="277.808" y="101.516"/>
      <point x="317.285" y="101.516" type="qcurve" smooth="yes"/>
      <point x="358.374" y="101.516"/>
    </contour>
    <contour>
      <point x="239.136" y="138.576" type="qcurve" smooth="yes"/>
      <point x="239.136" y="99.0986"/>
      <point x="198.853" y="99.0986" type="qcurve" smooth="yes"/>
      <point x="158.569" y="99.0986"/>
      <point x="158.569" y="138.576" type="qcurve" smooth="yes"/>
      <point x="158.569" y="179.665"/>
      <point x="198.853" y="179.665" type="qcurve" smooth="yes"/>
      <point x="239.136" y="179.665"/>
    </contour>
    <contour>
      <point x="631.471" y="1048.58" type="line"/>
      <point x="564.471" y="979.581" type="line"/>
      <point x="349.471" y="1195.58" type="line"/>
      <point x="417.471" y="1262.58" type="line"/>
    </contour>
    <contour>
      <point x="525.471" y="942.581" type="line"/>
      <point x="457.471" y="873.581" type="line"/>
      <point x="242.471" y="1088.58" type="line"/>
      <point x="310.471" y="1157.58" type="line"/>
    </contour>
  </outline>
</glyph>
<glyph name="cha-mwangwego" format="2">
  <advance width="593"/>
  <unicode hex="16E02"/>
  <anchor x="297" y="835" name="top"/>
  <anchor x="214" y="-30" name="bottom"/>
  <outline>
    <contour>
      <point x="543" y="355" type="qcurve" smooth="yes"/>
      <point x="543" y="491"/>
      <point x="368.818" y="732.547"/>
      <point x="219" y="793" type="qcurve" smooth="yes"/>
      <point x="197.813" y="801.549"/>
      <point x="125" y="815"/>
      <point x="92" y="815" type="qcurve" smooth="yes"/>
      <point x="64" y="815"/>
      <point x="54" y="808" type="qcurve"/>
      <point x="53.9978" y="664.998"/>
      <point x="167" y="511" type="qcurve" smooth="yes"/>
      <point x="268.998" y="371.998"/>
      <point x="378" y="326" type="qcurve"/>
      <point x="378" y="171"/>
      <point x="261" y="158" type="qcurve" smooth="yes"/>
      <point x="212.462" y="152.607"/>
      <point x="50" y="149" type="qcurve"/>
      <point x="50" y="-1" type="line"/>
      <point x="317" y="-1" type="line" smooth="yes"/>
      <point x="398.236" y="-1"/>
      <point x="458" y="56" type="qcurve" smooth="yes"/>
      <point x="543" y="136"/>
    </contour>
    <contour>
      <point x="396" y="463" type="qcurve" smooth="yes"/>
      <point x="331.053" y="485.801"/>
      <point x="267" y="557" type="qcurve" smooth="yes"/>
      <point x="210.179" y="620.161"/>
      <point x="189" y="679" type="qcurve"/>
      <point x="186" y="685"/>
      <point x="188" y="689"/>
      <point x="191" y="689" type="qcurve" smooth="yes"/>
      <point x="206" y="689"/>
      <point x="337.782" y="573.842"/>
      <point x="377" y="520" type="qcurve" smooth="yes"/>
      <point x="396.783" y="492.84"/>
      <point x="407" y="461" type="qcurve"/>
      <point x="405" y="461"/>
      <point x="399.89" y="461.634"/>
    </contour>
  </outline>
</glyph>
<glyph name="da-mwangwego" format="2">
  <advance width="549"/>
  <unicode hex="16E03"/>
  <anchor x="230" y="835" name="top"/>
  <anchor x="197" y="-30" name="bottom"/>
  <outline>
    <contour>
      <point x="498" y="200" type="qcurve" smooth="yes"/>
      <point x="498" y="245"/>
      <point x="458" y="349"/>
      <point x="411" y="407" type="qcurve"/>
      <point x="458" y="465"/>
      <point x="498.335" y="570.001"/>
      <point x="498" y="615" type="qcurve" smooth="yes"/>
      <point x="497.374" y="699.049"/>
      <point x="427" y="755" type="qcurve" smooth="yes"/>
      <point x="351.533" y="815"/>
      <point x="317" y="815" type="qcurve" smooth="yes"/>
      <point x="50" y="815" type="line"/>
      <point x="50" y="665" type="line"/>
      <point x="208.934" y="669.714"/>
      <point x="256" y="659" type="qcurve" smooth="yes"/>
      <point x="331.935" y="641.714"/>
      <point x="333" y="565" type="qcurve" smooth="yes"/>
      <point x="333.957" y="496"/>
      <point x="256" y="476" type="qcurve" smooth="yes"/>
      <point x="210.888" y="464.427"/>
      <point x="50" y="465" type="qcurve"/>
      <point x="50" y="350" type="line"/>
      <point x="210" y="355"/>
      <point x="257" y="344" type="qcurve" smooth="yes"/>
      <point x="333.993" y="325"/>
      <point x="333" y="250" type="qcurve" smooth="yes"/>
      <point x="331.993" y="174"/>
      <point x="256" y="156" type="qcurve" smooth="yes"/>
      <point x="209" y="145"/>
      <point x="50" y="150" type="qcurve"/>
      <point x="50" y="0" type="line"/>
      <point x="317" y="0" type="line" smooth="yes"/>
      <point x="352" y="0"/>
      <point x="427" y="60" type="qcurve" smooth="yes"/>
      <point x="498" y="115"/>
    </contour>
  </outline>
</glyph>
<glyph name="fa-mwangwego" format="2">
  <advance width="514"/>
  <unicode hex="16E04"/>
  <outline>
    <contour>
      <point x="464" y="65" type="line" smooth="yes"/>
      <point x="464" y="22"/>
      <point x="436" y="-1"/>
      <point x="394" y="-1" type="qcurve" smooth="yes"/>
      <point x="53" y="-1" type="line"/>
      <point x="53" y="149" type="line"/>
      <point x="322" y="149" type="line"/>
      <point x="322" y="564" type="line" smooth="yes"/>
      <point x="322" y="613.185"/>
      <point x="310" y="637" type="qcurve" smooth="yes"/>
      <point x="294.365" y="668"/>
      <point x="255" y="668" type="qcurve" smooth="yes"/>
      <point x="215.632" y="668.003"/>
      <point x="200" y="637" type="qcurve" smooth="yes"/>
      <point x="188" y="613.187"/>
      <point x="188" y="564" type="qcurve" smooth="yes"/>
      <point x="188" y="472" type="line"/>
      <point x="50" y="472" type="line"/>
      <point x="50" y="642" type="line" smooth="yes"/>
      <point x="50" y="719"/>
      <point x="179" y="815"/>
      <point x="255" y="815" type="qcurve" smooth="yes"/>
      <point x="331" y="815"/>
      <point x="464" y="719"/>
      <point x="464" y="642" type="qcurve" smooth="yes"/>
    </contour>
  </outline>
</glyph>
<glyph name="ha-mwangwego" format="2">
  <advance width="618"/>
  <unicode hex="16E07"/>
  <anchor x="433" y="836" name="top"/>
  <anchor x="252" y="-30" name="bottom"/>
  <outline>
    <contour>
      <point x="483" y="82" type="qcurve"/>
      <point x="457" y="513" type="line"/>
      <point x="505.755" y="557.162"/>
      <point x="523" y="583" type="qcurve" smooth="yes"/>
      <point x="567.861" y="650.163"/>
      <point x="568" y="740" type="qcurve" smooth="yes"/>
      <point x="568.048" y="779.856"/>
      <point x="518" y="800" type="qcurve" smooth="yes"/>
      <point x="480.942" y="814.98"/>
      <point x="433" y="815" type="qcurve" smooth="yes"/>
      <point x="374.07" y="814.991"/>
      <point x="326" y="790" type="qcurve" smooth="yes"/>
      <point x="268.025" y="759.866"/>
      <point x="268" y="707" type="qcurve" smooth="yes"/>
      <point x="267.966" y="628.002"/>
      <point x="280" y="550" type="qcurve" smooth="yes"/>
      <point x="284.011" y="524.002"/>
      <point x="292" y="489" type="qcurve"/>
      <point x="282" y="474"/>
      <point x="247" y="430" type="qcurve" smooth="yes"/>
      <point x="206" y="379"/>
      <point x="154" y="318" type="qcurve" smooth="yes"/>
      <point x="88" y="241"/>
      <point x="74" y="215" type="qcurve" smooth="yes"/>
      <point x="50" y="170"/>
      <point x="50" y="97" type="qcurve" smooth="yes"/>
      <point x="50" y="35"/>
      <point x="65" y="14" type="qcurve" smooth="yes"/>
      <point x="76" y="-2"/>
      <point x="109" y="-2" type="qcurve"/>
      <point x="123" y="-1"/>
      <point x="154" y="1"/>
      <point x="172" y="1" type="qcurve"/>
      <point x="174" y="44"/>
      <point x="176" y="69" type="qcurve" smooth="yes"/>
      <point x="184" y="146"/>
      <point x="205" y="192" type="qcurve" smooth="yes"/>
      <point x="222" y="229"/>
      <point x="271" y="291" type="qcurve" smooth="yes"/>
      <point x="287" y="311"/>
      <point x="316" y="345" type="qcurve"/>
      <point x="322" y="149" type="line"/>
      <point x="252" y="149" type="line"/>
      <point x="252" y="-1" type="line"/>
      <point x="264" y="-1" type="line" smooth="yes"/>
      <point x="284" y="-1"/>
      <point x="322" y="-2"/>
      <point x="341" y="-2" type="qcurve" smooth="yes"/>
      <point x="413" y="-2"/>
      <point x="443" y="12" type="qcurve" smooth="yes"/>
      <point x="483" y="31"/>
    </contour>
    <contour>
      <point x="453" y="672" type="qcurve" smooth="yes"/>
      <point x="452.821" y="658.154"/>
      <point x="445" y="645" type="qcurve" smooth="yes"/>
      <point x="439.739" y="636.15"/>
      <point x="400" y="593" type="qcurve"/>
      <point x="380" y="632"/>
      <point x="380" y="666" type="qcurve" smooth="yes"/>
      <point x="380" y="693"/>
      <point x="403" y="724"/>
      <point x="422" y="724" type="qcurve" smooth="yes"/>
      <point x="437" y="724"/>
      <point x="451" y="701"/>
      <point x="453.079" y="679"/>
    </contour>
  </outline>
</glyph>
<glyph name="zha-mwangwego" format="2">
  <advance width="540"/>
  <unicode hex="16E09"/>
  <outline>
    <contour>
      <point x="337" y="187" type="line" smooth="yes"/>
      <point x="337" y="171"/>
      <point x="299" y="152"/>
      <point x="270" y="152" type="qcurve" smooth="yes"/>
      <point x="241" y="152"/>
      <point x="197" y="171"/>
      <point x="197" y="187" type="qcurve" smooth="yes"/>
      <point x="197" y="282" type="line"/>
      <point x="337" y="282" type="line"/>
    </contour>
    <contour>
      <point x="490" y="136" type="qcurve" smooth="yes"/>
      <point x="490" y="440" type="line"/>
      <point x="197" y="440" type="line"/>
      <point x="197" y="642" type="line" smooth="yes"/>
      <point x="197" y="652.097"/>
      <point x="199" y="657" type="qcurve" smooth="yes"/>
      <point x="204.765" y="671.059"/>
      <point x="218" y="671" type="qcurve" smooth="yes"/>
      <point x="227" y="670.96"/>
      <point x="249" y="657"/>
      <point x="261" y="642" type="qcurve"/>
      <point x="261" y="646"/>
      <point x="263" y="672"/>
      <point x="263" y="683" type="qcurve" smooth="yes"/>
      <point x="263" y="715"/>
      <point x="254.881" y="759.898"/>
      <point x="242" y="775" type="qcurve" smooth="yes"/>
      <point x="225.881" y="793.899"/>
      <point x="174" y="815"/>
      <point x="147" y="815" type="qcurve" smooth="yes"/>
      <point x="107" y="815"/>
      <point x="50" y="773"/>
      <point x="50" y="735" type="qcurve" smooth="yes"/>
      <point x="50" y="136" type="line" smooth="yes"/>
      <point x="50" y="67"/>
      <point x="166" y="-7"/>
      <point x="270" y="-7" type="qcurve" smooth="yes"/>
      <point x="369" y="-7"/>
      <point x="426" y="27" type="qcurve" smooth="yes"/>
      <point x="490" y="65"/>
    </contour>
  </outline>
</glyph>
<glyph name="ka-mwangwego" format="2">
  <advance width="538"/>
  <unicode hex="16E0A"/>
  <outline>
    <contour>
      <point x="212" y="-4" type="qcurve"/>
      <point x="206.162" y="35.1614"/>
      <point x="203.228" y="87.697"/>
      <point x="202.491" y="132.853" type="curve" smooth="yes"/>
      <point x="201.659" y="183.761"/>
      <point x="204.773" y="232.728"/>
      <point x="216" y="279" type="curve" smooth="yes"/>
      <point x="223.083" y="308.193"/>
      <point x="266" y="337" type="qcurve" smooth="yes"/>
      <point x="289.571" y="352.822"/>
      <point x="352.449" y="358.569" type="qcurve" smooth="yes"/>
      <point x="394.823" y="362.443"/>
      <point x="481.718" y="350.173"/>
      <point x="487" y="389"/>
      <point x="487" y="442" type="qcurve" smooth="yes"/>
      <point x="487" y="537"/>
      <point x="487.246" y="589.003"/>
      <point x="487" y="601" type="qcurve" smooth="yes"/>
      <point x="485.155" y="690.91"/>
      <point x="421" y="752" type="qcurve" smooth="yes"/>
      <point x="365.859" y="804.506"/>
      <point x="317" y="811" type="qcurve" smooth="yes"/>
      <point x="304.941" y="812.603"/>
      <point x="273" y="815"/>
      <point x="253" y="815" type="qcurve" smooth="yes"/>
      <point x="240" y="815"/>
      <point x="214.078" y="813.669"/>
      <point x="202" y="811" type="qcurve" smooth="yes"/>
      <point x="167.314" y="803.335"/>
      <point x="126" y="774" type="qcurve" smooth="yes"/>
      <point x="94.9265" y="751.937"/>
      <point x="73" y="727" type="qcurve" smooth="yes"/>
      <point x="62.6854" y="715.269"/>
      <point x="52" y="664"/>
      <point x="52" y="611" type="qcurve" smooth="yes"/>
      <point x="52" y="603"/>
      <point x="53" y="569"/>
      <point x="54" y="554" type="qcurve"/>
      <point x="62.7732" y="564.142"/>
      <point x="81" y="593" type="qcurve" smooth="yes"/>
      <point x="107.707" y="635.284"/>
      <point x="125" y="643" type="qcurve" smooth="yes"/>
      <point x="158.937" y="658.143"/>
      <point x="212" y="670"/>
      <point x="237" y="670" type="qcurve" smooth="yes"/>
      <point x="276.001" y="670.001"/>
      <point x="303" y="654" type="qcurve" smooth="yes"/>
      <point x="324.91" y="641.002"/>
      <point x="325" y="626" type="qcurve" smooth="yes"/>
      <point x="326" y="460" type="line" smooth="yes"/>
      <point x="326.137" y="437.303"/>
      <point x="294" y="439" type="qcurve" smooth="yes"/>
      <point x="252.113" y="441.215"/>
      <point x="209" y="445" type="qcurve" smooth="yes"/>
      <point x="154.699" y="449.768"/>
      <point x="105" y="416" type="qcurve" smooth="yes"/>
      <point x="50" y="378.156"/>
      <point x="50" y="331" type="qcurve" smooth="yes"/>
      <point x="50" y="77" type="line" smooth="yes"/>
      <point x="50" y="23"/>
      <point x="94" y="7" type="qcurve" smooth="yes"/>
      <point x="124" y="-4"/>
    </contour>
  </outline>
</glyph>
<glyph name="la-mwangwego" format="2">
  <advance width="471"/>
  <unicode hex="16E0B"/>
  <anchor x="310" y="844" name="top"/>
  <anchor x="252" y="-30" name="bottom"/>
  <outline>
    <contour>
      <point x="338" y="-5" type="qcurve"/>
      <point x="326" y="10"/>
      <point x="320" y="27"/>
      <point x="319" y="45" type="curve"/>
      <point x="356" y="445" type="line"/>
      <point x="215" y="448" type="line"/>
      <point x="317" y="679" type="line" smooth="yes"/>
      <point x="324" y="694"/>
      <point x="341" y="694" type="qcurve" smooth="yes"/>
      <point x="376" y="694"/>
      <point x="419" y="643" type="qcurve"/>
      <point x="420" y="648"/>
      <point x="421" y="661"/>
      <point x="421" y="681" type="qcurve" smooth="yes"/>
      <point x="421" y="709"/>
      <point x="410" y="772"/>
      <point x="398" y="786" type="qcurve" smooth="yes"/>
      <point x="382" y="805"/>
      <point x="336" y="824"/>
      <point x="310" y="824" type="qcurve" smooth="yes"/>
      <point x="272" y="824"/>
      <point x="206" y="781"/>
      <point x="188" y="745" type="qcurve" smooth="yes"/>
      <point x="161" y="689"/>
      <point x="144" y="656" type="qcurve"/>
      <point x="99" y="557"/>
      <point x="63" y="422"/>
      <point x="58" y="390" type="qcurve" smooth="yes"/>
      <point x="50" y="343"/>
      <point x="50" y="289" type="qcurve"/>
      <point x="197" y="289" type="line"/>
      <point x="179" y="68" type="line"/>
      <point x="179" y="26"/>
      <point x="188" y="2"/>
      <point x="232" y="-4"/>
      <point x="301" y="-5"/>
    </contour>
  </outline>
</glyph>
<glyph name="na-mwangwego" format="2">
  <advance width="673"/>
  <unicode hex="16E0D"/>
  <outline>
    <contour>
      <point x="557" y="134" type="line" smooth="yes"/>
      <point x="557" y="65"/>
      <point x="434" y="-7"/>
      <point x="336" y="-7" type="qcurve" smooth="yes"/>
      <point x="232" y="-7"/>
      <point x="117.136" y="65"/>
      <point x="117" y="134" type="qcurve" smooth="yes"/>
      <point x="116" y="641" type="line" smooth="yes"/>
      <point x="115.976" y="653"/>
      <point x="105" y="670"/>
      <point x="95" y="670" type="qcurve" smooth="yes"/>
      <point x="86" y="670"/>
      <point x="66" y="658"/>
      <point x="52" y="641" type="qcurve"/>
      <point x="51" y="646"/>
      <point x="50" y="660"/>
      <point x="50" y="681" type="qcurve" smooth="yes"/>
      <point x="50" y="710"/>
      <point x="58.8003" y="760.174"/>
      <point x="71" y="774" type="qcurve" smooth="yes"/>
      <point x="88.8024" y="794.176"/>
      <point x="141" y="815"/>
      <point x="169" y="815" type="qcurve" smooth="yes"/>
      <point x="210" y="815"/>
      <point x="265" y="775"/>
      <point x="265" y="737" type="qcurve" smooth="yes"/>
      <point x="265" y="187" type="line" smooth="yes"/>
      <point x="265" y="171"/>
      <point x="309" y="152"/>
      <point x="338" y="152" type="qcurve" smooth="yes"/>
      <point x="367" y="152"/>
      <point x="405" y="171"/>
      <point x="405" y="187" type="qcurve" smooth="yes"/>
      <point x="405" y="730" type="line" smooth="yes"/>
      <point x="405" y="769"/>
      <point x="467" y="815"/>
      <point x="509" y="815" type="qcurve" smooth="yes"/>
      <point x="537" y="815"/>
      <point x="584" y="796"/>
      <point x="600" y="777" type="qcurve" smooth="yes"/>
      <point x="613" y="762"/>
      <point x="623" y="706"/>
      <point x="623" y="672" type="qcurve" smooth="yes"/>
      <point x="623" y="658"/>
      <point x="622" y="640"/>
      <point x="621" y="634" type="qcurve"/>
      <point x="607" y="651"/>
      <point x="587" y="663"/>
      <point x="578" y="663" type="qcurve" smooth="yes"/>
      <point x="568" y="663"/>
      <point x="557" y="646"/>
      <point x="557" y="637" type="qcurve" smooth="yes"/>
    </contour>
  </outline>
</glyph>
<glyph name="nya-mwangwego" format="2">
  <advance width="624"/>
  <unicode hex="16E0E"/>
  <anchor x="186" y="-30" name="bottom"/>
  <anchor x="313" y="815" name="top"/>
  <outline>
    <contour>
      <point x="270" y="-2" type="qcurve"/>
      <point x="264" y="2"/>
      <point x="242" y="17"/>
      <point x="228" y="32" type="qcurve" smooth="yes"/>
      <point x="224" y="36"/>
      <point x="225" y="45" type="qcurve"/>
      <point x="225.435" y="70.8375"/>
      <point x="251" y="140" type="qcurve" smooth="yes"/>
      <point x="296.517" y="263.141"/>
      <point x="422.838" y="551" type="qcurve" smooth="yes"/>
      <point x="461.517" y="639.142"/>
      <point x="465.838" y="653" type="qcurve"/>
      <point x="479.838" y="697"/>
      <point x="508.838" y="697" type="qcurve" smooth="yes"/>
      <point x="536.838" y="697"/>
      <point x="571.838" y="656" type="qcurve"/>
      <point x="572.838" y="661"/>
      <point x="573.838" y="675"/>
      <point x="573.838" y="686" type="qcurve" smooth="yes"/>
      <point x="573.838" y="711"/>
      <point x="564.838" y="755"/>
      <point x="552.838" y="771" type="qcurve" smooth="yes"/>
      <point x="531.838" y="799"/>
      <point x="491.838" y="815"/>
      <point x="457.838" y="815" type="qcurve" smooth="yes"/>
      <point x="411.838" y="815"/>
      <point x="340.838" y="740"/>
      <point x="340.838" y="701" type="qcurve" smooth="yes"/>
      <point x="340.838" y="687"/>
      <point x="352.838" y="667" type="qcurve" smooth="yes"/>
      <point x="376.838" y="627"/>
      <point x="376.838" y="608" type="qcurve" smooth="yes"/>
      <point x="376.838" y="590"/>
      <point x="361.838" y="552"/>
      <point x="337.838" y="509" type="qcurve"/>
      <point x="328.093" y="506.536"/>
      <point x="318.349" y="505.718"/>
      <point x="308.604" y="506.546" type="curve" smooth="yes"/>
      <point x="297.349" y="507.502"/>
      <point x="286.093" y="511.32"/>
      <point x="274.838" y="515" type="curve"/>
      <point x="240.295" y="555.788"/>
      <point x="208.689" y="595.108" type="qcurve" smooth="yes"/>
      <point x="173.58" y="638.787"/>
      <point x="173.689" y="655.108" type="qcurve" smooth="yes"/>
      <point x="173.976" y="699.107"/>
      <point x="208.689" y="699.108" type="qcurve" smooth="yes"/>
      <point x="224.689" y="699.108"/>
      <point x="263.689" y="676.108"/>
      <point x="279.689" y="658.108" type="qcurve"/>
      <point x="280.689" y="663.108"/>
      <point x="281.689" y="677.108"/>
      <point x="281.689" y="688.108" type="qcurve" smooth="yes"/>
      <point x="281.689" y="713.108"/>
      <point x="272.689" y="757.108"/>
      <point x="260.689" y="773.108" type="qcurve" smooth="yes"/>
      <point x="239.689" y="801.108"/>
      <point x="205.689" y="815.108"/>
      <point x="172.689" y="815.108" type="qcurve" smooth="yes"/>
      <point x="126.689" y="815.108"/>
      <point x="50.6893" y="743.108"/>
      <point x="50.6893" y="705.108" type="qcurve" smooth="yes"/>
      <point x="50.6893" y="666.108"/>
      <point x="78.6893" y="624.108" type="qcurve"/>
      <point x="151.838" y="534"/>
      <point x="223.838" y="446" type="qcurve"/>
      <point x="223.838" y="429"/>
      <point x="148.838" y="255"/>
      <point x="78" y="90"/>
      <point x="78" y="74" type="qcurve" smooth="yes"/>
      <point x="78" y="51"/>
      <point x="112" y="2"/>
      <point x="140" y="-2"/>
      <point x="169" y="-2" type="qcurve" smooth="yes"/>
      <point x="206" y="-2" type="line" smooth="yes"/>
      <point x="227" y="-2"/>
      <point x="263" y="-2"/>
    </contour>
  </outline>
</glyph>
<glyph name="pa-mwangwego" format="2">
  <advance width="627"/>
  <unicode hex="16E0F"/>
  <anchor x="280" y="835" name="top"/>
  <anchor x="280" y="-30" name="bottom"/>
  <outline>
    <contour>
      <point x="511" y="79" type="line" smooth="yes"/>
      <point x="511" y="26"/>
      <point x="473" y="-2"/>
      <point x="406" y="-2" type="qcurve" smooth="yes"/>
      <point x="394" y="-2" type="line" smooth="yes"/>
      <point x="374" y="-2"/>
      <point x="329" y="-1"/>
      <point x="305" y="-1" type="qcurve" smooth="yes"/>
      <point x="290" y="-1" type="line" smooth="yes"/>
      <point x="162" y="-1"/>
      <point x="50" y="79"/>
      <point x="50" y="167" type="qcurve" smooth="yes"/>
      <point x="50" y="232"/>
      <point x="145" y="323"/>
      <point x="212" y="323" type="qcurve" smooth="yes"/>
      <point x="263" y="323"/>
      <point x="332" y="286"/>
      <point x="360" y="246" type="qcurve"/>
      <point x="359" y="730" type="line" smooth="yes"/>
      <point x="359" y="769"/>
      <point x="420" y="815"/>
      <point x="463" y="815" type="qcurve" smooth="yes"/>
      <point x="490" y="815"/>
      <point x="537" y="796"/>
      <point x="554" y="777" type="qcurve" smooth="yes"/>
      <point x="566" y="763"/>
      <point x="577" y="700"/>
      <point x="577" y="672" type="qcurve" smooth="yes"/>
      <point x="577" y="652"/>
      <point x="576" y="639"/>
      <point x="575" y="634" type="qcurve"/>
      <point x="561" y="651"/>
      <point x="541" y="663"/>
      <point x="532" y="663" type="qcurve" smooth="yes"/>
      <point x="522" y="663"/>
      <point x="511" y="646"/>
      <point x="511" y="634" type="qcurve" smooth="yes"/>
    </contour>
    <contour>
      <point x="324" y="144" type="line"/>
      <point x="304" y="187"/>
      <point x="291" y="202" type="qcurve" smooth="yes"/>
      <point x="269" y="227"/>
      <point x="236" y="227" type="qcurve" smooth="yes"/>
      <point x="209" y="227"/>
      <point x="167" y="207"/>
      <point x="167" y="185" type="qcurve" smooth="yes"/>
      <point x="167" y="144"/>
      <point x="230" y="144" type="qcurve" smooth="yes"/>
    </contour>
  </outline>
</glyph>
<glyph name="ra-mwangwego" format="2">
  <advance width="540"/>
  <unicode hex="16E10"/>
  <anchor x="253" y="835" name="top"/>
  <anchor x="253" y="-30" name="bottom"/>
  <outline>
    <contour>
      <point x="275" y="148" type="line"/>
      <point x="326" y="148" type="line"/>
      <point x="326" y="259" type="line" smooth="yes"/>
      <point x="326" y="276"/>
      <point x="290" y="290"/>
      <point x="266" y="290" type="qcurve" smooth="yes"/>
      <point x="245" y="290"/>
      <point x="213" y="274"/>
      <point x="213" y="258" type="qcurve" smooth="yes"/>
      <point x="212" y="-2" type="line"/>
      <point x="124" y="-2"/>
      <point x="94" y="9" type="qcurve" smooth="yes"/>
      <point x="50" y="25"/>
      <point x="50" y="79" type="qcurve" smooth="yes"/>
      <point x="50" y="320" type="line" smooth="yes"/>
      <point x="50" y="372"/>
      <point x="105" y="405" type="qcurve" smooth="yes"/>
      <point x="153" y="434"/>
      <point x="209" y="434" type="qcurve" smooth="yes"/>
      <point x="253" y="434"/>
      <point x="294" y="422" type="qcurve" smooth="yes"/>
      <point x="307" y="418"/>
      <point x="326" y="410" type="qcurve"/>
      <point x="325" y="626" type="line" smooth="yes"/>
      <point x="324.931" y="641.002"/>
      <point x="303" y="654" type="qcurve" smooth="yes"/>
      <point x="276.001" y="670.001"/>
      <point x="237" y="670" type="qcurve" smooth="yes"/>
      <point x="212" y="670"/>
      <point x="158.937" y="658.143"/>
      <point x="125" y="643" type="qcurve" smooth="yes"/>
      <point x="107.707" y="635.284"/>
      <point x="81" y="593" type="qcurve" smooth="yes"/>
      <point x="62.7732" y="564.142"/>
      <point x="54" y="554" type="qcurve"/>
      <point x="53" y="569"/>
      <point x="52" y="603"/>
      <point x="52" y="611" type="qcurve" smooth="yes"/>
      <point x="52" y="664"/>
      <point x="63" y="715"/>
      <point x="73" y="727" type="qcurve"/>
      <point x="94.9803" y="752.028"/>
      <point x="126" y="774" type="qcurve" smooth="yes"/>
      <point x="166.98" y="803.028"/>
      <point x="202" y="811" type="qcurve"/>
      <point x="214" y="813"/>
      <point x="240" y="815"/>
      <point x="253" y="815" type="qcurve" smooth="yes"/>
      <point x="273" y="815"/>
      <point x="305" y="813"/>
      <point x="317" y="811" type="qcurve"/>
      <point x="363.927" y="810.929"/>
      <point x="421" y="752" type="qcurve" smooth="yes"/>
      <point x="486.927" y="683.929"/>
      <point x="487" y="601" type="qcurve"/>
      <point x="489" y="583"/>
      <point x="489" y="350"/>
      <point x="490" y="273" type="qcurve" smooth="yes"/>
      <point x="490" y="173"/>
      <point x="490" y="115"/>
      <point x="490" y="81" type="qcurve" smooth="yes"/>
      <point x="490" y="29"/>
      <point x="455" y="11" type="qcurve" smooth="yes"/>
      <point x="428" y="-3"/>
      <point x="361" y="-3" type="qcurve" smooth="yes"/>
      <point x="343" y="-3"/>
      <point x="306" y="-2"/>
      <point x="275" y="-2" type="qcurve"/>
    </contour>
  </outline>
</glyph>
<glyph name="sha-mwangwego" format="2">
  <advance width="518"/>
  <unicode hex="16E12"/>
  <anchor x="323" y="835" name="top"/>
  <anchor x="282" y="-30" name="bottom"/>
  <outline>
    <contour>
      <point x="363" y="-4" type="qcurve"/>
      <point x="351" y="11"/>
      <point x="345" y="28"/>
      <point x="344" y="46" type="curve"/>
      <point x="344" y="236" type="line"/>
      <point x="395.936" y="253.055"/>
      <point x="428" y="290" type="qcurve" smooth="yes"/>
      <point x="467.971" y="336.055"/>
      <point x="468" y="407" type="qcurve" smooth="yes"/>
      <point x="468.035" y="491"/>
      <point x="375" y="601"/>
      <point x="290" y="611" type="qcurve"/>
      <point x="305.209" y="644.273"/>
      <point x="355" y="659" type="qcurve" smooth="yes"/>
      <point x="386.224" y="668.236"/>
      <point x="432" y="668" type="qcurve" smooth="yes"/>
      <point x="440" y="667.959"/>
      <point x="450" y="667"/>
      <point x="453" y="667" type="qcurve"/>
      <point x="452" y="815" type="line"/>
      <point x="416" y="815"/>
      <point x="378.001" y="812.991"/>
      <point x="342" y="809" type="curve" smooth="yes"/>
      <point x="253.767" y="799.219"/>
      <point x="156" y="699" type="qcurve" smooth="yes"/>
      <point x="45.0214" y="585.239"/>
      <point x="51" y="442" type="qcurve" smooth="yes"/>
      <point x="54.2552" y="364.01"/>
      <point x="130" y="247"/>
      <point x="208" y="225" type="qcurve"/>
      <point x="208" y="36" type="line" smooth="yes"/>
      <point x="208" y="25"/>
      <point x="223" y="1"/>
      <point x="257" y="-3"/>
      <point x="326" y="-4"/>
    </contour>
    <contour>
      <point x="357" y="421" type="qcurve" smooth="yes"/>
      <point x="357" y="380"/>
      <point x="303" y="322"/>
      <point x="264" y="322" type="qcurve" smooth="yes"/>
      <point x="223" y="322"/>
      <point x="165" y="376"/>
      <point x="165" y="415" type="qcurve" smooth="yes"/>
      <point x="165" y="456"/>
      <point x="219" y="514"/>
      <point x="258" y="514" type="qcurve" smooth="yes"/>
      <point x="299" y="514"/>
      <point x="357" y="460"/>
    </contour>
  </outline>
</glyph>
<glyph name="ta-mwangwego" format="2">
  <advance width="360"/>
  <unicode hex="16E13"/>
  <anchor x="180" y="836" name="top"/>
  <anchor x="180" y="-30" name="bottom"/>
  <outline>
    <contour>
      <point x="264" y="-2" type="line"/>
      <point x="257" y="-2"/>
      <point x="221" y="-2"/>
      <point x="200" y="-2" type="qcurve" smooth="yes"/>
      <point x="163" y="-2" type="line" smooth="yes"/>
      <point x="134" y="-2"/>
      <point x="106" y="2"/>
      <point x="72" y="51"/>
      <point x="72" y="74" type="qcurve" smooth="yes"/>
      <point x="72" y="90"/>
      <point x="160" y="390"/>
      <point x="160" y="412" type="qcurve" smooth="yes"/>
      <point x="160" y="443"/>
      <point x="135" y="486" type="qcurve"/>
      <point x="114" y="520"/>
      <point x="102" y="540" type="qcurve" smooth="yes"/>
      <point x="73" y="590"/>
      <point x="68" y="601" type="qcurve" smooth="yes"/>
      <point x="50" y="642"/>
      <point x="50" y="688" type="qcurve" smooth="yes"/>
      <point x="50" y="741"/>
      <point x="97" y="781" type="qcurve" smooth="yes"/>
      <point x="138" y="816"/>
      <point x="172" y="816" type="qcurve" smooth="yes"/>
      <point x="213" y="816"/>
      <point x="241" y="805" type="qcurve" smooth="yes"/>
      <point x="281" y="789"/>
      <point x="310" y="748" type="qcurve"/>
      <point x="309" y="650" type="line"/>
      <point x="298" y="656"/>
      <point x="284" y="661" type="qcurve"/>
      <point x="255" y="673"/>
      <point x="238" y="673" type="qcurve" smooth="yes"/>
      <point x="210" y="673"/>
      <point x="210" y="644" type="qcurve" smooth="yes"/>
      <point x="210" y="625"/>
      <point x="308" y="455"/>
      <point x="308" y="414" type="qcurve" smooth="yes"/>
      <point x="308" y="364"/>
      <point x="292" y="319" type="qcurve"/>
      <point x="272" y="271"/>
      <point x="258" y="232" type="qcurve" smooth="yes"/>
      <point x="239" y="181"/>
      <point x="216" y="87"/>
      <point x="216" y="59" type="qcurve" smooth="yes"/>
      <point x="216" y="40"/>
      <point x="222" y="32" type="qcurve"/>
      <point x="237" y="18"/>
      <point x="255" y="4" type="qcurve"/>
      <point x="258" y="2"/>
      <point x="264" y="-2" type="qcurve"/>
    </contour>
  </outline>
</glyph>
<glyph name="va-mwangwego" format="2">
  <advance width="540"/>
  <unicode hex="16E16"/>
  <anchor x="271" y="835" name="top"/>
  <anchor x="271" y="-30" name="bottom"/>
  <anchor x="271" y="835" name="pewa"/>
  <outline>
    <contour>
      <point x="490" y="86" type="qcurve" smooth="yes"/>
      <point x="490" y="624" type="line" smooth="yes"/>
      <point x="490" y="718"/>
      <point x="369" y="815"/>
      <point x="271" y="815" type="qcurve" smooth="yes"/>
      <point x="157" y="815"/>
      <point x="50.8253" y="718"/>
      <point x="51" y="624" type="qcurve" smooth="yes"/>
      <point x="52" y="86" type="line" smooth="yes"/>
      <point x="52.1022" y="31"/>
      <point x="77" y="11" type="qcurve" smooth="yes"/>
      <point x="96" y="-4"/>
      <point x="141" y="-4" type="qcurve" smooth="yes"/>
      <point x="155" y="-4"/>
      <point x="185" y="-3"/>
      <point x="201" y="-3" type="qcurve"/>
      <point x="201" y="286" type="line"/>
      <point x="341" y="286" type="line"/>
      <point x="341" y="147" type="line"/>
      <point x="271" y="147" type="line"/>
      <point x="271" y="-3" type="line"/>
      <point x="293" y="-3"/>
      <point x="343" y="-4"/>
      <point x="378" y="-4" type="qcurve" smooth="yes"/>
      <point x="437" y="-4"/>
      <point x="460" y="11" type="qcurve" smooth="yes"/>
      <point x="490" y="31"/>
    </contour>
    <contour>
      <point x="340" y="601" type="qcurve" smooth="yes"/>
      <point x="340" y="492" type="line" smooth="yes"/>
      <point x="340" y="477"/>
      <point x="299" y="458"/>
      <point x="271" y="458" type="qcurve" smooth="yes"/>
      <point x="243" y="458"/>
      <point x="203" y="477"/>
      <point x="203" y="492" type="qcurve" smooth="yes"/>
      <point x="203" y="601" type="line" smooth="yes"/>
      <point x="203" y="628"/>
      <point x="243" y="652"/>
      <point x="271" y="652" type="qcurve" smooth="yes"/>
      <point x="297" y="652"/>
      <point x="340" y="621"/>
    </contour>
  </outline>
</glyph>
<glyph name="wa-mwangwego" format="2">
  <advance width="549"/>
  <unicode hex="16E17"/>
  <anchor x="318" y="835" name="top"/>
  <anchor x="351" y="-30" name="bottom"/>
  <outline>
    <contour>
      <point x="51" y="200" type="qcurve" smooth="yes"/>
      <point x="52" y="116"/>
      <point x="122" y="60" type="qcurve" smooth="yes"/>
      <point x="197" y="0"/>
      <point x="232" y="0" type="qcurve" smooth="yes"/>
      <point x="499" y="0" type="line"/>
      <point x="499" y="150" type="line"/>
      <point x="340" y="145"/>
      <point x="293" y="156" type="qcurve" smooth="yes"/>
      <point x="217" y="174"/>
      <point x="216" y="250" type="qcurve" smooth="yes"/>
      <point x="215" y="325"/>
      <point x="292" y="344" type="qcurve" smooth="yes"/>
      <point x="339" y="355"/>
      <point x="499" y="350" type="qcurve"/>
      <point x="499" y="465" type="line"/>
      <point x="338.112" y="464.427"/>
      <point x="293" y="476" type="qcurve" smooth="yes"/>
      <point x="215.029" y="496.002"/>
      <point x="216" y="565" type="qcurve" smooth="yes"/>
      <point x="217.08" y="641.715"/>
      <point x="293" y="659" type="qcurve" smooth="yes"/>
      <point x="340.066" y="669.716"/>
      <point x="499" y="665" type="qcurve"/>
      <point x="499" y="815" type="line"/>
      <point x="232" y="815" type="line" smooth="yes"/>
      <point x="198.216" y="815"/>
      <point x="122" y="755" type="qcurve" smooth="yes"/>
      <point x="51.7911" y="699.729"/>
      <point x="51" y="616" type="qcurve" smooth="yes"/>
      <point x="50.5748" y="571.002"/>
      <point x="91" y="465"/>
      <point x="138" y="407" type="qcurve"/>
      <point x="91" y="349"/>
      <point x="51" y="245"/>
    </contour>
  </outline>
</glyph>
<glyph name="ya-mwangwego" format="2">
  <advance width="712"/>
  <unicode hex="16E18"/>
  <outline>
    <contour>
      <point x="576" y="348" type="qcurve" smooth="yes"/>
      <point x="575.743" y="215.159"/>
      <point x="508" y="111" type="qcurve" smooth="yes"/>
      <point x="448.572" y="19.6257"/>
      <point x="363" y="-7" type="qcurve"/>
      <point x="273.005" y="14.527"/>
      <point x="207" y="106" type="qcurve" smooth="yes"/>
      <point x="129.037" y="214.045"/>
      <point x="129" y="348" type="qcurve" smooth="yes"/>
      <point x="128.977" y="432"/>
      <point x="218" y="633"/>
      <point x="284" y="668" type="qcurve"/>
      <point x="251" y="686"/>
      <point x="220" y="693"/>
      <point x="187" y="693" type="qcurve" smooth="yes"/>
      <point x="144" y="693"/>
      <point x="83" y="667"/>
      <point x="52" y="630" type="qcurve"/>
      <point x="51" y="636"/>
      <point x="50" y="653"/>
      <point x="50" y="668" type="qcurve" smooth="yes"/>
      <point x="50" y="702"/>
      <point x="60" y="758"/>
      <point x="89" y="791"/>
      <point x="118" y="811"/>
      <point x="149" y="815"/>
      <point x="172" y="815"/>
      <point x="179" y="815" type="qcurve" smooth="yes"/>
      <point x="229" y="815"/>
      <point x="316" y="779"/>
      <point x="356" y="736" type="qcurve"/>
      <point x="395" y="779"/>
      <point x="483" y="815"/>
      <point x="534" y="815" type="qcurve" smooth="yes"/>
      <point x="543" y="815"/>
      <point x="561" y="815"/>
      <point x="592.898" y="810.841"/>
      <point x="610" y="800" type="qcurve" smooth="yes"/>
      <point x="622.888" y="791.83"/>
      <point x="639" y="773" type="qcurve" smooth="yes"/>
      <point x="650.988" y="758.99"/>
      <point x="662" y="696"/>
      <point x="662" y="668" type="qcurve" smooth="yes"/>
      <point x="662" y="648"/>
      <point x="661" y="635"/>
      <point x="660" y="630" type="qcurve"/>
      <point x="630" y="666"/>
      <point x="567" y="693"/>
      <point x="525" y="693" type="qcurve" smooth="yes"/>
      <point x="493" y="693"/>
      <point x="461" y="686"/>
      <point x="428" y="668" type="qcurve"/>
      <point x="526.962" y="567.398"/>
      <point x="548" y="519" type="qcurve" smooth="yes"/>
      <point x="576.205" y="454.112"/>
    </contour>
    <contour>
      <point x="425" y="348" type="qcurve" smooth="yes"/>
      <point x="425" y="415"/>
      <point x="394" y="528"/>
      <point x="356" y="574" type="qcurve"/>
      <point x="317" y="528"/>
      <point x="284" y="415"/>
      <point x="284" y="348" type="qcurve" smooth="yes"/>
      <point x="284" y="284"/>
      <point x="337" y="194"/>
      <point x="365" y="164" type="qcurve"/>
      <point x="388" y="194"/>
      <point x="425" y="284"/>
    </contour>
  </outline>
</glyph>
<glyph name="dza-mwangwego" format="2">
  <advance width="382"/>
  <unicode hex="16E1A"/>
  <outline>
    <contour>
      <point x="285" y="-4" type="qcurve"/>
      <point x="273" y="11"/>
      <point x="266" y="27"/>
      <point x="266" y="46" type="curve" smooth="yes"/>
      <point x="266" y="256" type="line"/>
      <point x="327" y="256" type="line"/>
      <point x="327" y="410" type="line"/>
      <point x="266" y="410" type="line"/>
      <point x="266" y="642" type="line" smooth="yes"/>
      <point x="266" y="654"/>
      <point x="277" y="671"/>
      <point x="287" y="671" type="qcurve" smooth="yes"/>
      <point x="296" y="671"/>
      <point x="316" y="659"/>
      <point x="330" y="642" type="qcurve"/>
      <point x="331" y="647"/>
      <point x="332" y="660"/>
      <point x="332" y="682" type="qcurve" smooth="yes"/>
      <point x="332" y="711"/>
      <point x="323" y="761"/>
      <point x="311" y="775" type="qcurve" smooth="yes"/>
      <point x="293" y="796"/>
      <point x="245" y="815"/>
      <point x="217" y="815" type="qcurve" smooth="yes"/>
      <point x="176" y="815"/>
      <point x="120" y="774"/>
      <point x="120" y="735" type="qcurve" smooth="yes"/>
      <point x="120" y="410" type="line"/>
      <point x="50" y="410" type="line"/>
      <point x="50" y="256" type="line"/>
      <point x="120" y="256" type="line"/>
      <point x="120" y="69" type="line" smooth="yes"/>
      <point x="120" y="27"/>
      <point x="129" y="3"/>
      <point x="173" y="-3"/>
      <point x="246" y="-4"/>
    </contour>
  </outline>
</glyph>
<glyph name="dhla-mwangwego" format="2">
  <advance width="540"/>
  <unicode hex="16E1B"/>
  <outline>
    <contour>
      <point x="343" y="187" type="qcurve" smooth="yes"/>
      <point x="343" y="282" type="line"/>
      <point x="203" y="282" type="line"/>
      <point x="203" y="187" type="line" smooth="yes"/>
      <point x="203" y="171"/>
      <point x="241" y="152"/>
      <point x="270" y="152" type="qcurve" smooth="yes"/>
      <point x="299" y="152"/>
      <point x="343" y="171"/>
    </contour>
    <contour>
      <point x="490" y="136" type="line" smooth="yes"/>
      <point x="490" y="67"/>
      <point x="374" y="-7"/>
      <point x="270" y="-7" type="qcurve" smooth="yes"/>
      <point x="171" y="-7"/>
      <point x="114" y="27" type="qcurve" smooth="yes"/>
      <point x="50" y="65"/>
      <point x="50" y="136" type="qcurve" smooth="yes"/>
      <point x="50" y="440" type="line"/>
      <point x="343" y="440" type="line"/>
      <point x="343" y="642" type="line" smooth="yes"/>
      <point x="343" y="652.097"/>
      <point x="341" y="657" type="qcurve" smooth="yes"/>
      <point x="335.235" y="671.059"/>
      <point x="322" y="671" type="qcurve" smooth="yes"/>
      <point x="313" y="670.96"/>
      <point x="291" y="657"/>
      <point x="279" y="642" type="qcurve"/>
      <point x="279" y="646"/>
      <point x="277" y="672"/>
      <point x="277" y="683" type="qcurve" smooth="yes"/>
      <point x="277" y="715"/>
      <point x="285.119" y="759.898"/>
      <point x="298" y="775" type="qcurve" smooth="yes"/>
      <point x="314.119" y="793.899"/>
      <point x="366" y="815"/>
      <point x="393" y="815" type="qcurve" smooth="yes"/>
      <point x="433" y="815"/>
      <point x="490" y="773"/>
      <point x="490" y="735" type="qcurve" smooth="yes"/>
    </contour>
  </outline>
</glyph>
<glyph name="hla-mwangwego" format="2">
  <advance width="517"/>
  <unicode hex="16E1C"/>
  <anchor x="257" y="835" name="top"/>
  <anchor x="257" y="-30" name="bottom"/>
  <outline>
    <contour>
      <point x="329" y="-4" type="qcurve"/>
      <point x="317" y="11"/>
      <point x="310" y="27"/>
      <point x="310" y="46" type="curve" smooth="yes"/>
      <point x="310" y="85"/>
      <point x="310" y="184"/>
      <point x="310" y="225" type="qcurve"/>
      <point x="388.188" y="246.876"/>
      <point x="429" y="309" type="qcurve" smooth="yes"/>
      <point x="466.368" y="365.881"/>
      <point x="467" y="442" type="qcurve" smooth="yes"/>
      <point x="468.153" y="580.778"/>
      <point x="361" y="699" type="qcurve" smooth="yes"/>
      <point x="265.736" y="804.105"/>
      <point x="176" y="809" type="qcurve" smooth="yes"/>
      <point x="66" y="815" type="line"/>
      <point x="65" y="667" type="line"/>
      <point x="69" y="668"/>
      <point x="78" y="668.019"/>
      <point x="86" y="668" type="qcurve" smooth="yes"/>
      <point x="128.966" y="667.9"/>
      <point x="164" y="658" type="qcurve" smooth="yes"/>
      <point x="213.966" y="643.881"/>
      <point x="228" y="611" type="qcurve"/>
      <point x="144" y="601"/>
      <point x="50.1174" y="489"/>
      <point x="50" y="407" type="qcurve" smooth="yes"/>
      <point x="49.898" y="335.808"/>
      <point x="91" y="289" type="qcurve" smooth="yes"/>
      <point x="122.781" y="252.807"/>
      <point x="176" y="235" type="qcurve"/>
      <point x="176" y="36" type="line" smooth="yes"/>
      <point x="176" y="25"/>
      <point x="191" y="1"/>
      <point x="225" y="-3"/>
      <point x="292" y="-4"/>
    </contour>
    <contour>
      <point x="353" y="415" type="qcurve" smooth="yes"/>
      <point x="353" y="376"/>
      <point x="295" y="322"/>
      <point x="254" y="322" type="qcurve" smooth="yes"/>
      <point x="215" y="322"/>
      <point x="161" y="380"/>
      <point x="161" y="421" type="qcurve" smooth="yes"/>
      <point x="161" y="460"/>
      <point x="219" y="514"/>
      <point x="260" y="514" type="qcurve" smooth="yes"/>
      <point x="299" y="514"/>
      <point x="353" y="456"/>
    </contour>
  </outline>
</glyph>
<glyph name="xa-mwangwego" format="2">
  <advance width="555"/>
  <unicode hex="16E1D"/>
  <outline>
    <contour>
      <point x="505" y="-2" type="qcurve"/>
      <point x="501" y="7"/>
      <point x="495" y="15"/>
      <point x="492" y="24" type="curve" smooth="yes"/>
      <point x="489" y="32"/>
      <point x="486" y="40"/>
      <point x="486" y="48" type="curve" smooth="yes"/>
      <point x="484" y="135"/>
      <point x="485.859" y="227"/>
      <point x="486" y="314" type="curve" smooth="yes"/>
      <point x="486.086" y="366.368"/>
      <point x="433" y="399" type="qcurve" smooth="yes"/>
      <point x="387.227" y="427.136"/>
      <point x="331" y="427" type="qcurve" smooth="yes"/>
      <point x="284.964" y="426.889"/>
      <point x="245" y="415" type="qcurve" smooth="yes"/>
      <point x="231.963" y="411.122"/>
      <point x="214" y="403" type="qcurve"/>
      <point x="215" y="626" type="line" smooth="yes"/>
      <point x="215.072" y="642"/>
      <point x="264" y="670"/>
      <point x="303" y="670" type="qcurve" smooth="yes"/>
      <point x="328" y="670"/>
      <point x="383.99" y="656.978"/>
      <point x="415" y="643" type="qcurve" smooth="yes"/>
      <point x="430.823" y="635.868"/>
      <point x="451" y="605" type="qcurve" smooth="yes"/>
      <point x="479.833" y="560.89"/>
      <point x="486" y="554" type="qcurve"/>
      <point x="487" y="564"/>
      <point x="488" y="590"/>
      <point x="488" y="609" type="qcurve" smooth="yes"/>
      <point x="488" y="648"/>
      <point x="479.173" y="713.15"/>
      <point x="467" y="727" type="qcurve" smooth="yes"/>
      <point x="436.145" y="762.107"/>
      <point x="395" y="787" type="qcurve" smooth="yes"/>
      <point x="366.973" y="803.956"/>
      <point x="320" y="815"/>
      <point x="288" y="815" type="qcurve" smooth="yes"/>
      <point x="266" y="815"/>
      <point x="233.99" y="813.055"/>
      <point x="223" y="811" type="qcurve" smooth="yes"/>
      <point x="176.731" y="802.346"/>
      <point x="119" y="751" type="qcurve" smooth="yes"/>
      <point x="50.741" y="690.29"/>
      <point x="53" y="598" type="qcurve" smooth="yes"/>
      <point x="53.7345" y="567.992"/>
      <point x="50" y="414"/>
      <point x="50" y="339" type="qcurve" smooth="yes"/>
      <point x="50" y="312"/>
      <point x="50" y="259"/>
      <point x="50" y="242" type="qcurve"/>
      <point x="86.0462" y="258.843"/>
      <point x="110" y="266" type="qcurve" smooth="yes"/>
      <point x="181.054" y="287.229"/>
      <point x="241" y="286" type="qcurve" smooth="yes"/>
      <point x="271.01" y="285.385"/>
      <point x="293" y="277" type="qcurve"/>
      <point x="326.736" y="266.998"/>
      <point x="327" y="251" type="qcurve" smooth="yes"/>
      <point x="330" y="69" type="line" smooth="yes"/>
      <point x="330.692" y="27.0057"/>
      <point x="339" y="3"/>
      <point x="374" y="-2"/>
      <point x="403" y="-2" type="qcurve" smooth="yes"/>
      <point x="441" y="-2" type="line" smooth="yes"/>
      <point x="457" y="-2"/>
      <point x="493" y="-2"/>
    </contour>
  </outline>
</glyph>
<glyph name="emwa" format="2">
  <advance width="231"/>
  <unicode hex="16E20"/>
  <outline>
    <contour>
      <point x="-363" y="157" type="line"/>
      <point x="231" y="157" type="line"/>
      <point x="231" y="0" type="line"/>
      <point x="-322" y="0" type="line"/>
      <point x="-364" y="24" type="line"/>
    </contour>
  </outline>
</glyph>
<glyph name="ota" format="2">
  <advance width="276"/>
  <unicode hex="16E22"/>
  <outline>
    <contour>
      <point x="276" y="183" type="qcurve" smooth="yes"/>
      <point x="276" y="293"/>
      <point x="154" y="435"/>
      <point x="57" y="435" type="qcurve"/>
      <point x="57" y="300" type="line"/>
      <point x="92" y="300"/>
      <point x="141.691" y="264.967"/>
      <point x="145" y="211" type="qcurve" smooth="yes"/>
      <point x="146.591" y="185.049"/>
      <point x="131" y="173" type="qcurve"/>
      <point x="112" y="157"/>
      <point x="61" y="157" type="qcurve" smooth="yes"/>
      <point x="-363" y="157" type="line"/>
      <point x="-364" y="24" type="line"/>
      <point x="-322" y="0" type="line"/>
      <point x="41" y="0" type="line" smooth="yes"/>
      <point x="163" y="0"/>
      <point x="222" y="50" type="qcurve" smooth="yes"/>
      <point x="276" y="96"/>
    </contour>
  </outline>
</glyph>
<glyph name="myu" format="2">
  <advance width="258"/>
  <unicode hex="16E24"/>
  <outline>
    <contour>
      <point x="253.61" y="420.974" type="qcurve" smooth="yes"/>
      <point x="254.518" y="412.7"/>
      <point x="245" y="402" type="qcurve" smooth="yes"/>
      <point x="231.228" y="388.919"/>
      <point x="212" y="388" type="qcurve" smooth="yes"/>
      <point x="195.362" y="387.204"/>
      <point x="173" y="400" type="qcurve" smooth="yes"/>
      <point x="148.894" y="413.793"/>
      <point x="140" y="419" type="qcurve" smooth="yes"/>
      <point x="76.4241" y="456.219"/>
      <point x="41" y="498" type="qcurve" smooth="yes"/>
      <point x="0.982185" y="545.2"/>
      <point x="1" y="600" type="qcurve" smooth="yes"/>
      <point x="1.0227" y="669.737"/>
      <point x="29" y="718" type="qcurve" smooth="yes"/>
      <point x="64.0354" y="778.439"/>
      <point x="135.399" y="790.654" type="qcurve" smooth="yes"/>
      <point x="151.355" y="793.385"/>
      <point x="175.94" y="795.931"/>
      <point x="188" y="797" type="qcurve" smooth="yes"/>
      <point x="193.977" y="797.53"/>
      <point x="226" y="793"/>
      <point x="243" y="772"/>
      <point x="243" y="758" type="qcurve" smooth="yes"/>
      <point x="243" y="740"/>
      <point x="230" y="727" type="qcurve" smooth="yes"/>
      <point x="220.059" y="717.059"/>
      <point x="205.439" y="717.059" type="qcurve" smooth="yes"/>
      <point x="200.941" y="717.059"/>
      <point x="191.986" y="718.437"/>
      <point x="185" y="718" type="qcurve" smooth="yes"/>
      <point x="169" y="717"/>
      <point x="157" y="715"/>
      <point x="148" y="712" type="qcurve" smooth="yes"/>
      <point x="111.16" y="699.72"/>
      <point x="81" y="643"/>
      <point x="81" y="602" type="qcurve" smooth="yes"/>
      <point x="81" y="560"/>
      <point x="118.429" y="512.253"/>
      <point x="188" y="473" type="qcurve" smooth="yes"/>
      <point x="204.834" y="463.502"/>
      <point x="235" y="450" type="qcurve" smooth="yes"/>
      <point x="244.951" y="445.546"/>
      <point x="250.41" y="437.448" type="qcurve" smooth="yes"/>
      <point x="252.553" y="430.599"/>
    </contour>
  </outline>
</glyph>
<glyph name="mi" format="2">
  <advance width="517"/>
  <unicode hex="16E25"/>
  <outline>
    <contour>
      <point x="502.61" y="421.974" type="qcurve" smooth="yes"/>
      <point x="502.889" y="412.416"/>
      <point x="494" y="403" type="qcurve" smooth="yes"/>
      <point x="481.388" y="389.641"/>
      <point x="461" y="389" type="qcurve" smooth="yes"/>
      <point x="443.979" y="388.465"/>
      <point x="422" y="401" type="qcurve" smooth="yes"/>
      <point x="397.886" y="414.752"/>
      <point x="389" y="420" type="qcurve" smooth="yes"/>
      <point x="325.45" y="457.531"/>
      <point x="290" y="499" type="qcurve" smooth="yes"/>
      <point x="249.884" y="545.928"/>
      <point x="250" y="601" type="qcurve" smooth="yes"/>
      <point x="250.148" y="670.791"/>
      <point x="278" y="719" type="qcurve" smooth="yes"/>
      <point x="312.943" y="779.481"/>
      <point x="384.399" y="791.654" type="qcurve" smooth="yes"/>
      <point x="400.358" y="794.373"/>
      <point x="424.94" y="796.931"/>
      <point x="437" y="798" type="qcurve" smooth="yes"/>
      <point x="442.977" y="798.53"/>
      <point x="475" y="794"/>
      <point x="492" y="773"/>
      <point x="492" y="759" type="qcurve" smooth="yes"/>
      <point x="492" y="741"/>
      <point x="479" y="728" type="qcurve" smooth="yes"/>
      <point x="469.059" y="718.059"/>
      <point x="454.439" y="718.059" type="qcurve" smooth="yes"/>
      <point x="449.941" y="718.059"/>
      <point x="440.986" y="719.437"/>
      <point x="434" y="719" type="qcurve" smooth="yes"/>
      <point x="418" y="718"/>
      <point x="406" y="716"/>
      <point x="397" y="713" type="qcurve" smooth="yes"/>
      <point x="360.16" y="700.72"/>
      <point x="330" y="644"/>
      <point x="330" y="603" type="qcurve" smooth="yes"/>
      <point x="330" y="561"/>
      <point x="368.266" y="514.7"/>
      <point x="437" y="474" type="qcurve" smooth="yes"/>
      <point x="453.856" y="464.019"/>
      <point x="484" y="451" type="qcurve" smooth="yes"/>
      <point x="495.647" y="445.97"/>
      <point x="499.41" y="438.448" type="qcurve" smooth="yes"/>
      <point x="502.298" y="432.677"/>
    </contour>
    <contour>
      <point x="253.61" y="420.974" type="qcurve" smooth="yes"/>
      <point x="254.518" y="412.7"/>
      <point x="245" y="402" type="qcurve" smooth="yes"/>
      <point x="231.228" y="388.919"/>
      <point x="212" y="388" type="qcurve" smooth="yes"/>
      <point x="195.362" y="387.204"/>
      <point x="173" y="400" type="qcurve" smooth="yes"/>
      <point x="148.894" y="413.793"/>
      <point x="140" y="419" type="qcurve" smooth="yes"/>
      <point x="76.4241" y="456.219"/>
      <point x="41" y="498" type="qcurve" smooth="yes"/>
      <point x="0.982185" y="545.2"/>
      <point x="1" y="600" type="qcurve" smooth="yes"/>
      <point x="1.0227" y="669.737"/>
      <point x="29" y="718" type="qcurve" smooth="yes"/>
      <point x="64.0354" y="778.439"/>
      <point x="135.399" y="790.654" type="qcurve" smooth="yes"/>
      <point x="151.355" y="793.385"/>
      <point x="175.94" y="795.931"/>
      <point x="188" y="797" type="qcurve" smooth="yes"/>
      <point x="193.977" y="797.53"/>
      <point x="226" y="793"/>
      <point x="243" y="772"/>
      <point x="243" y="758" type="qcurve" smooth="yes"/>
      <point x="243" y="740"/>
      <point x="230" y="727" type="qcurve" smooth="yes"/>
      <point x="220.059" y="717.059"/>
      <point x="205.439" y="717.059" type="qcurve" smooth="yes"/>
      <point x="200.941" y="717.059"/>
      <point x="191.986" y="718.437"/>
      <point x="185" y="718" type="qcurve" smooth="yes"/>
      <point x="169" y="717"/>
      <point x="157" y="715"/>
      <point x="148" y="712" type="qcurve" smooth="yes"/>
      <point x="111.16" y="699.72"/>
      <point x="81" y="643"/>
      <point x="81" y="602" type="qcurve" smooth="yes"/>
      <point x="81" y="560"/>
      <point x="118.429" y="512.253"/>
      <point x="188" y="473" type="qcurve" smooth="yes"/>
      <point x="204.834" y="463.502"/>
      <point x="235" y="450" type="qcurve" smooth="yes"/>
      <point x="244.951" y="445.546"/>
      <point x="250.41" y="437.448" type="qcurve" smooth="yes"/>
      <point x="252.553" y="430.599"/>
    </contour>
    <contour>
      <point x="253.61" y="420.974" type="qcurve" smooth="yes"/>
      <point x="254.518" y="412.7"/>
      <point x="245" y="402" type="qcurve" smooth="yes"/>
      <point x="231.228" y="388.919"/>
      <point x="212" y="388" type="qcurve" smooth="yes"/>
      <point x="195.362" y="387.204"/>
      <point x="173" y="400" type="qcurve" smooth="yes"/>
      <point x="148.894" y="413.793"/>
      <point x="140" y="419" type="qcurve" smooth="yes"/>
      <point x="76.4241" y="456.219"/>
      <point x="41" y="498" type="qcurve" smooth="yes"/>
      <point x="0.982185" y="545.2"/>
      <point x="1" y="600" type="qcurve" smooth="yes"/>
      <point x="1.0227" y="669.737"/>
      <point x="29" y="718" type="qcurve" smooth="yes"/>
      <point x="64.0354" y="778.439"/>
      <point x="135.399" y="790.654" type="qcurve" smooth="yes"/>
      <point x="151.355" y="793.385"/>
      <point x="175.94" y="795.931"/>
      <point x="188" y="797" type="qcurve" smooth="yes"/>
      <point x="193.977" y="797.53"/>
      <point x="226" y="793"/>
      <point x="243" y="772"/>
      <point x="243" y="758" type="qcurve" smooth="yes"/>
      <point x="243" y="740"/>
      <point x="230" y="727" type="qcurve" smooth="yes"/>
      <point x="220.059" y="717.059"/>
      <point x="205.439" y="717.059" type="qcurve" smooth="yes"/>
      <point x="200.941" y="717.059"/>
      <point x="191.986" y="718.437"/>
      <point x="185" y="718" type="qcurve" smooth="yes"/>
      <point x="169" y="717"/>
      <point x="157" y="715"/>
      <point x="148" y="712" type="qcurve" smooth="yes"/>
      <point x="111.16" y="699.72"/>
      <point x="81" y="643"/>
      <point x="81" y="602" type="qcurve" smooth="yes"/>
      <point x="81" y="560"/>
      <point x="118.429" y="512.253"/>
      <point x="188" y="473" type="qcurve" smooth="yes"/>
      <point x="204.834" y="463.502"/>
      <point x="235" y="450" type="qcurve" smooth="yes"/>
      <point x="244.951" y="445.546"/>
      <point x="250.41" y="437.448" type="qcurve" smooth="yes"/>
      <point x="252.553" y="430.599"/>
    </contour>
    <contour>
      <point x="253.61" y="420.974" type="qcurve" smooth="yes"/>
      <point x="254.518" y="412.7"/>
      <point x="245" y="402" type="qcurve" smooth="yes"/>
      <point x="231.228" y="388.919"/>
      <point x="212" y="388" type="qcurve" smooth="yes"/>
      <point x="195.362" y="387.204"/>
      <point x="173" y="400" type="qcurve" smooth="yes"/>
      <point x="148.894" y="413.793"/>
      <point x="140" y="419" type="qcurve" smooth="yes"/>
      <point x="76.4241" y="456.219"/>
      <point x="41" y="498" type="qcurve" smooth="yes"/>
      <point x="0.982185" y="545.2"/>
      <point x="1" y="600" type="qcurve" smooth="yes"/>
      <point x="1.0227" y="669.737"/>
      <point x="29" y="718" type="qcurve" smooth="yes"/>
      <point x="64.0354" y="778.439"/>
      <point x="135.399" y="790.654" type="qcurve" smooth="yes"/>
      <point x="151.355" y="793.385"/>
      <point x="175.94" y="795.931"/>
      <point x="188" y="797" type="qcurve" smooth="yes"/>
      <point x="193.977" y="797.53"/>
      <point x="226" y="793"/>
      <point x="243" y="772"/>
      <point x="243" y="758" type="qcurve" smooth="yes"/>
      <point x="243" y="740"/>
      <point x="230" y="727" type="qcurve" smooth="yes"/>
      <point x="220.059" y="717.059"/>
      <point x="205.439" y="717.059" type="qcurve" smooth="yes"/>
      <point x="200.941" y="717.059"/>
      <point x="191.986" y="718.437"/>
      <point x="185" y="718" type="qcurve" smooth="yes"/>
      <point x="169" y="717"/>
      <point x="157" y="715"/>
      <point x="148" y="712" type="qcurve" smooth="yes"/>
      <point x="111.16" y="699.72"/>
      <point x="81" y="643"/>
      <point x="81" y="602" type="qcurve" smooth="yes"/>
      <point x="81" y="560"/>
      <point x="118.429" y="512.253"/>
      <point x="188" y="473" type="qcurve" smooth="yes"/>
      <point x="204.834" y="463.502"/>
      <point x="235" y="450" type="qcurve" smooth="yes"/>
      <point x="244.951" y="445.546"/>
      <point x="250.41" y="437.448" type="qcurve" smooth="yes"/>
      <point x="252.553" y="430.599"/>
    </contour>
  </outline>
</glyph>
<glyph name="ni" format="2">
  <advance width="277"/>
  <unicode hex="16E26"/>
  <outline>
    <contour>
      <point x="97" y="497" type="line"/>
      <point x="97" y="801" type="line"/>
      <point x="0" y="801" type="line"/>
      <point x="0" y="497" type="line"/>
    </contour>
    <contour>
      <point x="277" y="497" type="line"/>
      <point x="277" y="801" type="line"/>
      <point x="180" y="801" type="line"/>
      <point x="180" y="497" type="line"/>
    </contour>
  </outline>
</glyph>
<glyph name="sisa" format="2">
  <advance width="256"/>
  <unicode hex="16E2A"/>
  <outline>
    <contour>
      <point x="1.8904" y="420.974" type="qcurve" smooth="yes"/>
      <point x="1.8369" y="431.052"/>
      <point x="5.0905" y="437.448" type="qcurve" smooth="yes"/>
      <point x="9.518" y="446.153"/>
      <point x="20.5006" y="450" type="qcurve" smooth="yes"/>
      <point x="50.6662" y="463.502"/>
      <point x="67.5006" y="473" type="qcurve" smooth="yes"/>
      <point x="137.071" y="512.253"/>
      <point x="174.501" y="560"/>
      <point x="174.501" y="602" type="qcurve" smooth="yes"/>
      <point x="174.501" y="643"/>
      <point x="144.341" y="699.72"/>
      <point x="107.501" y="712" type="qcurve" smooth="yes"/>
      <point x="98.5006" y="715"/>
      <point x="86.5006" y="717"/>
      <point x="70.5006" y="718" type="qcurve" smooth="yes"/>
      <point x="63.5142" y="718.437"/>
      <point x="54.5596" y="717.059"/>
      <point x="50.0616" y="717.059" type="qcurve" smooth="yes"/>
      <point x="35.4416" y="717.059"/>
      <point x="25.5006" y="727" type="qcurve" smooth="yes"/>
      <point x="12.5006" y="740"/>
      <point x="12.5006" y="758" type="qcurve" smooth="yes"/>
      <point x="12.5006" y="772"/>
      <point x="29.5006" y="793"/>
      <point x="61.5237" y="797.53"/>
      <point x="67.5006" y="797" type="qcurve" smooth="yes"/>
      <point x="79.5607" y="795.931"/>
      <point x="104.145" y="793.384"/>
      <point x="120.102" y="790.654" type="qcurve" smooth="yes"/>
      <point x="191.473" y="778.442"/>
      <point x="226.501" y="718" type="qcurve" smooth="yes"/>
      <point x="254.467" y="669.742"/>
      <point x="254.501" y="600" type="qcurve" smooth="yes"/>
      <point x="254.534" y="545.17"/>
      <point x="214.501" y="498" type="qcurve" smooth="yes"/>
      <point x="179.065" y="456.267"/>
      <point x="115.501" y="419" type="qcurve" smooth="yes"/>
      <point x="106.611" y="413.781"/>
      <point x="82.5006" y="400" type="qcurve" smooth="yes"/>
      <point x="60.1986" y="387.349"/>
      <point x="43.5006" y="388" type="qcurve" smooth="yes"/>
      <point x="23.797" y="388.664"/>
      <point x="10.5006" y="402" type="qcurve" smooth="yes"/>
      <point x="0.480058" y="412.232"/>
    </contour>
  </outline>
</glyph>
<glyph name="pewa" format="2">
  <unicode hex="16E2D"/>
  <anchor x="214" y="844" name="_pewa"/>
  <anchor x="215" y="1151" name="pewa"/>
  <anchor x="215" y="1151" name="top"/>
  <outline>
    <contour>
      <point x="434" y="913" type="line"/>
      <point x="215" y="1128" type="line"/>
      <point x="0" y="913" type="line"/>
      <point x="68" y="844" type="line"/>
      <point x="214" y="997" type="line"/>
      <point x="366" y="844" type="line"/>
    </contour>
  </outline>
</glyph>
<glyph name="tumba" format="2">
  <advance width="97"/>
  <unicode hex="16E2E"/>
  <outline>
    <contour>
      <point x="97" y="497" type="line"/>
      <point x="97" y="801" type="line"/>
      <point x="0" y="801" type="line"/>
      <point x="0" y="497" type="line"/>
    </contour>
  </outline>
</glyph>
